<?xml version="1.0" encoding="UTF-8"?>
<svg version="1.1" xmlns="http://www.w3.org/2000/svg" width="474" height="402">
<path d="M0 0 C156.42 0 312.84 0 474 0 C474 132.66 474 265.32 474 402 C317.58 402 161.16 402 0 402 C0 269.34 0 136.68 0 0 Z " fill="#253F70" transform="translate(0,0)"/>
<path d="M0 0 C0.66 0 1.32 0 2 0 C2 66.33 2 132.66 2 201 C-154.42 201 -310.84 201 -472 201 C-472 160.41 -472 119.82 -472 78 C-468.30839437 79.84580282 -466.25941023 81.45968887 -463.3125 84.25 C-459.31346669 87.94004411 -455.26325702 90.98719167 -450.6171875 93.80859375 C-450.08351563 94.20175781 -449.54984375 94.59492188 -449 95 C-449 95.66 -449 96.32 -449 97 C-448.00226563 97.12955078 -448.00226563 97.12955078 -446.984375 97.26171875 C-443.07758322 98.22818949 -439.80570951 99.96097665 -436.25 101.8125 C-434.80913207 102.54403003 -433.3677302 103.27450937 -431.92578125 104.00390625 C-430.61713107 104.66915985 -429.30853044 105.33451091 -428 106 C-412.51254017 113.85178196 -395.15791246 116.36065519 -377.97216797 116.20581055 C-375.87064492 116.18746198 -373.76956402 116.18530245 -371.66796875 116.18554688 C-361.64514688 116.16075307 -352.11871914 115.81944934 -342.4375 113.125 C-341.23996094 112.79757812 -340.04242188 112.47015625 -338.80859375 112.1328125 C-331.01109251 109.81355572 -323.47103184 107.06644142 -315.9375 104 C-298.66118421 97 -298.66118421 97 -296 97 C-296 96.34 -296 95.68 -296 95 C-294.845 94.5875 -293.69 94.175 -292.5 93.75 C-289.56544967 92.65471009 -286.78314934 91.43575164 -284 90 C-280.80710431 88.36023768 -277.61021525 87.05017407 -274.234375 85.83984375 C-271.61520846 84.85536682 -269.06693993 83.73849692 -266.5 82.625 C-250.93058531 76.11808553 -235.68010101 72.6034726 -218.75 72.625 C-217.54504883 72.62516113 -216.34009766 72.62532227 -215.09863281 72.62548828 C-201.13844224 72.79939572 -187.56817359 75.03642196 -174.06542969 78.49560547 C-151.45449853 84.0173766 -126.68260423 86.09176757 -104 80 C-103.23316895 79.80664062 -102.46633789 79.61328125 -101.67626953 79.4140625 C-90.54979098 76.58051638 -80.67333809 72.74132892 -70.69921875 67.05078125 C-61.8142337 62 -61.8142337 62 -58 62 C-58 61.34 -58 60.68 -58 60 C-55.91015625 58.51953125 -55.91015625 58.51953125 -53.0625 56.8125 C-45.68529473 52.24565864 -38.98897037 47.30417933 -33 41 C-31.87585916 39.89495864 -30.75078368 38.79086763 -29.625 37.6875 C-26.54737147 34.60987147 -23.66320335 31.40667485 -20.828125 28.10546875 C-19.54763177 26.63071266 -18.24331365 25.17646354 -16.921875 23.73828125 C-12.92406881 19.37771117 -9.69326495 15.27431052 -7 10 C-6.34 10 -5.68 10 -5 10 C-4.731875 9.46375 -4.46375 8.9275 -4.1875 8.375 C-2.79166667 5.58333333 -1.39583333 2.79166667 0 0 Z " fill="#DB3834" transform="translate(472,201)"/>
<path d="M0 0 C46.24495369 -0.03034401 92.48990865 -0.05062423 138.73487091 -0.06185675 C141.36695862 -0.06249804 143.99904633 -0.06315688 146.63113403 -0.06381607 C233.75516405 -0.08529023 320.87749825 -0.08944244 408 0.5 C408.88656501 0.50597372 409.77313002 0.51194743 410.68656063 0.51810217 C431.79118933 0.66063866 452.8956764 0.81747892 474 1 C474 2.32 474 3.64 474 5 C317.58 5 161.16 5 0 5 C0 3.35 0 1.7 0 0 Z " fill="#B04740" transform="translate(0,397)"/>
<path d="M0 0 C4.45146251 2.18526342 7.18885145 4.9394521 10 9 C12.20368959 15.61106876 10.91891857 21.83912049 8 28 C4.70417844 31.95498587 2.49009422 33.7124014 -2.671875 34.30859375 C-12.00838334 34.69958966 -12.00838334 34.69958966 -16.125 31.3125 C-19.46319026 28.09886908 -20.82539154 24.68485824 -21.30078125 20.09765625 C-21.34527409 8.57401078 -21.34527409 8.57401078 -16.62890625 3.53515625 C-11.65294299 -0.77257213 -6.33920827 -1.03419108 0 0 Z " fill="#F0F5F8" transform="translate(380,179)"/>
<path d="M0 0 C1.54300781 -0.03867188 1.54300781 -0.03867188 3.1171875 -0.078125 C7.60602424 0.41156628 10.17266083 2.37487752 13.4375 5.375 C15.82588172 9.44409478 15.86062554 12.64108083 15.125 17.25 C11.91620866 28.03009675 4.51585651 34.57252139 -4.875 40.25 C-8.96420303 42.05868595 -12.403712 42.75810091 -16.875 42.25 C-18.875 39.25 -18.875 39.25 -18.8125 35.9375 C-17.62907501 31.28269505 -16.37585194 29.51215749 -12.875 26.25 C-10.125 25.8125 -10.125 25.8125 -7.875 26.25 C-6.875 27.25 -6.875 27.25 -6.5 29.5 C-7.02583598 33.35613052 -9.01929641 34.75125936 -11.875 37.25 C-4.79829353 36.28896579 0.06281767 31.62150968 4.625 26.375 C6.55638998 22.35127087 6.92855177 18.67008507 7.125 14.25 C0.52540703 13.52127356 -3.36088752 16.56820444 -8.68945312 19.96289062 C-13.5094538 22.87915435 -18.13673445 24.66888965 -23.875 24.25 C-25.875 22.25 -25.875 22.25 -26.4375 19.125 C-25.63259716 13.58011375 -23.0256983 10.87269428 -18.875 7.25 C-12.71380699 2.95019461 -7.60797335 0.11383501 0 0 Z " fill="#F4F8FA" transform="translate(111.875,169.75)"/>
<path d="M0 0 C2.68885183 1.79256788 3.96866671 3.00646471 5.625 5.75 C5.96557617 8.40722656 5.96557617 8.40722656 5.91796875 11.390625 C5.90830078 12.46054688 5.89863281 13.53046875 5.88867188 14.6328125 C5.86353516 15.74398437 5.83839844 16.85515625 5.8125 18 C5.79219727 19.68996094 5.79219727 19.68996094 5.77148438 21.4140625 C5.73615645 24.19319264 5.6868252 26.97135363 5.625 29.75 C-0.73325744 33.42954713 -4.798024 35.40318759 -12.375 34.75 C-16.15671013 32.71369455 -19.47028802 30.66524129 -21.375 26.75 C-22.07756111 22.13564799 -22.00201914 18.82488996 -19.625 14.75 C-16.03949792 11.56288704 -12.8024445 11.62595468 -8.125 11.6875 C-7.23296875 11.69652344 -6.3409375 11.70554688 -5.421875 11.71484375 C-4.74640625 11.72644531 -4.0709375 11.73804688 -3.375 11.75 C-4.035 9.77 -4.695 7.79 -5.375 5.75 C-11.315 6.245 -11.315 6.245 -17.375 6.75 C-18.035 5.1 -18.695 3.45 -19.375 1.75 C-12.77846991 -1.6184409 -7.08253055 -2.62315946 0 0 Z " fill="#F5FAFA" transform="translate(161.375,178.25)"/>
<path d="M0 0 C4.03002555 1.90095545 5.64622947 3.38679775 7.875 7.25 C9 11 9 11 9 19 C3.06 19 -2.88 19 -9 19 C-8.23455149 23.91589599 -8.23455149 23.91589599 -6 28 C-2.17981811 28.1273394 1.14200876 28.18651984 4.875 27.375 C5.57625 27.25125 6.2775 27.1275 7 27 C7.66 27.66 8.32 28.32 9 29 C8.83984375 31.01171875 8.83984375 31.01171875 8 33 C1.96987768 36.17951904 -3.3815615 36.81509016 -10 35 C-14.32792858 32.68464726 -16.5575786 29.64563649 -18 25 C-18.3359375 21.44140625 -18.3359375 21.44140625 -18.375 17.5625 C-18.40335938 16.28503906 -18.43171875 15.00757813 -18.4609375 13.69140625 C-17.77404323 8.19043095 -15.37415679 5.18677178 -11.25 1.625 C-7.25614991 -0.37192505 -4.37584394 -0.84721929 0 0 Z " fill="#EFF5F7" transform="translate(248,177)"/>
<path d="M0 0 C2.125 1.625 2.125 1.625 4.125 3.625 C4.25 6.25 4.25 6.25 4.125 8.625 C3.55652344 8.46902344 2.98804688 8.31304687 2.40234375 8.15234375 C-2.65389203 6.8777334 -6.74023983 6.14381918 -11.875 7.625 C-14.93807631 9.60466263 -14.93807631 9.60466263 -16.875 12.625 C-17.41519814 16.40638697 -17.11639662 18.88471705 -15.9375 22.5 C-12.67900084 25.85724156 -9.45863399 25.42571157 -4.875 25.625 C-4.545 22.655 -4.215 19.685 -3.875 16.625 C-1.54205225 16.58258277 0.79202567 16.58407063 3.125 16.625 C4.84444301 18.34444301 4.41845984 20.52915223 4.5 22.875 C4.43045657 26.69492138 4.24691393 28.40294248 2.375 31.8125 C-3.1077707 34.87019904 -8.98957311 34.48218279 -15.03515625 33.1484375 C-19.70379874 31.44515255 -22.09485816 28.54990613 -24.875 24.625 C-26.67473286 19.22580143 -26.57612627 13.68942735 -24.75 8.3125 C-19.13852762 0.26938959 -9.39831337 -4.49484553 0 0 Z " fill="#F4F8FA" transform="translate(350.875,180.375)"/>
<path d="M0 0 C0.33 0.66 0.66 1.32 1 2 C-0.07192184 3.3218362 -1.15802695 4.63217927 -2.25 5.9375 C-2.85328125 6.66839844 -3.4565625 7.39929688 -4.078125 8.15234375 C-6.10741134 10.10326334 -7.254407 10.61731779 -10 11 C-10 11.66 -10 12.32 -10 13 C-10.99 13 -11.98 13 -13 13 C-13 13.66 -13 14.32 -13 15 C-13.928125 15.1546875 -13.928125 15.1546875 -14.875 15.3125 C-17.36526484 15.87525373 -17.36526484 15.87525373 -19 19 C-20.99422795 19.36628677 -22.99453311 19.70131344 -25 20 C-25.33 20.66 -25.66 21.32 -26 22 C-27.99571323 22.67939174 -29.99594773 23.34561559 -32 24 C-32.66 24.66 -33.32 25.32 -34 26 C-36.625 26.125 -36.625 26.125 -39 26 C-39 26.99 -39 27.98 -39 29 C-41.64 29 -44.28 29 -47 29 C-47 30.32 -47 31.64 -47 33 C-48.01578125 33.12117188 -49.0315625 33.24234375 -50.078125 33.3671875 C-51.46876688 33.53631962 -52.85939091 33.70559853 -54.25 33.875 C-54.91257812 33.95363281 -55.57515625 34.03226562 -56.2578125 34.11328125 C-59.38936252 34.49733927 -62.48828337 34.89904844 -65.58520508 35.51000977 C-74.02521214 37.1489948 -82.22980705 37.27344874 -90.79174805 37.20581055 C-93.19395521 37.18745066 -95.59577645 37.18530237 -97.99804688 37.18554688 C-116.0652677 37.1446494 -116.0652677 37.1446494 -123.4375 35 C-132.42424562 32.47740474 -141.73883683 32.87989846 -151 33 C-151.495 31.02 -151.495 31.02 -152 29 C-156.95 28.67 -161.9 28.34 -167 28 C-167 27.34 -167 26.68 -167 26 C-169.64624284 26.14021805 -172.29184578 26.28689776 -174.9375 26.4375 C-175.69224609 26.47681641 -176.44699219 26.51613281 -177.22460938 26.55664062 C-180.91944187 26.44038024 -180.91944187 26.44038024 -184 28 C-185.60083461 28.16218587 -187.20636728 28.27849417 -188.8125 28.375 C-193.10453493 28.71501835 -197.03303912 29.43667282 -201.1875 30.5625 C-205.99434803 31.85351785 -210.04169942 32.2860558 -215 32 C-207.64782326 24.64782326 -190.92938744 24.74708554 -181.20605469 24.62060547 C-180.06555664 24.62205566 -178.92505859 24.62350586 -177.75 24.625 C-176.54504883 24.62516113 -175.34009766 24.62532227 -174.09863281 24.62548828 C-160.13844224 24.79939572 -146.56817359 27.03642196 -133.06542969 30.49560547 C-110.45449853 36.0173766 -85.68260423 38.09176757 -63 32 C-62.23316895 31.80664062 -61.46633789 31.61328125 -60.67626953 31.4140625 C-49.54979098 28.58051638 -39.67333809 24.74132892 -29.69921875 19.05078125 C-20.8142337 14 -20.8142337 14 -17 14 C-17 13.34 -17 12.68 -17 12 C-15.33861059 10.82638506 -13.61820517 9.73574737 -11.875 8.6875 C-7.59224996 6.0460103 -3.75029626 3.34485883 0 0 Z " fill="#B94350" transform="translate(431,249)"/>
<path d="M0 0 C0.66 0.66 1.32 1.32 2 2 C2.33 1.67 2.66 1.34 3 1 C4.99958364 0.95919217 7.00045254 0.95745644 9 1 C9.33 2.32 9.66 3.64 10 5 C12.31 5.66 14.62 6.32 17 7 C16.25 11.75 16.25 11.75 14 14 C16.97 14 19.94 14 23 14 C23.66 11.36 24.32 8.72 25 6 C25.99 6 26.98 6 28 6 C28.07654536 10.51617599 28.10228696 14.59085217 27 19 C25.02 19 23.04 19 21 19 C20.505 17.02 20.505 17.02 20 15 C19.34 15 18.68 15 18 15 C18 15.99 18 16.98 18 18 C15.54617866 19.22691067 13.80015897 19.20175931 11.0625 19.25 C10.18722656 19.27578125 9.31195313 19.3015625 8.41015625 19.328125 C5.5806131 18.94290357 4.74867075 18.19305243 3 16 C2.608125 17.134375 2.21625 18.26875 1.8125 19.4375 C0 23 0 23 -2.6875 23.9375 C-3.450625 23.958125 -4.21375 23.97875 -5 24 C-5 23.01 -5 22.02 -5 21 C-4.01 21 -3.02 21 -2 21 C-1.67 16.71 -1.34 12.42 -1 8 C-3.19797403 10.19797403 -3.45897517 11.17546145 -4.125 14.125 C-4.41375 15.40375 -4.7025 16.6825 -5 18 C-5.99 18 -6.98 18 -8 18 C-7.98259766 16.93458984 -7.98259766 16.93458984 -7.96484375 15.84765625 C-7.95582031 14.92855469 -7.94679688 14.00945312 -7.9375 13.0625 C-7.92589844 12.14597656 -7.91429687 11.22945313 -7.90234375 10.28515625 C-7.74050951 8.03406673 -7.74050951 8.03406673 -9 7 C-9.66 10.63 -10.32 14.26 -11 18 C-11.99 18 -12.98 18 -14 18 C-14.25129515 12.22021147 -13.94755065 6.4977732 -12 1 C-8.22300437 -1.91368234 -4.47406586 -1.01299604 0 0 Z " fill="#B3423B" transform="translate(331,354)"/>
<path d="M0 0 C0 2.31 0 4.62 0 7 C3.96 7 7.92 7 12 7 C11.74438677 9.3431213 11.40729228 11.67843403 11 14 C8.59454362 15.20272819 7.05003047 15.10071472 4.375 15.0625 C3.14910156 15.04896484 3.14910156 15.04896484 1.8984375 15.03515625 C0.95871094 15.01775391 0.95871094 15.01775391 0 15 C0.14021805 17.64624284 0.28689776 20.29184578 0.4375 22.9375 C0.47681641 23.69224609 0.51613281 24.44699219 0.55664062 25.22460938 C0.44038024 28.91944187 0.44038024 28.91944187 2 32 C3.68608966 32.07205511 5.37500659 32.08386068 7.0625 32.0625 C7.98160156 32.05347656 8.90070313 32.04445312 9.84765625 32.03515625 C10.55792969 32.02355469 11.26820313 32.01195312 12 32 C11.51669316 38.52464229 11.51669316 38.52464229 9.4375 40.4375 C5.15453393 41.42587678 1.09906393 42.2142972 -2.81640625 39.94921875 C-4.98949346 38.1740945 -6.73685603 36.52628794 -8 34 C-8.28042286 29.91470043 -8.31359145 25.82776466 -8.35009766 21.73364258 C-8.36663597 20.37474414 -8.39389921 19.01593195 -8.43212891 17.6574707 C-8.48709607 15.69275314 -8.50566889 13.72712475 -8.5234375 11.76171875 C-8.54325684 10.58569092 -8.56307617 9.40966309 -8.58349609 8.19799805 C-7.69024647 3.30231737 -5.1589874 0 0 0 Z " fill="#EBF1F5" transform="translate(290,172)"/>
<path d="M0 0 C0 3.3 0 6.6 0 10 C1.65 10 3.3 10 5 10 C5 11.98 5 13.96 5 16 C3.35 16 1.7 16 0 16 C0.33 22.93 0.66 29.86 1 37 C2.65 37.33 4.3 37.66 6 38 C6 39.98 6 41.96 6 44 C-1.99651568 44.6271777 -1.99651568 44.6271777 -6 42.125 C-9.64171016 38.25568295 -9.13033982 34.77060947 -9.09765625 29.7109375 C-9.0962413 28.89251373 -9.09482635 28.07408997 -9.09336853 27.23086548 C-9.0877629 24.61220675 -9.07520948 21.99363296 -9.0625 19.375 C-9.05748572 17.60156373 -9.05292269 15.82812613 -9.04882812 14.0546875 C-9.03779164 9.70309218 -9.02052325 5.3515605 -9 1 C-2.25 0 -2.25 0 0 0 Z " fill="#F5F8F9" transform="translate(221,168)"/>
<path d="M0 0 C0.33 11.88 0.66 23.76 1 36 C2.65 36.66 4.3 37.32 6 38 C6 39.98 6 41.96 6 44 C-2.03095559 44.78734859 -2.03095559 44.78734859 -6 41.5625 C-6.66 40.716875 -7.32 39.87125 -8 39 C-8.33 38.67 -8.66 38.34 -9 38 C-9.08858646 35.26105915 -9.11523479 32.5474673 -9.09765625 29.80859375 C-9.0962413 28.98875504 -9.09482635 28.16891632 -9.09336853 27.32423401 C-9.08775289 24.69528618 -9.07519779 22.06642227 -9.0625 19.4375 C-9.05748701 17.65950643 -9.05292376 15.88151154 -9.04882812 14.10351562 C-9.03777839 9.73564455 -9.02050331 5.36783652 -9 1 C-1.125 0 -1.125 0 0 0 Z " fill="#EBF0F3" transform="translate(271,168)"/>
<path d="M0 0 C3 1 3 1 5.3125 3.375 C10.82411094 8.75843394 17.00013548 10.37169811 24.4921875 10.28515625 C31.04757216 9.53976204 37.26754199 6.57979807 42 2 C42.33 1.34 42.66 0.68 43 0 C43.66 0 44.32 0 45 0 C44.74773083 5.78957751 44.47069971 9.88225026 40 14 C32.6141103 19.01749276 25.87473463 21.142057 17 20 C10.03543618 17.76495373 5.10872191 14.01905018 1 8 C-0.35439668 5.29120665 -0.06501451 2.99066732 0 0 Z " fill="#EFF5F7" transform="translate(333,220)"/>
<path d="M0 0 C1.21236328 0.01353516 1.21236328 0.01353516 2.44921875 0.02734375 C3.37154297 0.04474609 3.37154297 0.04474609 4.3125 0.0625 C5.4375 3.8125 5.4375 3.8125 4.3125 6.0625 C1.3425 6.7225 -1.6275 7.3825 -4.6875 8.0625 C-5.0175 16.9725 -5.3475 25.8825 -5.6875 35.0625 C-8.6575 35.0625 -11.6275 35.0625 -14.6875 35.0625 C-14.86117408 31.02448226 -14.98784608 26.98792209 -15.07202148 22.94702148 C-15.10712146 21.57424033 -15.15481822 20.20171903 -15.21557617 18.82983398 C-15.70714431 7.44115037 -15.70714431 7.44115037 -13.20361328 4.05615234 C-9.11914967 1.06990547 -5.03662824 -0.07299461 0 0 Z " fill="#F9FBFD" transform="translate(203.6875,176.9375)"/>
<path d="M0 0 C0 0.99 0 1.98 0 3 C2.31 3.66 4.62 4.32 7 5 C7 8.63 7 12.26 7 16 C6.34 16 5.68 16 5 16 C5.57344937 18.86724686 5.8614515 19.8614515 8 22 C4.27768022 23.19114233 0.88627639 23.33502383 -3 23 C-6.78171013 20.96369455 -10.09528802 18.91524129 -12 15 C-12.70256111 10.38564799 -12.62701914 7.07488996 -10.25 3 C-6.71481909 -0.14238303 -4.69424365 0 0 0 Z " fill="#EAF1F5" transform="translate(152,190)"/>
<path d="M0 0 C-0.33 3.96 -0.66 7.92 -1 12 C-5 13 -5 13 -7 12 C-7.33 12.66 -7.66 13.32 -8 14 C-12.44209357 14.10834375 -16.61414671 13.70173653 -21 13 C-21 13.99 -21 14.98 -21 16 C-22.32 16 -23.64 16 -25 16 C-25 15.01 -25 14.02 -25 13 C-26.65 12.67 -28.3 12.34 -30 12 C-30 11.34 -30 10.68 -30 10 C-28.35 10 -26.7 10 -25 10 C-25.495 9.443125 -25.99 8.88625 -26.5 8.3125 C-28.24754367 5.61837017 -28.26218749 4.14624993 -28 1 C-26.02 0.67 -24.04 0.34 -22 0 C-21.34 0.99 -20.68 1.98 -20 3 C-19.01 3.33 -18.02 3.66 -17 4 C-17 4.99 -17 5.98 -17 7 C-16.34 7 -15.68 7 -15 7 C-15 7.66 -15 8.32 -15 9 C-14.34 9 -13.68 9 -13 9 C-13.020625 7.700625 -13.04125 6.40125 -13.0625 5.0625 C-13.08399454 3.70834367 -13.07148199 2.35243917 -13 1 C-9.84760926 -2.15239074 -3.77947897 -0.75589579 0 0 Z " fill="#BC504E" transform="translate(390,360)"/>
<path d="M0 0 C3.375 0.3125 3.375 0.3125 7 1 C9.12280563 4.18420845 9.28019537 5.20537255 9.4140625 8.88671875 C9.45273437 9.82451172 9.49140625 10.76230469 9.53125 11.72851562 C9.5621875 12.70498047 9.593125 13.68144531 9.625 14.6875 C9.66367187 15.67556641 9.70234375 16.66363281 9.7421875 17.68164062 C9.83645867 20.12090707 9.92206218 22.56016595 10 25 C11.65 25.33 13.3 25.66 15 26 C15 27.98 15 29.96 15 32 C11.86128812 33.56935594 9.46144178 33.35201103 6 33 C2.84045695 30.45862841 1.28459114 28.85377341 0 25 C-0.08266486 23.08093083 -0.10740663 21.15910526 -0.09765625 19.23828125 C-0.09443359 18.12001953 -0.09121094 17.00175781 -0.08789062 15.84960938 C-0.07951172 14.68236328 -0.07113281 13.51511719 -0.0625 12.3125 C-0.05573242 10.54422852 -0.05573242 10.54422852 -0.04882812 8.74023438 C-0.03703273 5.82677211 -0.0205727 2.91341137 0 0 Z " fill="#E7EEF3" transform="translate(307,180)"/>
<path d="M0 0 C0 11.22 0 22.44 0 34 C-2.97 34 -5.94 34 -9 34 C-9 23.11 -9 12.22 -9 1 C-6 0 -6 0 0 0 Z " fill="#F0F6FA" transform="translate(182,178)"/>
<path d="M0 0 C-1.9716287 1.31441913 -3.97182015 2.58714134 -6 3.8125 C-9.56057844 6.40875511 -11.60740881 8.56622543 -12.32958984 13.04321289 C-12.51856446 15.40590228 -12.6209485 17.75576678 -12.6875 20.125 C-12.72166016 20.93582031 -12.75582031 21.74664062 -12.79101562 22.58203125 C-12.91826724 25.72436714 -13 28.85484846 -13 32 C-13.95653635 34.3514852 -14.95281202 36.68745988 -16 39 C-18.31 38.67 -20.62 38.34 -23 38 C-23 37.67 -23 37.34 -23 37 C-20.03 36.505 -20.03 36.505 -17 36 C-16.505 33.03 -16.505 33.03 -16 30 C-16.804375 30.020625 -17.60875 30.04125 -18.4375 30.0625 C-21 30 -21 30 -22 29 C-22.08685603 27.43827255 -22.10702219 25.87270656 -22.09765625 24.30859375 C-22.09443359 23.36435547 -22.09121094 22.42011719 -22.08789062 21.44726562 C-22.07951172 20.45404297 -22.07113281 19.46082031 -22.0625 18.4375 C-22.05798828 17.44041016 -22.05347656 16.44332031 -22.04882812 15.41601562 C-22.03700007 12.94395151 -22.02051849 10.47200482 -22 8 C-20.02 8 -18.04 8 -16 8 C-16 6.35 -16 4.7 -16 3 C-13 4 -13 4 -12 6 C-11.67 4.35 -11.34 2.7 -11 1 C-7.32589215 -0.17571451 -3.83070817 -0.07366746 0 0 Z " fill="#2B3D67" transform="translate(243,176)"/>
<path d="M0 0 C0.95723465 -0.0033284 1.9144693 -0.0066568 2.90071106 -0.01008606 C4.91353884 -0.01512647 6.9263749 -0.01749528 8.93920898 -0.01733398 C12.02015776 -0.0195317 15.10075455 -0.03774851 18.18164062 -0.05664062 C20.14192586 -0.05957289 22.10221279 -0.0615588 24.0625 -0.0625 C24.98234177 -0.06968552 25.90218353 -0.07687103 26.84989929 -0.08427429 C27.70791641 -0.08119766 28.56593353 -0.07812103 29.44995117 -0.07495117 C30.20161057 -0.07637619 30.95326996 -0.07780121 31.72770691 -0.07926941 C34.13514801 0.2035821 35.70171762 1.0426887 37.83203125 2.16796875 C40.13476119 2.56319296 42.44964467 2.89067174 44.76953125 3.16796875 C51.31993177 3.95261566 51.31993177 3.95261566 54.19140625 5.16015625 C58.08421257 6.64587227 62.0166583 6.89549401 66.14453125 7.29296875 C66.98048828 7.37933594 67.81644531 7.46570313 68.67773438 7.5546875 C70.72850755 7.76562417 72.78019028 7.96768521 74.83203125 8.16796875 C74.83203125 8.82796875 74.83203125 9.48796875 74.83203125 10.16796875 C75.86497314 10.10738281 76.89791504 10.04679687 77.9621582 9.984375 C81.84413813 9.75753513 85.72635099 9.53491292 89.60864258 9.31347656 C91.27960602 9.21759765 92.95050679 9.12061918 94.62133789 9.02246094 C103.69736435 8.49001521 112.73533074 7.98514602 121.83203125 8.16796875 C101.66862764 19.48355933 69.21449438 11.41406133 47.83203125 7.16796875 C46.89375488 6.98540527 45.95547852 6.8028418 44.98876953 6.61474609 C41.41759078 5.91368465 37.87627075 5.17875646 34.33984375 4.31640625 C20.81537169 1.22420594 3.28651864 -0.60025728 -10.16796875 3.16796875 C-11.58331653 3.23253754 -13.00134564 3.25407914 -14.41796875 3.23046875 C-16.27421875 3.19953125 -16.27421875 3.19953125 -18.16796875 3.16796875 C-17.83796875 2.50796875 -17.50796875 1.84796875 -17.16796875 1.16796875 C-11.47969085 -0.02624223 -5.79333868 0.00705535 0 0 Z " fill="#543254" transform="translate(246.16796875,272.83203125)"/>
<path d="M0 0 C0.99 0 1.98 0 3 0 C3 3.3 3 6.6 3 10 C3.70125 9.175 4.4025 8.35 5.125 7.5 C8 5 8 5 11.125 4.375 C14 5 14 5 15.875 7.375 C17 10 17 10 17 12 C17.99 12.33 18.98 12.66 20 13 C20.875 14.875 20.875 14.875 21 17 C19.5625 18.75 19.5625 18.75 18 20 C17.360625 19.67 16.72125 19.34 16.0625 19 C12.55724129 17.85542573 9.73634112 17.88406852 6.0859375 18.02734375 C4 18 4 18 1 17 C-0.32 17 -1.64 17 -3 17 C-2.68853528 15.10399631 -2.37578283 13.20820413 -2.0625 11.3125 C-1.88847656 10.25675781 -1.71445312 9.20101563 -1.53515625 8.11328125 C-1.06832879 5.39750396 -0.55577384 2.69875765 0 0 Z " fill="#CB665E" transform="translate(427,355)"/>
<path d="M0 0 C3.5 0.9375 3.5 0.9375 5.4375 2.9375 C6.89120865 7.04208914 7.19273867 10.63317998 6.5 14.9375 C4.875 18 4.875 18 2.5 19.9375 C-0.4375 20.625 -0.4375 20.625 -3.5 19.9375 C-6.44242435 17.37887013 -8.16375195 15.7469998 -8.87890625 11.8984375 C-8.98345713 8.17642627 -8.72144085 4.97736643 -6.5 1.9375 C-3.5 -0.0625 -3.5 -0.0625 0 0 Z " fill="#223D6F" transform="translate(375.5,186.0625)"/>
<path d="M0 0 C1.32 0.33 2.64 0.66 4 1 C-1.98974571 9.83129743 -9.50990902 17.08052038 -20 20 C-23.25 20.3125 -23.25 20.3125 -26 20 C-28 17 -28 17 -27.9375 13.6875 C-26.75407501 9.03269505 -25.50085194 7.26215749 -22 4 C-19.25 3.5625 -19.25 3.5625 -17 4 C-16 5 -16 5 -15.625 7.25 C-16.15083598 11.10613052 -18.14429641 12.50125936 -21 15 C-16.9120645 14.45831243 -14.57809524 13.25768123 -11.375 10.6875 C-10.61960937 10.09324219 -9.86421875 9.49898437 -9.0859375 8.88671875 C-6.94474934 7.07803252 -6.94474934 7.07803252 -5.4140625 4.83203125 C-4 3 -4 3 -1 2 C-0.67 1.34 -0.34 0.68 0 0 Z " fill="#DAE8F1" transform="translate(121,192)"/>
<path d="M0 0 C2.84550012 0.66010476 5.52325999 1.51724966 8.25 2.5625 C8.95640625 2.83191406 9.6628125 3.10132813 10.390625 3.37890625 C10.92171875 3.58386719 11.4528125 3.78882813 12 4 C11.25 8.75 11.25 8.75 9 11 C11.97 11 14.94 11 18 11 C18.66 8.36 19.32 5.72 20 3 C20.99 3 21.98 3 23 3 C23.07654536 7.51617599 23.10228696 11.59085217 22 16 C20.02 16 18.04 16 16 16 C15.67 14.68 15.34 13.36 15 12 C14.34 12 13.68 12 13 12 C13 12.99 13 13.98 13 15 C9.29808369 16.85095815 5.03170412 16.59506081 1 16 C-1.57011048 13.35429803 -1.94472502 11.82912475 -2.1875 8.1875 C-2.125625 7.465625 -2.06375 6.74375 -2 6 C-0.68 5.67 0.64 5.34 2 5 C2 4.34 2 3.68 2 3 C1.01 3 0.02 3 -1 3 C-0.67 2.01 -0.34 1.02 0 0 Z " fill="#CC514B" transform="translate(336,357)"/>
<path d="M0 0 C-7.63493042 3.95380325 -14.40077525 6.9470337 -23 8 C-23.33 8.33 -23.66 8.66 -24 9 C-26.69235776 9.23678716 -29.36498156 9.42198025 -32.0625 9.5625 C-33.20041992 9.62727539 -33.20041992 9.62727539 -34.36132812 9.69335938 C-36.24065438 9.79973633 -38.12030244 9.90039934 -40 10 C-40 10.66 -40 11.32 -40 12 C-66.75125788 12.20638953 -66.75125788 12.20638953 -80 11 C-80 10.34 -80 9.68 -80 9 C-82.64 8.34 -85.28 7.68 -88 7 C-84.00795519 6.0019888 -82.6249133 6.10551787 -78.7578125 6.92578125 C-71.80766531 8.17976077 -65.00277392 8.26915675 -57.97216797 8.20581055 C-55.87064492 8.18746198 -53.76956402 8.18530245 -51.66796875 8.18554688 C-41.64514688 8.16075307 -32.11871914 7.81944934 -22.4375 5.125 C-21.7990918 4.94864014 -21.16068359 4.77228027 -20.50292969 4.59057617 C-15.60829022 3.2206967 -10.7963007 1.67870525 -6 0 C-3 -1 -3 -1 0 0 Z " fill="#C84243" transform="translate(152,309)"/>
<path d="M0 0 C2.93102294 2.02380155 4.74817384 3.7807039 6.625 6.8125 C6.7265625 9.4765625 6.7265625 9.4765625 6.625 11.8125 C6.11453125 11.4515625 5.6040625 11.090625 5.078125 10.71875 C-1.31757948 6.63638544 -6.85893985 5.64333509 -14.375 6.8125 C-17.10612249 7.87460319 -18.96459433 9.08329593 -21.375 10.8125 C-22.365 11.3075 -22.365 11.3075 -23.375 11.8125 C-23.13599616 5.71790206 -23.13599616 5.71790206 -21.078125 3.26953125 C-14.84929852 -1.98796833 -7.58781559 -2.66978697 0 0 Z " fill="#EAF0F5" transform="translate(383.375,163.1875)"/>
<path d="M0 0 C-2.61514317 2.12038635 -5.19637616 4.13091744 -8 6 C-8.51184645 9.00414569 -8.51184645 9.00414569 -8.51171875 12.5390625 C-8.54716797 13.84101563 -8.58261719 15.14296875 -8.61914062 16.484375 C-8.64224231 17.86457809 -8.66502464 19.24478657 -8.6875 20.625 C-8.72066445 22.01305352 -8.7551533 23.40107607 -8.79101562 24.7890625 C-8.87374115 28.19262707 -8.94281257 31.5959259 -9 35 C-11 35 -13 35 -15 35 C-15 25.1 -15 15.2 -15 5 C-13.68 5.33 -12.36 5.66 -11 6 C-10.7525 5.38125 -10.505 4.7625 -10.25 4.125 C-7.79707091 -0.04497945 -4.56624279 -0.25368016 0 0 Z " fill="#273A64" transform="translate(198,177)"/>
<path d="M0 0 C1.20205078 0.00088623 2.40410156 0.00177246 3.64257812 0.00268555 C11.96421079 0.11036826 20.04057777 0.83022572 28.25 2.1875 C29.25192383 2.35266113 30.25384766 2.51782227 31.28613281 2.68798828 C35.96444486 3.5528658 39.0346368 4.27267172 42.75 7.375 C39.74686252 8.87656874 36.95932478 8.46781204 33.625 8.4375 C32.34367187 8.42847656 31.06234375 8.41945313 29.7421875 8.41015625 C28.26105469 8.39275391 28.26105469 8.39275391 26.75 8.375 C26.255 6.395 26.255 6.395 25.75 4.375 C20.8 4.045 15.85 3.715 10.75 3.375 C10.75 2.715 10.75 2.055 10.75 1.375 C8.10375716 1.51521805 5.45815422 1.66189776 2.8125 1.8125 C1.68038086 1.87147461 1.68038086 1.87147461 0.52539062 1.93164062 C-3.16944187 1.81538024 -3.16944187 1.81538024 -6.25 3.375 C-7.85083461 3.53718587 -9.45636728 3.65349417 -11.0625 3.75 C-15.35453493 4.09001835 -19.28303912 4.81167282 -23.4375 5.9375 C-28.24434803 7.22851785 -32.29169942 7.6610558 -37.25 7.375 C-29.16834127 -0.70665873 -10.58755817 -0.0142145 0 0 Z " fill="#BA464D" transform="translate(253.25,273.625)"/>
<path d="M0 0 C-3.31107306 4.04686708 -6.18355462 4.81176937 -11.25 5.75 C-12.51328125 5.99234375 -13.7765625 6.2346875 -15.078125 6.484375 C-16.52445313 6.73960937 -16.52445313 6.73960937 -18 7 C-18 7.66 -18 8.32 -18 9 C-21.2762651 11.18417673 -24.19605266 12.04484272 -27.94140625 13.12109375 C-30.3457253 13.92555084 -30.3457253 13.92555084 -32 17 C-34.27734375 17.66015625 -34.27734375 17.66015625 -36.9375 18.0625 C-40.44631188 18.60509977 -41.9645717 18.97638113 -45 21 C-46.66419722 21.34545115 -48.33117586 21.6776417 -50 22 C-52.56589994 23.02003418 -55.07688403 24.13142738 -57.59765625 25.2578125 C-60.28088911 26.08677875 -61.37389655 25.77566577 -64 25 C-61.1302458 23.67580956 -58.25338361 22.3678135 -55.375 21.0625 C-54.56675781 20.68931641 -53.75851563 20.31613281 -52.92578125 19.93164062 C-48.61060977 17.98455105 -44.76555065 16.48580856 -40 16 C-40 15.34 -40 14.68 -40 14 C-38.845 13.5875 -37.69 13.175 -36.5 12.75 C-33.56544967 11.65471009 -30.78314934 10.43575164 -28 9 C-24.82250552 7.36814722 -21.64472469 6.05784865 -18.28125 4.86328125 C-14.36082655 3.37969635 -10.55505092 1.6128986 -6.734375 -0.109375 C-3.89983202 -1.03262614 -2.72935513 -1.06574819 0 0 Z " fill="#BF4248" transform="translate(216,282)"/>
<path d="M0 0 C1.65 0 3.3 0 5 0 C5 1.32 5 2.64 5 4 C5.62648438 4.06058594 6.25296875 4.12117188 6.8984375 4.18359375 C7.71570313 4.26738281 8.53296875 4.35117187 9.375 4.4375 C10.59316406 4.55931641 10.59316406 4.55931641 11.8359375 4.68359375 C14 5 14 5 16 6 C17.66821323 5.67449498 19.33499557 5.34153937 21 5 C22 6 22 6 22.1875 9.3125 C22.01798052 12.64638318 21.75557129 14.25691987 20 17 C19.01 17 18.02 17 17 17 C17.33 14.03 17.66 11.06 18 8 C17.34 8 16.68 8 16 8 C15.34 10.97 14.68 13.94 14 17 C13.01 17 12.02 17 11 17 C10.67 14.36 10.34 11.72 10 9 C9.01 11.64 8.02 14.28 7 17 C6.01 17 5.02 17 4 17 C4 13.04 4 9.08 4 5 C2.68 4.67 1.36 4.34 0 4 C0 2.68 0 1.36 0 0 Z " fill="#F0C3C0" transform="translate(388,355)"/>
<path d="M0 0 C0.33 0 0.66 0 1 0 C1.01401855 1.6874231 1.01401855 1.6874231 1.02832031 3.40893555 C1.06827255 7.59325369 1.13404552 11.77684063 1.20751953 15.96069336 C1.23569889 17.76951689 1.25692855 19.57846286 1.27099609 21.38745117 C1.29246814 23.99200994 1.33913811 26.59510134 1.390625 29.19921875 C1.39185364 30.00461594 1.39308228 30.81001312 1.39434814 31.63981628 C1.52503743 36.67959702 2.26963518 39.2923813 6 43 C5.67 43.66 5.34 44.32 5 45 C3.9275 44.835 2.855 44.67 1.75 44.5 C-2.03028752 43.91189085 -2.03028752 43.91189085 -6 44 C-5.505 41.03 -5.505 41.03 -5 38 C-8.13349732 36.95550089 -8.98968256 37.06576355 -12 38 C-12 37.34 -12 36.68 -12 36 C-12.66 35.67 -13.32 35.34 -14 35 C-13.34 34.01 -12.68 33.02 -12 32 C-11.4225 32.20625 -10.845 32.4125 -10.25 32.625 C-7.44531206 33.09244799 -6.44228447 32.33931729 -4 31 C-3.01 31 -2.02 31 -1 31 C-0.67 20.77 -0.34 10.54 0 0 Z " fill="#253860" transform="translate(261,168)"/>
<path d="M0 0 C2.125 0.375 2.125 0.375 4 1 C-1.75 5 -1.75 5 -4 5 C-4 5.66 -4 6.32 -4 7 C-5.134375 7.474375 -6.26875 7.94875 -7.4375 8.4375 C-10.65402882 9.84914274 -13.75173531 11.38948852 -16.8203125 13.09375 C-38.30190605 25 -38.30190605 25 -50 25 C-50 24.01 -50 23.02 -50 22 C-48.906875 21.87625 -47.81375 21.7525 -46.6875 21.625 C-42.92618198 21.24535199 -42.92618198 21.24535199 -40 19 C-37.984375 18.4375 -37.984375 18.4375 -35.75 18 C-34.96109375 17.83371094 -34.1721875 17.66742188 -33.359375 17.49609375 C-32.58078125 17.33238281 -31.8021875 17.16867187 -31 17 C-28.55927863 16.46213733 -26.36857511 15.83887035 -24 15 C-23.67 14.01 -23.34 13.02 -23 12 C-20.36 11.67 -17.72 11.34 -15 11 C-14.67 9.68 -14.34 8.36 -14 7 C-12.02 7 -10.04 7 -8 7 C-8 6.34 -8 5.68 -8 5 C-8.66 5 -9.32 5 -10 5 C-10 4.01 -10 3.02 -10 2 C-8.72125 2.04125 -7.4425 2.0825 -6.125 2.125 C-3.98128508 2.24212873 -3.98128508 2.24212873 -2 2 C-1.34 1.34 -0.68 0.68 0 0 Z " fill="#40355C" transform="translate(418,256)"/>
<path d="M0 0 C1.32 0.33 2.64 0.66 4 1 C3.01 1 2.02 1 1 1 C0.93941406 1.64066406 0.87882812 2.28132813 0.81640625 2.94140625 C0.32790588 7.98423313 -0.23779286 12.9912102 -1 18 C-0.01 18 0.98 18 2 18 C2.04898437 17.22914063 2.09796875 16.45828125 2.1484375 15.6640625 C2.26058594 14.15972656 2.26058594 14.15972656 2.375 12.625 C2.44460938 11.62726563 2.51421875 10.62953125 2.5859375 9.6015625 C3 7 3 7 5 5 C5.83796731 9.65537393 6.0161692 13.37078475 5 18 C5.99 18 6.98 18 8 18 C8.03738281 17.38511719 8.07476562 16.77023437 8.11328125 16.13671875 C8.17902344 15.32847656 8.24476563 14.52023437 8.3125 13.6875 C8.37050781 12.88699219 8.42851562 12.08648437 8.48828125 11.26171875 C9.08206694 8.63727666 9.95780294 7.69179328 12 6 C13.34774714 8.69549428 12.91559777 10.51548235 12.625 13.5 C12.53476562 14.4796875 12.44453125 15.459375 12.3515625 16.46875 C12 19 12 19 11 21 C9.68 21 8.36 21 7 21 C7 20.34 7 19.68 7 19 C6.28972656 19.01160156 5.57945312 19.02320313 4.84765625 19.03515625 C3.92855469 19.04417969 3.00945312 19.05320312 2.0625 19.0625 C1.14597656 19.07410156 0.22945313 19.08570313 -0.71484375 19.09765625 C-3 19 -3 19 -4 18 C-3.38559352 12.10169775 -2.66968502 5.33937005 0 0 Z " fill="#C04E49" transform="translate(318,354)"/>
<path d="M0 0 C0.556875 0.185625 1.11375 0.37125 1.6875 0.5625 C4.39317796 1.07438502 6.33338149 0.57656616 9 0 C10 1 10 1 10.3125 4.3125 C10 8 10 8 8.3125 10.4375 C5.61589191 12.25953249 4.18873549 12.35430394 1 12 C1 13.98 1 15.96 1 18 C-0.32 18 -1.64 18 -3 18 C-2.6889315 15.93728361 -2.37608484 13.87483534 -2.0625 11.8125 C-1.88847656 10.66394531 -1.71445312 9.51539063 -1.53515625 8.33203125 C-1.08620687 5.53674788 -0.57917838 2.77066414 0 0 Z " fill="#F4CABE" transform="translate(413,360)"/>
<path d="M0 0 C0.33 0.66 0.66 1.32 1 2 C1.99 2.33 2.98 2.66 4 3 C4 3.99 4 4.98 4 6 C4.66 6 5.32 6 6 6 C6 6.66 6 7.32 6 8 C4.68 7.67 3.36 7.34 2 7 C2.99 7.66 3.98 8.32 5 9 C5 9.66 5 10.32 5 11 C3.35 11.33 1.7 11.66 0 12 C0 12.99 0 13.98 0 15 C-1.32 15 -2.64 15 -4 15 C-4 14.01 -4 13.02 -4 12 C-5.65 11.67 -7.3 11.34 -9 11 C-9 10.34 -9 9.68 -9 9 C-7.35 9 -5.7 9 -4 9 C-4.495 8.443125 -4.99 7.88625 -5.5 7.3125 C-7.24754367 4.61837017 -7.26218749 3.14624993 -7 0 C-4.30234372 -1.34882814 -2.84835666 -0.80338265 0 0 Z " fill="#C84340" transform="translate(369,361)"/>
<path d="M0 0 C0.99 0.33 1.98 0.66 3 1 C-5.27906977 10.58139535 -5.27906977 10.58139535 -8 13 C-8.66 13 -9.32 13 -10 13 C-10.33 13.99 -10.66 14.98 -11 16 C-12.63264644 17.45961383 -14.32912023 18.84906752 -16.0625 20.1875 C-16.98160156 20.90292969 -17.90070313 21.61835938 -18.84765625 22.35546875 C-19.55792969 22.89816406 -20.26820313 23.44085938 -21 24 C-21.66 23.67 -22.32 23.34 -23 23 C-22.01 21.515 -22.01 21.515 -21 20 C-20.34 20 -19.68 20 -19 20 C-19 18.68 -19 17.36 -19 16 C-20.32 15.34 -21.64 14.68 -23 14 C-22.34 14 -21.68 14 -21 14 C-20.67 13.01 -20.34 12.02 -20 11 C-18.3125 9.6875 -18.3125 9.6875 -16 9 C-15.030625 9.37125 -14.06125 9.7425 -13.0625 10.125 C-12.051875 10.41375 -11.04125 10.7025 -10 11 C-6.73660314 8.99746102 -5.12584312 7.18876467 -3 4 C-2.34 4 -1.68 4 -1 4 C-0.67 2.68 -0.34 1.36 0 0 Z " fill="#273D71" transform="translate(445,232)"/>
<path d="M0 0 C2.30143236 3.45214853 2.13833854 4.23479324 1.625 8.1875 C1.51414062 9.08855469 1.40328125 9.98960937 1.2890625 10.91796875 C1.19367188 11.60503906 1.09828125 12.29210937 1 13 C3.1205318 13.23084394 3.1205318 13.23084394 4.5625 11.5 C5.036875 11.005 5.51125 10.51 6 10 C6.33 10 6.66 10 7 10 C7.66 13.96 8.32 17.92 9 22 C8.34 22 7.68 22 7 22 C7.061875 22.78375 7.12375 23.5675 7.1875 24.375 C7.125625 25.24125 7.06375 26.1075 7 27 C6.01 27.66 5.02 28.32 4 29 C4 26.69 4 24.38 4 22 C2.35 22 0.7 22 -1 22 C-1.38218767 20.34385343 -1.71395102 18.67542976 -2 17 C-1.67 16.67 -1.34 16.34 -1 16 C-0.76321284 13.30764224 -0.57801975 10.63501844 -0.4375 7.9375 C-0.39431641 7.17888672 -0.35113281 6.42027344 -0.30664062 5.63867188 C-0.20026367 3.75934562 -0.09960066 1.87969756 0 0 Z M2 0 C2.99 0.495 2.99 0.495 4 1 C3.67 1.99 3.34 2.98 3 4 C2.67 2.68 2.34 1.36 2 0 Z " fill="#34436E" transform="translate(318,184)"/>
<path d="M0 0 C2.41710328 0.28833465 4.83362836 0.580642 7.25 0.875 C8.24386719 0.99294922 8.24386719 0.99294922 9.2578125 1.11328125 C13.43460071 1.62552886 17.54924651 2.28506033 21.6875 3.05078125 C28.38933417 4.18151725 34.96439494 4.34283455 41.75 4.3125 C43.58836426 4.30947876 43.58836426 4.30947876 45.46386719 4.30639648 C53.45683167 4.21813775 60.92714764 3.57475163 68.703125 1.75390625 C72.46958198 0.89261929 76.1619255 0.43157388 80 0 C71.36555576 7.74187973 54.86572582 6.42824588 43.90649414 6.28125 C41.53971663 6.24969625 39.17360932 6.24021636 36.80664062 6.234375 C26.85385737 6.1838668 17.61862517 5.7981455 8 3 C5.33587881 2.57637649 2.6844063 2.28256908 0 2 C0 1.34 0 0.68 0 0 Z " fill="#AB4757" transform="translate(296,280)"/>
<path d="M0 0 C-0.28515625 1.88671875 -0.28515625 1.88671875 -1 4 C-7.03376991 7.18144231 -12.35279901 7.64326716 -19 6 C-19.66 5.34 -20.32 4.68 -21 4 C-18.69 3.34 -16.38 2.68 -14 2 C-14 1.34 -14 0.68 -14 0 C-12.42074025 -0.39180108 -10.83631206 -0.76280736 -9.25 -1.125 C-8.36828125 -1.33382812 -7.4865625 -1.54265625 -6.578125 -1.7578125 C-3.67124507 -2.03088304 -2.43338652 -1.53508028 0 0 Z " fill="#E3E9F3" transform="translate(257,206)"/>
<path d="M0 0 C-7.63493042 3.95380325 -14.40077525 6.9470337 -23 8 C-23.33 8.33 -23.66 8.66 -24 9 C-29.30365639 9.82516609 -34.40501121 10.11933463 -39.78125 10.09765625 C-40.48020386 10.0962413 -41.17915771 10.09482635 -41.89929199 10.09336853 C-44.09957429 10.0878367 -46.29974923 10.07529777 -48.5 10.0625 C-50.00520685 10.05747616 -51.51041532 10.05291482 -53.015625 10.04882812 C-56.67711735 10.03788977 -60.33854817 10.02067359 -64 10 C-64 9.67 -64 9.34 -64 9 C-63.32533691 8.97494385 -62.65067383 8.9498877 -61.95556641 8.92407227 C-58.84524807 8.8067369 -55.73513304 8.68464473 -52.625 8.5625 C-51.56410156 8.52318359 -50.50320312 8.48386719 -49.41015625 8.44335938 C-40.20339885 8.07621874 -31.33958586 7.60260318 -22.4375 5.125 C-21.7990918 4.94864014 -21.16068359 4.77228027 -20.50292969 4.59057617 C-15.60829022 3.2206967 -10.7963007 1.67870525 -6 0 C-3 -1 -3 -1 0 0 Z " fill="#9A4357" transform="translate(152,309)"/>
<path d="M0 0 C-2.89234315 0.82638376 -4.88742431 1 -8 1 C-8 1.66 -8 2.32 -8 3 C-6.68 3.33 -5.36 3.66 -4 4 C-3.4465236 6.07553648 -3 7.84365964 -3 10 C-3.66 10 -4.32 10 -5 10 C-5.66 8.35 -6.32 6.7 -7 5 C-12.94 5.495 -12.94 5.495 -19 6 C-19.66 4.35 -20.32 2.7 -21 1 C-14.06926291 -2.53909979 -7.19771799 -3.71495122 0 0 Z " fill="#EFF4FA" transform="translate(163,179)"/>
<path d="M0 0 C0.33 0 0.66 0 1 0 C0.67 4.62 0.34 9.24 0 14 C-12.625 11.125 -12.625 11.125 -16 10 C-15.6875 6.625 -15.6875 6.625 -15 3 C-14.01 2.34 -13.02 1.68 -12 1 C-12 3.97 -12 6.94 -12 10 C-11.01 10 -10.02 10 -9 10 C-8.855625 8.88625 -8.71125 7.7725 -8.5625 6.625 C-8 3 -8 3 -7 1 C-6.34 1 -5.68 1 -5 1 C-4.875 7.75 -4.875 7.75 -6 10 C-5.01 9.67 -4.02 9.34 -3 9 C-1.97718482 6.90280128 -1.97718482 6.90280128 -1.3125 4.4375 C-1.06113281 3.61121094 -0.80976563 2.78492188 -0.55078125 1.93359375 C-0.36902344 1.29550781 -0.18726563 0.65742188 0 0 Z " fill="#C5453F" transform="translate(411,362)"/>
<path d="M0 0 C2.15502531 3.23253796 2.46856135 4.25150923 2 8 C0.875 9.875 0.875 9.875 -1 11 C-4.64734979 10.77669287 -6.38372835 10.61627165 -9 8 C-9.36023622 5.19015752 -9.38332602 3.61758081 -7.875 1.1875 C-5.14012639 -0.54458662 -3.16259871 -0.40373601 0 0 Z " fill="#F4F6FA" transform="translate(181,164)"/>
<path d="M0 0 C1.4540625 0.0309375 1.4540625 0.0309375 2.9375 0.0625 C2.9375 0.7225 2.9375 1.3825 2.9375 2.0625 C2.298125 2.18625 1.65875 2.31 1 2.4375 C0.319375 2.64375 -0.36125 2.85 -1.0625 3.0625 C-1.3925 3.7225 -1.7225 4.3825 -2.0625 5.0625 C-1.0725 5.0625 -0.0825 5.0625 0.9375 5.0625 C0.9375 5.7225 0.9375 6.3825 0.9375 7.0625 C-0.0525 7.3925 -1.0425 7.7225 -2.0625 8.0625 C-2.17207031 8.81015625 -2.28164063 9.5578125 -2.39453125 10.328125 C-2.55308594 11.31296875 -2.71164062 12.2978125 -2.875 13.3125 C-3.02582031 14.28703125 -3.17664063 15.2615625 -3.33203125 16.265625 C-4.11262665 19.25442876 -4.85735958 20.90362127 -7.0625 23.0625 C-8.3825 23.0625 -9.7025 23.0625 -11.0625 23.0625 C-11.0625 22.0725 -11.0625 21.0825 -11.0625 20.0625 C-10.0725 20.0625 -9.0825 20.0625 -8.0625 20.0625 C-7.89490016 17.9375734 -7.72844799 15.81255624 -7.5625 13.6875 C-7.4696875 12.50414062 -7.376875 11.32078125 -7.28125 10.1015625 C-7.16054546 8.42463157 -7.0625 6.74376944 -7.0625 5.0625 C-6.4025 5.0625 -5.7425 5.0625 -5.0625 5.0625 C-4.918125 4.423125 -4.77375 3.78375 -4.625 3.125 C-3.73376283 -0.14286963 -3.55757083 0.07260349 0 0 Z " fill="#FAD5CA" transform="translate(337.0625,354.9375)"/>
<path d="M0 0 C2.25 0.4375 2.25 0.4375 3.25 1.4375 C3.625 3.6875 3.625 3.6875 3.25 6.4375 C0.875 9.25 0.875 9.25 -1.75 11.4375 C-2.41 11.4375 -3.07 11.4375 -3.75 11.4375 C-3.75 12.4275 -3.75 13.4175 -3.75 14.4375 C-4.41 14.4375 -5.07 14.4375 -5.75 14.4375 C-5.75 13.7775 -5.75 13.1175 -5.75 12.4375 C-6.41 12.4375 -7.07 12.4375 -7.75 12.4375 C-8.21712496 8.5136503 -7.93467957 6.17598568 -5.5625 3.0625 C-2.75 0.4375 -2.75 0.4375 0 0 Z " fill="#EDF4F5" transform="translate(101.75,195.5625)"/>
<path d="M0 0 C0 0.99 0 1.98 0 3 C1.32 3.33 2.64 3.66 4 4 C4.33 6.97 4.66 9.94 5 13 C5.66 13 6.32 13 7 13 C7 13.99 7 14.98 7 16 C2.05 16.495 2.05 16.495 -3 17 C-1.68 16.34 -0.36 15.68 1 15 C1.66 14.34 2.32 13.68 3 13 C3 11.68 3 10.36 3 9 C-1.455 8.01 -1.455 8.01 -6 7 C-5.34 6.67 -4.68 6.34 -4 6 C-4 5.01 -4 4.02 -4 3 C-6.64 3.66 -9.28 4.32 -12 5 C-11.5 3.0625 -11.5 3.0625 -10 1 C-6.71645651 0.13041751 -3.38448307 0 0 0 Z " fill="#C1403A" transform="translate(344,352)"/>
<path d="M0 0 C0.28875 0.61875 0.5775 1.2375 0.875 1.875 C1.93720042 4.13325765 1.93720042 4.13325765 4 6 C6.22128555 6.02308597 6.22128555 6.02308597 8.625 5.625 C9.44226563 5.51414063 10.25953125 5.40328125 11.1015625 5.2890625 C11.72804688 5.19367188 12.35453125 5.09828125 13 5 C13 5.66 13 6.32 13 7 C12.34 7 11.68 7 11 7 C11 7.99 11 8.98 11 10 C12.94009522 11.70532323 12.94009522 11.70532323 15 13 C14.34 13 13.68 13 13 13 C13 18.61 13 24.22 13 30 C12.34 30.33 11.68 30.66 11 31 C10.96261719 29.80761719 10.92523438 28.61523438 10.88671875 27.38671875 C10.82105968 25.820281 10.75461232 24.25387616 10.6875 22.6875 C10.66494141 21.90181641 10.64238281 21.11613281 10.61914062 20.30664062 C10.58369141 19.54931641 10.54824219 18.79199219 10.51171875 18.01171875 C10.48553467 17.31522217 10.45935059 16.61872559 10.43237305 15.90112305 C9.87552999 13.45271148 8.95187921 12.54175447 7 11 C4.39388923 10.27802838 4.39388923 10.27802838 2 10 C1.814375 9.071875 1.814375 9.071875 1.625 8.125 C1.12802644 5.80879168 1.12802644 5.80879168 -1 4 C-0.625 1.875 -0.625 1.875 0 0 Z " fill="#29375F" transform="translate(305,170)"/>
<path d="M0 0 C1.18851563 0.00902344 2.37703125 0.01804687 3.6015625 0.02734375 C4.51679688 0.03894531 5.43203125 0.05054688 6.375 0.0625 C-0.56472128 7.00222128 -16.56773211 5.22507462 -25.68359375 5.24804688 C-26.74682861 5.24792603 -26.74682861 5.24792603 -27.83154297 5.24780273 C-30.01679197 5.25001702 -32.20155675 5.26831806 -34.38671875 5.28710938 C-35.78645663 5.29003929 -37.18619687 5.29202677 -38.5859375 5.29296875 C-40.46998291 5.29913208 -40.46998291 5.29913208 -42.39208984 5.30541992 C-45.4211684 5.07781585 -47.09114292 4.66331081 -49.625 3.0625 C-48.08175049 3.07821045 -48.08175049 3.07821045 -46.50732422 3.09423828 C-42.67191072 3.13057599 -38.8365123 3.15345038 -35.00097656 3.17236328 C-33.34437497 3.18238957 -31.68779093 3.19601406 -30.03125 3.21337891 C-27.64318495 3.23777621 -25.25535492 3.24901694 -22.8671875 3.2578125 C-22.13257294 3.26813507 -21.39795837 3.27845764 -20.64108276 3.28909302 C-13.20461722 3.2906972 -7.35567739 -0.07211448 0 0 Z " fill="#4B2F55" transform="translate(125.625,312.9375)"/>
<path d="M0 0 C0.6875 2.3125 0.6875 2.3125 1 5 C-0.1875 6.8125 -0.1875 6.8125 -2 8 C-3.32 8 -4.64 8 -6 8 C-6 8.66 -6 9.32 -6 10 C-4.35 10 -2.7 10 -1 10 C-1 10.66 -1 11.32 -1 12 C-3.33294775 12.04241723 -5.66702567 12.04092937 -8 12 C-9 11 -9 11 -9.3125 7.6875 C-9 4 -9 4 -7.3125 1.5625 C-4.61589191 -0.25953249 -3.18873549 -0.35430394 0 0 Z " fill="#E5B6A9" transform="translate(347,360)"/>
<path d="M0 0 C1.670625 0.061875 1.670625 0.061875 3.375 0.125 C3.375 3.425 3.375 6.725 3.375 10.125 C0 10.25 0 10.25 -3.625 10.125 C-5.625 8.125 -5.625 8.125 -5.875 5.125 C-5.4955869 0.57204274 -4.51633162 0.15573557 0 0 Z " fill="#25375A" transform="translate(154.625,195.875)"/>
<path d="M0 0 C0.33 0.66 0.66 1.32 1 2 C-0.07192184 3.3218362 -1.15802695 4.63217927 -2.25 5.9375 C-2.85328125 6.66839844 -3.4565625 7.39929688 -4.078125 8.15234375 C-6.10741134 10.10326334 -7.254407 10.61731779 -10 11 C-10 11.66 -10 12.32 -10 13 C-10.99 13 -11.98 13 -13 13 C-13 13.66 -13 14.32 -13 15 C-13.61875 15.103125 -14.2375 15.20625 -14.875 15.3125 C-17.36526484 15.87525373 -17.36526484 15.87525373 -19 19 C-22.125 19.1875 -22.125 19.1875 -25 19 C-24.67 18.34 -24.34 17.68 -24 17 C-21.4375 16.375 -21.4375 16.375 -19 16 C-19 15.34 -19 14.68 -19 14 C-18.34 14 -17.68 14 -17 14 C-17 13.34 -17 12.68 -17 12 C-15.33861059 10.82638506 -13.61820517 9.73574737 -11.875 8.6875 C-7.59224996 6.0460103 -3.75029626 3.34485883 0 0 Z " fill="#CF3B3E" transform="translate(431,249)"/>
<path d="M0 0 C25.45516111 -0.58146307 25.45516111 -0.58146307 32 5 C28.99686252 6.50156874 26.20932478 6.09281204 22.875 6.0625 C21.59367187 6.05347656 20.31234375 6.04445313 18.9921875 6.03515625 C18.00476563 6.02355469 17.01734375 6.01195312 16 6 C15.67 4.68 15.34 3.36 15 2 C10.05 1.67 5.1 1.34 0 1 C0 0.67 0 0.34 0 0 Z " fill="#C64042" transform="translate(264,276)"/>
<path d="M0 0 C0.66 0 1.32 0 2 0 C1.36934845 5.7809725 0.34844868 11.3443706 -1 17 C0.32 17.33 1.64 17.66 3 18 C-0.79347242 19.84254375 -2.95302217 20.24522395 -7 19 C-9.3125 17.9375 -9.3125 17.9375 -11 17 C-9.865625 16.71125 -8.73125 16.4225 -7.5625 16.125 C-6.386875 15.75375 -5.21125 15.3825 -4 15 C-2.5216774 12.04335481 -2.93967217 9.25770263 -3 6 C-4.98 6.33 -6.96 6.66 -9 7 C-9 6.01 -9 5.02 -9 4 C-6.36 3.67 -3.72 3.34 -1 3 C-0.67 2.01 -0.34 1.02 0 0 Z " fill="#A84942" transform="translate(425,355)"/>
<path d="M0 0 C1.41777182 0.08785338 2.83429039 0.19604647 4.25 0.3125 C5.43335938 0.39951172 5.43335938 0.39951172 6.640625 0.48828125 C9 1 9 1 10.9375 2.46875 C13.51952618 4.38570883 15.59054762 4.69853713 18.75 5.1875 C19.73484375 5.34605469 20.7196875 5.50460938 21.734375 5.66796875 C22.85585938 5.83232422 22.85585938 5.83232422 24 6 C22.265625 7.55078125 22.265625 7.55078125 20 9 C17.12279778 8.80573635 14.77699003 7.87938018 12 7 C12 6.34 12 5.68 12 5 C11.34 5 10.68 5 10 5 C10 5.66 10 6.32 10 7 C7.36 6.67 4.72 6.34 2 6 C2 5.34 2 4.68 2 4 C1.01 4 0.02 4 -1 4 C-0.67 2.68 -0.34 1.36 0 0 Z " fill="#263B65" transform="translate(355,208)"/>
<path d="M0 0 C2.99324263 1.0975223 3.84610901 1.67682892 5.25 4.625 C5.4975 5.40875 5.745 6.1925 6 7 C7.32 7 8.64 7 10 7 C9.67 8.32 9.34 9.64 9 11 C8.34 11 7.68 11 7 11 C6.67 10.67 6.34 10.34 6 10 C5.01 11.32 4.02 12.64 3 14 C1.68 13.67 0.36 13.34 -1 13 C-1 12.34 -1 11.68 -1 11 C-4.96 11 -8.92 11 -13 11 C-12.67 10.34 -12.34 9.68 -12 9 C-5.94279535 7.35950707 -1.72571134 8.70192538 4 11 C2.84414715 7.08788267 1.64465038 4.1254959 -1 1 C-0.67 0.67 -0.34 0.34 0 0 Z " fill="#1F355E" transform="translate(351,178)"/>
<path d="M0 0 C-5.14285714 5.57142857 -5.14285714 5.57142857 -9 6 C-9.33 7.98 -9.66 9.96 -10 12 C-12.64 12 -15.28 12 -18 12 C-18 10.35 -18 8.7 -18 7 C-15.75820623 5.63034792 -13.50827662 4.27947192 -11.25 2.9375 C-10.61578125 2.54755859 -9.9815625 2.15761719 -9.328125 1.75585938 C-5.74435102 -0.35334093 -3.96345928 -1.34013518 0 0 Z " fill="#2C3B60" transform="translate(115,185)"/>
<path d="M0 0 C-2.87867214 1.91911476 -5.10075493 2.79782704 -8.3671875 3.83984375 C-9.41777344 4.18080078 -10.46835938 4.52175781 -11.55078125 4.87304688 C-13.75870701 5.58005013 -15.96703804 6.28578906 -18.17578125 6.99023438 C-19.22894531 7.33248047 -20.28210938 7.67472656 -21.3671875 8.02734375 C-22.32737793 8.33406006 -23.28756836 8.64077637 -24.27685547 8.95678711 C-27.07737813 9.93670395 -27.07737813 9.93670395 -29.70751953 11.64282227 C-32 13 -32 13 -34.3125 12.6875 C-34.869375 12.460625 -35.42625 12.23375 -36 12 C-33.79761322 9.50673195 -32.04800189 8.4553124 -28.875 7.5 C-27.69164062 7.13455078 -27.69164062 7.13455078 -26.484375 6.76171875 C-25.66453125 6.51035156 -24.8446875 6.25898438 -24 6 C-21.64632097 5.18953505 -19.29525844 4.37199892 -16.9453125 3.55078125 C-15 3 -15 3 -12 3 C-12 2.34 -12 1.68 -12 1 C-7.9472484 0.01751476 -4.16138263 -0.08159574 0 0 Z " fill="#4A3350" transform="translate(228,276)"/>
<path d="M0 0 C0.66 0 1.32 0 2 0 C1.58749917 5.50001108 -0.49267665 9.80255642 -4 14 C-5.3312549 14.67080743 -6.66457847 15.33752618 -8 16 C-9.41763381 17.6700359 -9.41763381 17.6700359 -10.5625 19.5625 C-12.67311072 22.89103691 -12.67311072 22.89103691 -16 24 C-15.06806416 21.92106619 -14.28449445 20.27156289 -12.625 18.6875 C-10.15402587 16.12148841 -8.70727786 13.12019746 -7 10 C-6.34 10 -5.68 10 -5 10 C-4.731875 9.46375 -4.46375 8.9275 -4.1875 8.375 C-2.79166667 5.58333333 -1.39583333 2.79166667 0 0 Z " fill="#B8454D" transform="translate(472,201)"/>
<path d="M0 0 C0.7425 0.2475 1.485 0.495 2.25 0.75 C2.58 2.07 2.91 3.39 3.25 4.75 C2.26 5.08 1.27 5.41 0.25 5.75 C0.25 4.76 0.25 3.77 0.25 2.75 C-2.86785113 3.39644661 -2.86785113 3.39644661 -3.75 5.75 C-2.76 6.08 -1.77 6.41 -0.75 6.75 C-1.74 7.08 -2.73 7.41 -3.75 7.75 C-3.75 8.41 -3.75 9.07 -3.75 9.75 C-2.1 9.42 -0.45 9.09 1.25 8.75 C1.25 9.74 1.25 10.73 1.25 11.75 C-1.08294775 11.79241723 -3.41702567 11.79092937 -5.75 11.75 C-6.75 10.75 -6.75 10.75 -7.0625 7.4375 C-6.75 3.75 -6.75 3.75 -5.0625 1.25 C-2.75 -0.25 -2.75 -0.25 0 0 Z " fill="#FAE4D7" transform="translate(437.75,360.25)"/>
<path d="M0 0 C0.66 0 1.32 0 2 0 C2 8.25 2 16.5 2 25 C1.34 25.33 0.68 25.66 0 26 C0 25.01 0 24.02 0 23 C-0.1546875 23.7734375 -0.1546875 23.7734375 -0.3125 24.5625 C-1.24263866 27.86026435 -2.61395512 30.86633332 -4 34 C-4.66 33.67 -5.32 33.34 -6 33 C-5.01 29.7 -4.02 26.4 -3 23 C-3.66 23.33 -4.32 23.66 -5 24 C-7.3329866 24.04022391 -9.66706666 24.04320247 -12 24 C-7.87477326 21.42173329 -5.45556967 21.68194621 0 21 C0 14.07 0 7.14 0 0 Z " fill="#1B2F55" transform="translate(305,181)"/>
<path d="M0 0 C5.28 0 10.56 0 16 0 C15 3 15 3 12 5 C12 4.34 12 3.68 12 3 C11.01 3 10.02 3 9 3 C9 3.99 9 4.98 9 6 C9 6.33 9 6.66 9 7 C6.1875 7.3125 6.1875 7.3125 3 7 C1.11400657 4.61107499 0 3.08148442 0 0 Z " fill="#293E74" transform="translate(240,198)"/>
<path d="M0 0 C5.76044212 0.60636233 10.72014369 2.75658279 16 5 C16 5.66 16 6.32 16 7 C18.64 7 21.28 7 24 7 C24 7.66 24 8.32 24 9 C25.010625 8.95875 26.02125 8.9175 27.0625 8.875 C31.18076052 9.00573843 34.11830533 9.73250786 38 11 C38 11.33 38 11.66 38 12 C32.00242402 12.230676 27.0027783 11.53725999 21.25 9.875 C20.47156738 9.65561768 19.69313477 9.43623535 18.89111328 9.21020508 C12.15628824 7.22336919 6.10810516 4.48521295 0 1 C0 0.67 0 0.34 0 0 Z " fill="#553552" transform="translate(38,304)"/>
<path d="M0 0 C2.5 0.25 2.5 0.25 4.5 2.25 C4.75 4.75 4.75 4.75 4.5 7.25 C2.5 9.25 2.5 9.25 0 9.5 C-2.5 9.25 -2.5 9.25 -4.5 7.25 C-4.75 4.75 -4.75 4.75 -4.5 2.25 C-2.5 0.25 -2.5 0.25 0 0 Z " fill="#F0F6FC" transform="translate(311.5,167.75)"/>
<path d="M0 0 C0.556875 0.268125 1.11375 0.53625 1.6875 0.8125 C1.275 1.163125 0.8625 1.51375 0.4375 1.875 C-2.02012407 4.59594094 -3.55301885 7.59689652 -5.3125 10.8125 C-5.9725 10.8125 -6.6325 10.8125 -7.3125 10.8125 C-7.580625 11.369375 -7.84875 11.92625 -8.125 12.5 C-10.3601609 16.85268174 -12.14681258 20.08325652 -16.3125 22.8125 C-15.9825 21.4925 -15.6525 20.1725 -15.3125 18.8125 C-14.6525 18.8125 -13.9925 18.8125 -13.3125 18.8125 C-13.02375 17.843125 -12.735 16.87375 -12.4375 15.875 C-11.3125 12.8125 -11.3125 12.8125 -9.3125 11.8125 C-8.9103125 10.20375 -8.9103125 10.20375 -8.5 8.5625 C-7.14958618 4.29803529 -5.12117569 -0.41523046 0 0 Z " fill="#323B63" transform="translate(472.3125,200.1875)"/>
<path d="M0 0 C2 2 2 2 2 7 C-2.29 7 -6.58 7 -11 7 C-10.01 6.67 -9.02 6.34 -8 6 C-8.33 4.35 -8.66 2.7 -9 1 C-5.75778445 -0.08073852 -3.39597063 -0.21676408 0 0 Z " fill="#3B496F" transform="translate(156,183)"/>
<path d="M0 0 C1.65 0.33 3.3 0.66 5 1 C4.67 1.66 4.34 2.32 4 3 C3.01 2.67 2.02 2.34 1 2 C1 3.32 1 4.64 1 6 C2.32 5.67 3.64 5.34 5 5 C6.13016601 10.02296004 5.77916092 13.97874074 5 19 C5.99 19.33 6.98 19.66 8 20 C6.02 20 4.04 20 2 20 C1.9727585 18.58344207 1.95349533 17.16672955 1.9375 15.75 C1.92589844 14.96109375 1.91429687 14.1721875 1.90234375 13.359375 C1.99614694 11.09308998 2.36758937 9.1711105 3 7 C1.35 6.67 -0.3 6.34 -2 6 C-2 4.68 -2 3.36 -2 2 C-1.34 2 -0.68 2 0 2 C0 1.34 0 0.68 0 0 Z " fill="#B23D3A" transform="translate(387,353)"/>
<path d="M0 0 C6.38116032 0.36119775 6.38116032 0.36119775 8.9375 3 C10.37857259 7.06891084 10.62165895 10.72808721 10 15 C8.5 17.5625 8.5 17.5625 7 19 C6.01 18.67 5.02 18.34 4 18 C4.66 17.67 5.32 17.34 6 17 C6 16.01 6 15.02 6 14 C6.22328521 12.66566914 6.45282048 11.33237407 6.6875 10 C7.11009398 6.8731675 7.11009398 6.8731675 5.9375 4 C3.23514891 2.60523814 0.9911634 2.80058911 -2 3 C-1.34 2.01 -0.68 1.02 0 0 Z " fill="#333E56" transform="translate(372,186)"/>
<path d="M0 0 C0.99 0 1.98 0 3 0 C5 3 5 3 5 7 C7.65228812 8.07525194 10.28368454 9.09456151 13 10 C13.33 12.31 13.66 14.62 14 17 C13.34 17 12.68 17 12 17 C12 16.34 12 15.68 12 15 C11.34 15 10.68 15 10 15 C9.67 14.01 9.34 13.02 9 12 C8.01 12 7.02 12 6 12 C5.67 11.01 5.34 10.02 5 9 C3.35 8.67 1.7 8.34 0 8 C0.66 6.68 1.32 5.36 2 4 C1.34 3.67 0.68 3.34 0 3 C0 2.01 0 1.02 0 0 Z " fill="#CB4037" transform="translate(363,352)"/>
<path d="M0 0 C0 1.98 0 3.96 0 6 C-8.03501094 6.78774617 -8.03501094 6.78774617 -12.0625 3.5 C-12.701875 2.675 -13.34125 1.85 -14 1 C-11.03 1.495 -11.03 1.495 -8 2 C-8 1.34 -8 0.68 -8 0 C-5.13822943 -1.43088528 -3.06624227 -0.59991697 0 0 Z " fill="#E2EEF5" transform="translate(227,206)"/>
<path d="M0 0 C1.32 0 2.64 0 4 0 C4 0.66 4 1.32 4 2 C4.99 2 5.98 2 7 2 C7.33 2.66 7.66 3.32 8 4 C9.95474322 4.54040236 9.95474322 4.54040236 12.25 4.875 C16.4030903 5.71621606 19.02615629 6.83429541 22 10 C22 10.99 22 11.98 22 13 C14.32399433 11.33837054 7.07349218 8.05545841 2 2 C1.34 1.34 0.68 0.68 0 0 Z " fill="#373A64" transform="translate(16,291)"/>
<path d="M0 0 C0.99 0 1.98 0 3 0 C3 3.96 3 7.92 3 12 C2.34 12 1.68 12 1 12 C1 13.98 1 15.96 1 18 C-0.32 18 -1.64 18 -3 18 C-2.6889315 15.93728361 -2.37608484 13.87483534 -2.0625 11.8125 C-1.88847656 10.66394531 -1.71445312 9.51539063 -1.53515625 8.33203125 C-1.08620687 5.53674788 -0.57917838 2.77066414 0 0 Z " fill="#FCDEDA" transform="translate(413,360)"/>
<path d="M0 0 C1.32 0.33 2.64 0.66 4 1 C-1.33558355 4.18082866 -5.19920034 6.1335548 -11.5 6.1875 C-12.2528125 6.20167969 -13.005625 6.21585938 -13.78125 6.23046875 C-16.24864173 5.97417278 -17.86356256 5.22845153 -20 4 C-17.86099636 1.86099636 -13.52322673 2.21652981 -10.5625 1.875 C-9.77294922 1.77574219 -8.98339844 1.67648438 -8.16992188 1.57421875 C-2.24553571 0.87723214 -2.24553571 0.87723214 0 2 C0 1.34 0 0.68 0 0 Z " fill="#3A4B66" transform="translate(367,225)"/>
<path d="M0 0 C1.32 0.33 2.64 0.66 4 1 C2.95153459 2.46845587 1.88556239 3.92442099 0.8125 5.375 C0.22082031 6.18710938 -0.37085937 6.99921875 -0.98046875 7.8359375 C-3.19553039 10.20952387 -4.93353141 11.03610141 -8 12 C-8.66 11.34 -9.32 10.68 -10 10 C-9.07038578 8.84775972 -8.1309875 7.70340824 -7.1875 6.5625 C-6.40439453 5.60537109 -6.40439453 5.60537109 -5.60546875 4.62890625 C-4 3 -4 3 -1 2 C-0.67 1.34 -0.34 0.68 0 0 Z " fill="#DFE6ED" transform="translate(121,192)"/>
<path d="M0 0 C5.61 0.33 11.22 0.66 17 1 C17 1.66 17 2.32 17 3 C24.59 3 32.18 3 40 3 C40 3.33 40 3.66 40 4 C35.58346308 4.08834886 31.16715852 4.14083987 26.75 4.1875 C24.89761719 4.22520508 24.89761719 4.22520508 23.0078125 4.26367188 C14.88699492 4.32778359 7.76504422 3.39485195 0 1 C0 0.67 0 0.34 0 0 Z " fill="#3F3456" transform="translate(304,280)"/>
<path d="M0 0 C0 0.66 0 1.32 0 2 C-1.32 2 -2.64 2 -4 2 C-3.484375 2.556875 -2.96875 3.11375 -2.4375 3.6875 C-1 6 -1 6 -1.3125 8.75 C-1.539375 9.4925 -1.76625 10.235 -2 11 C-4.31 11 -6.62 11 -9 11 C-9 10.34 -9 9.68 -9 9 C-7.35 9 -5.7 9 -4 9 C-4.495 8.443125 -4.99 7.88625 -5.5 7.3125 C-7.24754367 4.61837017 -7.26218749 3.14624993 -7 0 C-4.3333581 -1.33332095 -2.83319697 -0.67102033 0 0 Z " fill="#FEDBC8" transform="translate(369,361)"/>
<path d="M0 0 C2 2 2 2 2.01171875 4.53125 C1.90472656 5.5109375 1.79773438 6.490625 1.6875 7.5 C1.58824219 8.4796875 1.48898437 9.459375 1.38671875 10.46875 C1 13 1 13 0 15 C-1.32 15 -2.64 15 -4 15 C-4 14.34 -4 13.68 -4 13 C-4.99 13 -5.98 13 -7 13 C-6.67 12.01 -6.34 11.02 -6 10 C-6 10.66 -6 11.32 -6 12 C-5.01 12 -4.02 12 -3 12 C-2.95101563 11.38511719 -2.90203125 10.77023437 -2.8515625 10.13671875 C-2.77679688 9.32847656 -2.70203125 8.52023437 -2.625 7.6875 C-2.55539062 6.88699219 -2.48578125 6.08648437 -2.4140625 5.26171875 C-2 3 -2 3 0 0 Z " fill="#BE4B53" transform="translate(329,360)"/>
<path d="M0 0 C1.2065625 0.0309375 1.2065625 0.0309375 2.4375 0.0625 C2.4375 1.0525 2.4375 2.0425 2.4375 3.0625 C1.4475 3.0625 0.4575 3.0625 -0.5625 3.0625 C-0.046875 3.619375 0.46875 4.17625 1 4.75 C2.4375 7.0625 2.4375 7.0625 2.125 9.8125 C1.898125 10.555 1.67125 11.2975 1.4375 12.0625 C-0.8725 12.0625 -3.1825 12.0625 -5.5625 12.0625 C-5.5625 11.4025 -5.5625 10.7425 -5.5625 10.0625 C-3.9125 10.0625 -2.2625 10.0625 -0.5625 10.0625 C-1.0575 9.505625 -1.5525 8.94875 -2.0625 8.375 C-3.81882099 5.66733847 -3.90479288 4.22870913 -3.5625 1.0625 C-2.5625 0.0625 -2.5625 0.0625 0 0 Z " fill="#FEDBCF" transform="translate(380.5625,359.9375)"/>
<path d="M0 0 C4.29 0.33 8.58 0.66 13 1 C13 1.33 13 1.66 13 2 C12.071875 2 11.14375 2 10.1875 2 C6.93907386 2.62420721 6.93907386 2.62420721 5.93359375 4.84765625 C5.19043389 6.88326804 4.54455074 8.90300196 4 11 C3.01 10.67 2.02 10.34 1 10 C-1.28070175 3.84210526 -1.28070175 3.84210526 0 0 Z " fill="#364A72" transform="translate(335,213)"/>
<path d="M0 0 C0.33 0 0.66 0 1 0 C1 8.91 1 17.82 1 27 C-1.97 27 -4.94 27 -8 27 C-8 26.01 -8 25.02 -8 24 C-6 23 -6 23 0 23 C0 15.41 0 7.82 0 0 Z " fill="#DEEAF4" transform="translate(197,185)"/>
<path d="M0 0 C3.53002354 1.51863713 5.90846685 3.61864494 8.6875 6.25 C12.68653331 9.94004411 16.73674298 12.98719167 21.3828125 15.80859375 C21.91648437 16.20175781 22.45015625 16.59492188 23 17 C23 17.66 23 18.32 23 19 C23.99 19.33 24.98 19.66 26 20 C23.8125 20.3125 23.8125 20.3125 21 20 C18.6875 17.875 18.6875 17.875 16 15 C13.89169557 13.39123785 11.74612192 11.85356785 9.57421875 10.33203125 C9.05472656 9.89246094 8.53523437 9.45289063 8 9 C8 8.34 8 7.68 8 7 C5.36095629 5.58622659 2.92879371 4.62759865 0 4 C0 2.68 0 1.36 0 0 Z " fill="#AF4958" transform="translate(0,279)"/>
<path d="M0 0 C0.99 0 1.98 0 3 0 C2.38273804 5.67355671 1.72054048 11.33861055 1 17 C-0.32 17 -1.64 17 -3 17 C-2.68853528 15.10399631 -2.37578283 13.20820413 -2.0625 11.3125 C-1.88847656 10.25675781 -1.71445312 9.20101563 -1.53515625 8.11328125 C-1.06832879 5.39750396 -0.55577384 2.69875765 0 0 Z " fill="#F9D5C9" transform="translate(427,355)"/>
<path d="M0 0 C0.99 0 1.98 0 3 0 C2.03644647 11.52164009 2.03644647 11.52164009 1 17 C0.01 17 -0.98 17 -2 17 C-2.25706972 11.08739655 -1.2982126 5.76081841 0 0 Z " fill="#FBD3C6" transform="translate(319,355)"/>
<path d="M0 0 C0.38218767 1.65614657 0.71395102 3.32457024 1 5 C0.67 5.33 0.34 5.66 0 6 C-1.64869317 5.96219927 -3.29594032 5.84529698 -4.9375 5.6875 C-6.28134766 5.56955078 -6.28134766 5.56955078 -7.65234375 5.44921875 C-10 5 -10 5 -12 3 C-4.71428571 -0.42857143 -4.71428571 -0.42857143 0 0 Z " fill="#EAF2F5" transform="translate(248,207)"/>
<path d="M0 0 C0.99 0.33 1.98 0.66 3 1 C4.1875 4.0625 4.1875 4.0625 5 7 C1.48812804 9.40814077 -0.72656908 10.36629408 -5 10 C-5 9.34 -5 8.68 -5 8 C-4.34 7.67 -3.68 7.34 -3 7 C-3.66 6.67 -4.32 6.34 -5 6 C-4.67 5.01 -4.34 4.02 -4 3 C-3.01 3 -2.02 3 -1 3 C-1 3.99 -1 4.98 -1 6 C-0.34 5.67 0.32 5.34 1 5 C0.67 3.35 0.34 1.7 0 0 Z " fill="#B75E5C" transform="translate(439,360)"/>
<path d="M0 0 C2.5625 0.1875 2.5625 0.1875 4.5625 2.1875 C4.5625 3.5075 4.5625 4.8275 4.5625 6.1875 C1.5925 6.1875 -1.3775 6.1875 -4.4375 6.1875 C-3.3735 0.2595 -3.3735 0.2595 0 0 Z " fill="#343E62" transform="translate(243.4375,183.8125)"/>
<path d="M0 0 C1.21236328 0.01353516 1.21236328 0.01353516 2.44921875 0.02734375 C3.37154297 0.04474609 3.37154297 0.04474609 4.3125 0.0625 C4.3125 1.7125 4.3125 3.3625 4.3125 5.0625 C2.6870692 4.92154936 1.06215949 4.77457913 -0.5625 4.625 C-1.46742188 4.54378906 -2.37234375 4.46257812 -3.3046875 4.37890625 C-5.6875 4.0625 -5.6875 4.0625 -7.6875 3.0625 C-7.6875 2.4025 -7.6875 1.7425 -7.6875 1.0625 C-4.80538698 0.10179566 -2.98899956 -0.04331883 0 0 Z " fill="#F6FCFA" transform="translate(296.6875,179.9375)"/>
<path d="M0 0 C-0.625 1.9375 -0.625 1.9375 -2 4 C-3.98821313 4.39764263 -5.99279077 4.71325582 -8 5 C-10.57932822 6.01708526 -13.106159 7.11648927 -15.6328125 8.2578125 C-18.29509744 9.0925223 -19.38932335 8.77019435 -22 8 C-19.08881787 6.65445055 -16.17024347 5.32575471 -13.25 4 C-12.425 3.6184375 -11.6 3.236875 -10.75 2.84375 C-9.95078125 2.4828125 -9.1515625 2.121875 -8.328125 1.75 C-7.5949707 1.41484375 -6.86181641 1.0796875 -6.10644531 0.734375 C-4 0 -4 0 0 0 Z " fill="#AD4452" transform="translate(174,299)"/>
<path d="M0 0 C0.66 0 1.32 0 2 0 C2 0.66 2 1.32 2 2 C2.66 2.33 3.32 2.66 4 3 C3.67 6.63 3.34 10.26 3 14 C2.67 14 2.34 14 2 14 C1.67 12.02 1.34 10.04 1 8 C0.01 8 -0.98 8 -2 8 C-4.00309329 7.68578929 -6.00371336 7.3548954 -8 7 C-7.4225 6.7525 -6.845 6.505 -6.25 6.25 C-3.68684812 4.82602673 -1.95895126 3.16883889 0 1 C0 0.67 0 0.34 0 0 Z " fill="#274277" transform="translate(356,187)"/>
<path d="M0 0 C4.72084346 1.79751554 9.25206511 3.96137372 13.8125 6.125 C14.60076172 6.49753906 15.38902344 6.87007813 16.20117188 7.25390625 C18.13473705 8.16795524 20.06745388 9.08379842 22 10 C18.50785639 11.00798036 17.05490068 10.91145375 13.75 9.3125 C12.97140625 8.93867188 12.1928125 8.56484375 11.390625 8.1796875 C10.20726562 7.59574219 10.20726562 7.59574219 9 7 C8.23171875 6.65195312 7.4634375 6.30390625 6.671875 5.9453125 C5.95515625 5.61273438 5.2384375 5.28015625 4.5 4.9375 C3.52546875 4.48697266 3.52546875 4.48697266 2.53125 4.02734375 C1 3 1 3 0 0 Z " fill="#AF4656" transform="translate(26,299)"/>
<path d="M0 0 C-3 2 -3 2 -5.9375 3.625 C-9.75239955 6.58349353 -11.19054383 9.61472975 -13 14 C-13.99 13.01 -14.98 12.02 -16 11 C-15.54625 10.649375 -15.0925 10.29875 -14.625 9.9375 C-12.35338666 7.22903794 -11.83201146 4.39204672 -11 1 C-7.32589215 -0.17571451 -3.83070817 -0.07366746 0 0 Z " fill="#26385B" transform="translate(243,176)"/>
<path d="M0 0 C0.99 0.33 1.98 0.66 3 1 C-5.27906977 10.58139535 -5.27906977 10.58139535 -8 13 C-8.66 13 -9.32 13 -10 13 C-10.33 13.99 -10.66 14.98 -11 16 C-11.66 16 -12.32 16 -13 16 C-11.43870938 11.78451534 -8.41308287 9.77312983 -5 7 C-4.34 6.01 -3.68 5.02 -3 4 C-2.34 4 -1.68 4 -1 4 C-0.67 2.68 -0.34 1.36 0 0 Z " fill="#523253" transform="translate(445,232)"/>
<path d="M0 0 C0.66 0.66 1.32 1.32 2 2 C2.66 1.67 3.32 1.34 4 1 C4 1.66 4 2.32 4 3 C4.66 3 5.32 3 6 3 C5.67 5.97 5.34 8.94 5 12 C2.5 11.0625 2.5 11.0625 0 9 C-0.45787911 5.96183742 -0.28780586 3.05074215 0 0 Z " fill="#213969" transform="translate(319,188)"/>
<path d="M0 0 C0.33 0 0.66 0 1 0 C1 9.57 1 19.14 1 29 C0.67 29 0.34 29 0 29 C0 26.36 0 23.72 0 21 C-0.66 21 -1.32 21 -2 21 C-1.855625 20.13375 -1.71125 19.2675 -1.5625 18.375 C-0.68046473 12.28895665 -0.39975269 6.13237637 0 0 Z " fill="#FDFDFE" transform="translate(270,171)"/>
<path d="M0 0 C1.0621875 0.13277344 2.124375 0.26554687 3.21875 0.40234375 C4.24742188 0.53092773 4.24742188 0.53092773 5.296875 0.66210938 C10.6484375 1.33105469 10.6484375 1.33105469 16 2 C17.14662109 2.14332764 17.14662109 2.14332764 18.31640625 2.28955078 C21.15820312 2.64477539 21.15820312 2.64477539 24 3 C24 3.33 24 3.66 24 4 C7.1070615 4.55353075 7.1070615 4.55353075 0 1 C0 0.67 0 0.34 0 0 Z " fill="#B44551" transform="translate(64,315)"/>
<path d="M0 0 C0.8971875 0.309375 0.8971875 0.309375 1.8125 0.625 C1.02875 0.8725 0.245 1.12 -0.5625 1.375 C-3.3120653 2.33823337 -3.3120653 2.33823337 -4.078125 4.58984375 C-5.5281614 7.24994574 -6.71153518 7.55190129 -9.5625 8.4375 C-10.33335937 8.69144531 -11.10421875 8.94539063 -11.8984375 9.20703125 C-14.36094686 9.65667033 -15.83665604 9.41398188 -18.1875 8.625 C-17.28386719 8.14289063 -16.38023437 7.66078125 -15.44921875 7.1640625 C-14.25776983 6.52612135 -13.06636594 5.8880961 -11.875 5.25 C-11.28009766 4.93289063 -10.68519531 4.61578125 -10.07226562 4.2890625 C-1.57235813 -0.26954711 -1.57235813 -0.26954711 0 0 Z " fill="#9C4354" transform="translate(410.1875,264.375)"/>
<path d="M0 0 C0.28875 0.639375 0.5775 1.27875 0.875 1.9375 C1.82823451 4.15206079 1.82823451 4.15206079 4 5 C0.39042389 8.2910841 -2.12637153 9.54663921 -7 10 C-3.25 4.125 -3.25 4.125 -1 3 C-0.67 2.01 -0.34 1.02 0 0 Z " fill="#293759" transform="translate(106,198)"/>
<path d="M0 0 C2.97 0.495 2.97 0.495 6 1 C6.05399736 2.45792884 6.09279177 3.91642712 6.125 5.375 C6.14820312 6.18710938 6.17140625 6.99921875 6.1953125 7.8359375 C6 10 6 10 4 12 C3 5.125 3 5.125 3 4 C2.01 4 1.02 4 0 4 C0 4.66 0 5.32 0 6 C-0.66 5.67 -1.32 5.34 -2 5 C-1.34 3.35 -0.68 1.7 0 0 Z " fill="#354268" transform="translate(113,183)"/>
<path d="M0 0 C0.99 0 1.98 0 3 0 C4.60080151 4.00200378 3.29279692 7.04556236 2 11 C1.01 11 0.02 11 -1 11 C-1.125 3.375 -1.125 3.375 0 0 Z " fill="#FADBC8" transform="translate(393,361)"/>
<path d="M0 0 C0.99 0 1.98 0 3 0 C2.34 3.96 1.68 7.92 1 12 C0.01 12 -0.98 12 -2 12 C-1.85904936 10.3745692 -1.71207913 8.74965949 -1.5625 7.125 C-1.48128906 6.22007812 -1.40007812 5.31515625 -1.31640625 4.3828125 C-1 2 -1 2 0 0 Z " fill="#FBD2C3" transform="translate(325,360)"/>
<path d="M0 0 C3.36016893 1.12005631 4.69064913 2.37211797 7 5 C7 5.66 7 6.32 7 7 C6.34 7 5.68 7 5 7 C5 7.66 5 8.32 5 9 C4.01 9.33 3.02 9.66 2 10 C-0.09350689 6.5980513 -0.17942163 3.94727588 0 0 Z " fill="#D9E4ED" transform="translate(333,220)"/>
<path d="M0 0 C0.66 1.32 1.32 2.64 2 4 C1.34 4.66 0.68 5.32 0 6 C-0.33 6.66 -0.66 7.32 -1 8 C-1.66 8 -2.32 8 -3 8 C-3.33 8.99 -3.66 9.98 -4 11 C-6.31 10.67 -8.62 10.34 -11 10 C-11 9.67 -11 9.34 -11 9 C-8.69 9 -6.38 9 -4 9 C-4 6.69 -4 4.38 -4 2 C-2.68 2.33 -1.36 2.66 0 3 C0 2.01 0 1.02 0 0 Z " fill="#22325B" transform="translate(281,204)"/>
<path d="M0 0 C0.99 0 1.98 0 3 0 C3.14285714 8.57142857 3.14285714 8.57142857 2 12 C1.01 12 0.02 12 -1 12 C-0.67 8.04 -0.34 4.08 0 0 Z " fill="#FADAC7" transform="translate(356,360)"/>
<path d="M0 0 C0 0.99 0 1.98 0 3 C-0.33 3.33 -0.66 3.66 -1 4 C0.32 4.66 1.64 5.32 3 6 C2 7.5625 2 7.5625 0 9 C-2.76614782 8.96726452 -5.26030547 8.49404328 -8 8 C-5.33333333 5.33333333 -2.66666667 2.66666667 0 0 Z " fill="#C3443E" transform="translate(440,241)"/>
<path d="M0 0 C3.63 0 7.26 0 11 0 C11 0.66 11 1.32 11 2 C11.66 2.33 12.32 2.66 13 3 C11.1875 3.625 11.1875 3.625 9 4 C8.01 3.34 7.02 2.68 6 2 C4.35 1.67 2.7 1.34 1 1 C1 5.95 1 10.9 1 16 C0.67 16 0.34 16 0 16 C0 10.72 0 5.44 0 0 Z " fill="#3E4C6B" transform="translate(290,187)"/>
<path d="M0 0 C0.66 0 1.32 0 2 0 C2 0.99 2 1.98 2 3 C2.66 3.33 3.32 3.66 4 4 C3.34 4 2.68 4 2 4 C2 4.99 2 5.98 2 7 C3.65 7 5.3 7 7 7 C7 7.66 7 8.32 7 9 C4.66705225 9.04241723 2.33297433 9.04092937 0 9 C-1 8 -1 8 -1.125 4.5 C-1 1 -1 1 0 0 Z " fill="#FDDBCB" transform="translate(339,363)"/>
<path d="M0 0 C0.33 0.66 0.66 1.32 1 2 C-1.12545756 5.19837224 -3.02941606 6.82110129 -6.4375 8.5625 C-8.85162449 9.80836797 -10.99878513 10.99907072 -13.16015625 12.65234375 C-15 14 -15 14 -17 14 C-17 13.34 -17 12.68 -17 12 C-15.33861059 10.82638506 -13.61820517 9.73574737 -11.875 8.6875 C-7.59224996 6.0460103 -3.75029626 3.34485883 0 0 Z " fill="#B14553" transform="translate(431,249)"/>
<path d="M0 0 C0 4.3146899 -2.30400292 6.83687472 -5 10 C-7.24232396 12.12186854 -9.57432196 14.09161353 -12 16 C-12.66 15.67 -13.32 15.34 -14 15 C-9.38 10.05 -4.76 5.1 0 0 Z " fill="#AE4958" transform="translate(455,225)"/>
<path d="M0 0 C0.99 0 1.98 0 3 0 C2.67 3.96 2.34 7.92 2 12 C1.01 12 0.02 12 -1 12 C-1.14285714 3.42857143 -1.14285714 3.42857143 0 0 Z " fill="#FDDAD1" transform="translate(387,360)"/>
<path d="M0 0 C2 2 2 2 2.125 5.625 C2.08375 6.73875 2.0425 7.8525 2 9 C1.34 9 0.68 9 0 9 C-0.33 9.99 -0.66 10.98 -1 12 C-2.32 12 -3.64 12 -5 12 C-4.731875 11.505 -4.46375 11.01 -4.1875 10.5 C-2.56124507 7.0763054 -1.30484829 3.55867715 0 0 Z " fill="#34476E" transform="translate(126,187)"/>
<path d="M0 0 C1.875 0.3125 1.875 0.3125 4 1 C4.66 1.99 5.32 2.98 6 4 C5.38125 4.598125 4.7625 5.19625 4.125 5.8125 C1.86323046 8.00811144 1.86323046 8.00811144 0 11 C-1 10 -1 10 -1.0625 7.4375 C-1.041875 6.633125 -1.02125 5.82875 -1 5 C-0.01 5 0.98 5 2 5 C2 4.34 2 3.68 2 3 C1.01 3 0.02 3 -1 3 C-0.67 2.01 -0.34 1.02 0 0 Z " fill="#B45552" transform="translate(336,357)"/>
<path d="M0 0 C3.33333333 1.66666667 6.66666667 3.33333333 10 5 C9.67 5.66 9.34 6.32 9 7 C4.78087253 6.5205537 2.20336822 5.83374881 -1 3 C-0.67 2.01 -0.34 1.02 0 0 Z " fill="#2B3A5D" transform="translate(337,233)"/>
<path d="M0 0 C1.5 1.375 1.5 1.375 3 3 C3 3.66 3 4.32 3 5 C5.31 5 7.62 5 10 5 C9.01 5.495 9.01 5.495 8 6 C7.67 6.66 7.34 7.32 7 8 C3.28400809 8.20086443 2.22791555 8.1519437 -1 6 C-0.67 4.02 -0.34 2.04 0 0 Z " fill="#C43D39" transform="translate(334,368)"/>
<path d="M0 0 C0.2475 0.639375 0.495 1.27875 0.75 1.9375 C1.81562433 4.18741541 1.81562433 4.18741541 4.125 4.75 C4.74375 4.8325 5.3625 4.915 6 5 C2.20652758 6.84254375 0.04697783 7.24522395 -4 6 C-6.3125 4.9375 -6.3125 4.9375 -8 4 C-6.865625 3.71125 -5.73125 3.4225 -4.5625 3.125 C-3.386875 2.75375 -2.21125 2.3825 -1 2 C-0.67 1.34 -0.34 0.68 0 0 Z " fill="#C54B49" transform="translate(422,368)"/>
<path d="M0 0 C0.66 0 1.32 0 2 0 C2.33 2.64 2.66 5.28 3 8 C5.31 8.66 7.62 9.32 10 10 C8.68 10.99 7.36 11.98 6 13 C3.67241689 12.06896676 2.25642868 11.34617872 0.75 9.3125 C-0.27095909 6.16454282 -0.12632947 3.28456632 0 0 Z " fill="#384565" transform="translate(333,193)"/>
<path d="M0 0 C2.43679946 3.65519918 2.11604695 4.98622509 1.4921875 9.125 C0.88185633 11.45007112 -0.03033205 12.62979621 -2 14 C-2.21192221 8.80790596 -1.5912689 4.873261 0 0 Z " fill="#A94442" transform="translate(322,359)"/>
<path d="M0 0 C3.0625 1 3.0625 1 5 2 C4.484375 2.12375 3.96875 2.2475 3.4375 2.375 C0.27297649 3.18641628 -2.86124985 4.0945913 -6 5 C-6 4.01 -6 3.02 -6 2 C-7.98 2 -9.96 2 -12 2 C-7.95398061 -0.69734626 -4.74576236 -0.43218852 0 0 Z " fill="#DEE5EF" transform="translate(158,177)"/>
<path d="M0 0 C1.4540625 0.0309375 1.4540625 0.0309375 2.9375 0.0625 C2.9375 0.7225 2.9375 1.3825 2.9375 2.0625 C1.5453125 2.495625 1.5453125 2.495625 0.125 2.9375 C-3.16041667 3.95 -3.16041667 3.95 -6.0625 6.0625 C-7.3825 6.0625 -8.7025 6.0625 -10.0625 6.0625 C-10.0625 5.4025 -10.0625 4.7425 -10.0625 4.0625 C-9.4025 3.7325 -8.7425 3.4025 -8.0625 3.0625 C-8.3925 2.4025 -8.7225 1.7425 -9.0625 1.0625 C-7.8559375 1.0934375 -7.8559375 1.0934375 -6.625 1.125 C-3.4084517 1.0465476 -3.39792468 0.0693454 0 0 Z " fill="#C53833" transform="translate(386.0625,371.9375)"/>
<path d="M0 0 C1.76923828 0.04060547 1.76923828 0.04060547 3.57421875 0.08203125 C4.47785156 0.11683594 5.38148438 0.15164063 6.3125 0.1875 C2.91041172 3.58958828 -1.45928592 3.24183827 -6.0625 3.25 C-7.25875 3.229375 -8.455 3.20875 -9.6875 3.1875 C-6.99455929 -0.5165087 -4.35133403 -0.12924755 0 0 Z " fill="#3F3167" transform="translate(125.6875,312.8125)"/>
<path d="M0 0 C2.375 0.25 2.375 0.25 3.375 1.25 C3.41563832 2.91617115 3.417721 4.58388095 3.375 6.25 C2.715 5.59 2.055 4.93 1.375 4.25 C0.385 4.58 -0.605 4.91 -1.625 5.25 C-3.8125 4.3125 -3.8125 4.3125 -5.625 3.25 C-3.7774876 0.91630013 -3.0311278 0.28867884 0 0 Z " fill="#E3EDF3" transform="translate(101.625,195.75)"/>
<path d="M0 0 C1.65 0.33 3.3 0.66 5 1 C4.01 1.495 4.01 1.495 3 2 C3.33 2.99 3.66 3.98 4 5 C2.1875 8.1875 2.1875 8.1875 0 11 C-0.66 11 -1.32 11 -2 11 C-3.125 7.25 -3.125 7.25 -2 5 C-1.01 5 -0.02 5 1 5 C1.33 3.68 1.66 2.36 2 1 C1.34 0.67 0.68 0.34 0 0 Z " fill="#34466A" transform="translate(94,193)"/>
<path d="M0 0 C4.92307692 4.30769231 4.92307692 4.30769231 5.3125 7.8125 C5.209375 8.534375 5.10625 9.25625 5 10 C3.02 8.68 1.04 7.36 -1 6 C-0.67 4.02 -0.34 2.04 0 0 Z " fill="#E1EBF7" transform="translate(385,165)"/>
<path d="M0 0 C2.475 0.99 2.475 0.99 5 2 C5.33 4.31 5.66 6.62 6 9 C5.34 9 4.68 9 4 9 C4 8.34 4 7.68 4 7 C3.34 7 2.68 7 2 7 C1.67 6.01 1.34 5.02 1 4 C0.01 4 -0.98 4 -2 4 C-1.34 2.68 -0.68 1.36 0 0 Z " fill="#C33B31" transform="translate(371,360)"/>
<path d="M0 0 C1.98 0 3.96 0 6 0 C3.10357159 2.35082212 0.34643669 3.83519406 -3.125 5.1875 C-4.42824219 5.70376953 -4.42824219 5.70376953 -5.7578125 6.23046875 C-8 7 -8 7 -10 7 C-10 6.34 -10 5.68 -10 5 C-8.02 4.67 -6.04 4.34 -4 4 C-4 3.34 -4 2.68 -4 2 C-2.68 2 -1.36 2 0 2 C0 1.34 0 0.68 0 0 Z " fill="#443355" transform="translate(164,299)"/>
<path d="M0 0 C0 0.66 0 1.32 0 2 C-1.98 2 -3.96 2 -6 2 C-6 2.66 -6 3.32 -6 4 C-9.21451269 5.60725635 -12.43612536 5.05748185 -16 5 C-13.70311431 2.70311431 -12.21071829 2.28148697 -9.125 1.375 C-7.82949219 0.98441406 -7.82949219 0.98441406 -6.5078125 0.5859375 C-4 0 -4 0 0 0 Z " fill="#B34656" transform="translate(232,276)"/>
<path d="M0 0 C-2.24307028 1.20250158 -4.4928791 2.3869162 -6.75 3.5625 C-7.70132812 4.07586914 -7.70132812 4.07586914 -8.671875 4.59960938 C-13.45095438 7.06382218 -13.45095438 7.06382218 -16.453125 6.71484375 C-16.96359375 6.47894531 -17.4740625 6.24304688 -18 6 C-3.75 -1.25 -3.75 -1.25 0 0 Z " fill="#4B3150" transform="translate(402,269)"/>
<path d="M0 0 C4.95 0.99 9.9 1.98 15 3 C11 6 11 6 8.859375 5.85546875 C6.90625 5.23697917 4.953125 4.61848958 3 4 C3 3.34 3 2.68 3 2 C2.01 1.67 1.02 1.34 0 1 C0 0.67 0 0.34 0 0 Z " fill="#1F3555" transform="translate(364,211)"/>
<path d="M0 0 C2.25245881 2.68841859 3.88213958 4.64641875 5 8 C2.69 8 0.38 8 -2 8 C-1.34 5.36 -0.68 2.72 0 0 Z " fill="#B34546" transform="translate(360,362)"/>
<path d="M0 0 C0.99 0.33 1.98 0.66 3 1 C2.34 3.97 1.68 6.94 1 10 C0.01 10 -0.98 10 -2 10 C-1.85950482 8.52031676 -1.71245174 7.04125484 -1.5625 5.5625 C-1.48128906 4.73878906 -1.40007812 3.91507812 -1.31640625 3.06640625 C-1 1 -1 1 0 0 Z " fill="#FEE4DD" transform="translate(401,362)"/>
<path d="M0 0 C1.8125 0.1875 1.8125 0.1875 4 1 C5.75 3.5625 5.75 3.5625 7 6 C6.34 6 5.68 6 5 6 C4.67 7.32 4.34 8.64 4 10 C3.34 9.67 2.68 9.34 2 9 C2.875 5.125 2.875 5.125 4 4 C2.68 4 1.36 4 0 4 C0 2.68 0 1.36 0 0 Z " fill="#DC867E" transform="translate(357,355)"/>
<path d="M0 0 C0.66 0.33 1.32 0.66 2 1 C2.75 3.875 2.75 3.875 3 7 C2.01 8.485 2.01 8.485 1 10 C0.61500109 11.65549531 0.27206865 13.3222433 0 15 C-0.33 15 -0.66 15 -1 15 C-1.18451025 4.44191344 -1.18451025 4.44191344 0 0 Z " fill="#B34546" transform="translate(430,355)"/>
<path d="M0 0 C0.89203125 0.00902344 1.7840625 0.01804687 2.703125 0.02734375 C3.37859375 0.03894531 4.0540625 0.05054688 4.75 0.0625 C4.75 0.7225 4.75 1.3825 4.75 2.0625 C0.64479526 3.68548792 -1.99564545 4.44229067 -6.25 3.0625 C-7.24 2.4025 -8.23 1.7425 -9.25 1.0625 C-6.09493858 0.12630187 -3.28413498 -0.0432123 0 0 Z " fill="#BE443B" transform="translate(404.25,357.9375)"/>
<path d="M0 0 C2.97 0.495 2.97 0.495 6 1 C6 1.66 6 2.32 6 3 C7.65 3.33 9.3 3.66 11 4 C10.67 5.32 10.34 6.64 10 8 C9.67 7.01 9.34 6.02 9 5 C6.36 5 3.72 5 1 5 C0.67 3.35 0.34 1.7 0 0 Z " fill="#BF3E35" transform="translate(432,356)"/>
<path d="M0 0 C-1.90354807 2.50828536 -3.00579726 3.00135005 -6.13671875 3.73046875 C-7.30847656 3.88128906 -8.48023438 4.03210938 -9.6875 4.1875 C-10.86699219 4.34605469 -12.04648438 4.50460937 -13.26171875 4.66796875 C-14.16535156 4.77753906 -15.06898438 4.88710938 -16 5 C-14.54987453 2.09974906 -12.68687091 1.91293145 -9.6875 0.8125 C-8.72199219 0.44769531 -7.75648438 0.08289063 -6.76171875 -0.29296875 C-3.9652203 -1.008904 -2.66140462 -0.99249531 0 0 Z " fill="#AD4751" transform="translate(216,282)"/>
<path d="M0 0 C0.66 0 1.32 0 2 0 C1.3125 2.4375 1.3125 2.4375 0 5 C-2.625 5.8125 -2.625 5.8125 -5 6 C-5 5.34 -5 4.68 -5 4 C-7.31 4 -9.62 4 -12 4 C-12 3.67 -12 3.34 -12 3 C-10.82630859 2.80083984 -10.82630859 2.80083984 -9.62890625 2.59765625 C-8.61699219 2.42105469 -7.60507812 2.24445313 -6.5625 2.0625 C-5.55316406 1.88847656 -4.54382813 1.71445313 -3.50390625 1.53515625 C-1.0712562 1.25248903 -1.0712562 1.25248903 0 0 Z " fill="#2D4266" transform="translate(384,210)"/>
<path d="M0 0 C0.33 0 0.66 0 1 0 C1.22786458 2.05078125 1.45572917 4.1015625 1.68359375 6.15234375 C1.81886614 8.01140229 1.81886614 8.01140229 3 9 C3.04063832 10.66617115 3.042721 12.33388095 3 14 C1.68 13.67 0.36 13.34 -1 13 C-0.67 8.71 -0.34 4.42 0 0 Z " fill="#27315B" transform="translate(357,193)"/>
<path d="M0 0 C1.21236328 0.01353516 1.21236328 0.01353516 2.44921875 0.02734375 C3.37154297 0.04474609 3.37154297 0.04474609 4.3125 0.0625 C4.3125 0.3925 4.3125 0.7225 4.3125 1.0625 C1.6725 1.0625 -0.9675 1.0625 -3.6875 1.0625 C-3.6875 1.7225 -3.6875 2.3825 -3.6875 3.0625 C-4.95589526 3.56865298 -6.22733102 4.06719099 -7.5 4.5625 C-8.56154297 4.98015625 -8.56154297 4.98015625 -9.64453125 5.40625 C-11.6875 6.0625 -11.6875 6.0625 -14.6875 6.0625 C-13.58682004 5.24528283 -12.48180269 4.43390549 -11.375 3.625 C-10.76011719 3.17253906 -10.14523438 2.72007812 -9.51171875 2.25390625 C-6.33550573 0.17950588 -3.68680523 -0.05343196 0 0 Z " fill="#CAD7E5" transform="translate(203.6875,176.9375)"/>
<path d="M0 0 C0.33 0 0.66 0 1 0 C1 2.97 1 5.94 1 9 C1.66 9.33 2.32 9.66 3 10 C0.03 9.505 0.03 9.505 -3 9 C-2.25 2.25 -2.25 2.25 0 0 Z " fill="#B64E4E" transform="translate(398,363)"/>
<path d="M0 0 C-0.1875 1.875 -0.1875 1.875 -1 4 C-3.5625 5.25 -3.5625 5.25 -6 6 C-6.66 5.34 -7.32 4.68 -8 4 C-4.5 0 -4.5 0 0 0 Z " fill="#E8F2F8" transform="translate(119,198)"/>
<path d="M0 0 C0.33 0 0.66 0 1 0 C1.144375 0.78375 1.28875 1.5675 1.4375 2.375 C1.87798925 4.96421018 1.87798925 4.96421018 3 7 C3.66 7 4.32 7 5 7 C5.33 6.01 5.66 5.02 6 4 C6.66 5.65 7.32 7.3 8 9 C4.37673261 10.2077558 3.35853631 9.54311128 0 8 C0 5.36 0 2.72 0 0 Z " fill="#455073" transform="translate(355,200)"/>
<path d="M0 0 C0 1.66666667 0 3.33333333 0 5 C-1.98 5 -3.96 5 -6 5 C-5.67 4.34 -5.34 3.68 -5 3 C-5.99 2.01 -6.98 1.02 -8 0 C-2.25 -1.125 -2.25 -1.125 0 0 Z " fill="#3A4A77" transform="translate(378,201)"/>
<path d="M0 0 C0.33 0.66 0.66 1.32 1 2 C2.65 1.34 4.3 0.68 6 0 C6 1.32 6 2.64 6 4 C5.01 4 4.02 4 3 4 C3 4.99 3 5.98 3 7 C2.34 7 1.68 7 1 7 C0.67 4.69 0.34 2.38 0 0 Z " fill="#DC867C" transform="translate(322,355)"/>
<path d="M0 0 C1.61648437 0.04060547 1.61648437 0.04060547 3.265625 0.08203125 C4.08546875 0.11683594 4.9053125 0.15164063 5.75 0.1875 C5.75 0.5175 5.75 0.8475 5.75 1.1875 C4.0484375 1.4040625 4.0484375 1.4040625 2.3125 1.625 C-1.05777201 1.79921478 -1.05777201 1.79921478 -2.25 3.1875 C-4.92058851 3.32865161 -7.57432238 3.22997107 -10.25 3.1875 C-6.86416198 0.05642164 -4.53890538 -0.14800778 0 0 Z " fill="#B6445A" transform="translate(130.25,314.8125)"/>
<path d="M0 0 C1.32 0 2.64 0 4 0 C4 0.66 4 1.32 4 2 C4.99 2 5.98 2 7 2 C7.33 2.66 7.66 3.32 8 4 C10.02463255 4.65213292 10.02463255 4.65213292 12 5 C12 5.99 12 6.98 12 8 C7.1452735 7.58388059 5.19560921 5.54108048 2 2 C1.34 1.34 0.68 0.68 0 0 Z " fill="#53374A" transform="translate(16,291)"/>
<path d="M0 0 C0.66 0 1.32 0 2 0 C2.33 0.66 2.66 1.32 3 2 C3.66 1.67 4.32 1.34 5 1 C5.33 2.32 5.66 3.64 6 5 C4.02 5.99 2.04 6.98 0 8 C0 5.36 0 2.72 0 0 Z " fill="#33426D" transform="translate(303,204)"/>
<path d="M0 0 C0.2475 0.53625 0.495 1.0725 0.75 1.625 C2.0367419 4.17354264 2.0367419 4.17354264 4.0625 7.0625 C6 10 6 10 7 13 C5.0625 12.1875 5.0625 12.1875 3 11 C2.67 10.01 2.34 9.02 2 8 C1.34 8 0.68 8 0 8 C0 5.36 0 2.72 0 0 Z " fill="#273B5D" transform="translate(210,200)"/>
<path d="M0 0 C1.32 0.33 2.64 0.66 4 1 C4 2.65 4 4.3 4 6 C-0.455 5.01 -0.455 5.01 -5 4 C-5 3.67 -5 3.34 -5 3 C-3.35 3 -1.7 3 0 3 C0 2.01 0 1.02 0 0 Z " fill="#D1DBE5" transform="translate(351,183)"/>
<path d="M0 0 C0.66 1.32 1.32 2.64 2 4 C2.66 3.34 3.32 2.68 4 2 C4.33 3.98 4.66 5.96 5 8 C6.65 8.33 8.3 8.66 10 9 C10 9.33 10 9.66 10 10 C6.6875 10.3125 6.6875 10.3125 3 10 C0.65502127 7.35244337 0.04708671 5.7063007 -0.1875 2.1875 C-0.125625 1.465625 -0.06375 0.74375 0 0 Z " fill="#C7595A" transform="translate(334,363)"/>
<path d="M0 0 C0.99 0.33 1.98 0.66 3 1 C3 3.31 3 5.62 3 8 C2.01 8.33 1.02 8.66 0 9 C-0.87890625 2.84765625 -0.87890625 2.84765625 -1 1 C-0.67 0.67 -0.34 0.34 0 0 Z " fill="#FAD9D3" transform="translate(420,360)"/>
<path d="M0 0 C0.33 0 0.66 0 1 0 C1 3.63 1 7.26 1 11 C0.01 11 -0.98 11 -2 11 C-2.28571429 3.57142857 -2.28571429 3.57142857 0 0 Z " fill="#FDDDD2" transform="translate(319,361)"/>
<path d="M0 0 C1.98 0 3.96 0 6 0 C6.125 2.875 6.125 2.875 6 6 C5.34 6.66 4.68 7.32 4 8 C2.22293791 5.33440687 1.12451727 2.9719385 0 0 Z " fill="#CB3D3B" transform="translate(350,360)"/>
<path d="M0 0 C1.65 0 3.3 0 5 0 C5 1.32 5 2.64 5 4 C6.32 4.33 7.64 4.66 9 5 C8.67 5.66 8.34 6.32 8 7 C7.236875 6.505 6.47375 6.01 5.6875 5.5 C3.07636249 3.75631692 3.07636249 3.75631692 0 4 C0 2.68 0 1.36 0 0 Z " fill="#E18C85" transform="translate(388,355)"/>
<path d="M0 0 C2.4375 0.6875 2.4375 0.6875 5 2 C5.8125 4.625 5.8125 4.625 6 7 C5.01 7 4.02 7 3 7 C3 6.01 3 5.02 3 4 C1.68 3.34 0.36 2.68 -1 2 C-0.67 1.34 -0.34 0.68 0 0 Z " fill="#233864" transform="translate(329,210)"/>
<path d="M0 0 C2.31 0 4.62 0 7 0 C7.33 0.66 7.66 1.32 8 2 C6.02 2.33 4.04 2.66 2 3 C1.67 5.31 1.34 7.62 1 10 C0.34 9.67 -0.32 9.34 -1 9 C-0.67 6.03 -0.34 3.06 0 0 Z " fill="#E1ECF5" transform="translate(347,197)"/>
<path d="M0 0 C0.99 0.33 1.98 0.66 3 1 C3 1.66 3 2.32 3 3 C2.01 3 1.02 3 0 3 C0 5.97 0 8.94 0 12 C-0.66 12 -1.32 12 -2 12 C-2.28571429 3.42857143 -2.28571429 3.42857143 0 0 Z " fill="#44557A" transform="translate(369,188)"/>
<path d="M0 0 C-0.33 0.66 -0.66 1.32 -1 2 C-4.63 2 -8.26 2 -12 2 C-9.67178678 -2.65642643 -4.2230553 -0.62307373 0 0 Z " fill="#344059" transform="translate(350,187)"/>
<path d="M0 0 C2 2 2 2 2.265625 3.875 C2.26046875 4.57625 2.2553125 5.2775 2.25 6 C2.25515625 6.70125 2.2603125 7.4025 2.265625 8.125 C2 10 2 10 0 12 C0 9.03 0 6.06 0 3 C-1.98 3 -3.96 3 -6 3 C-6 2.67 -6 2.34 -6 2 C-4.02 2 -2.04 2 0 2 C0 1.34 0 0.68 0 0 Z " fill="#3C4E7B" transform="translate(208,181)"/>
<path d="M0 0 C2.625 0.375 2.625 0.375 5 1 C5.33 2.32 5.66 3.64 6 5 C5.01 5.33 4.02 5.66 3 6 C3 5.01 3 4.02 3 3 C1.35 2.67 -0.3 2.34 -2 2 C-1.34 1.34 -0.68 0.68 0 0 Z " fill="#F7D2C8" transform="translate(435,360)"/>
<path d="M0 0 C3.5 0.3125 3.5 0.3125 7 1 C7.33 1.66 7.66 2.32 8 3 C6.35 3 4.7 3 3 3 C2.34 4.32 1.68 5.64 1 7 C-1 4 -1 4 -1 1 C-0.67 0.67 -0.34 0.34 0 0 Z " fill="#ECC0B0" transform="translate(398,360)"/>
<path d="M0 0 C2 1 2 1 2.6875 2.875 C3 5 3 5 2 8 C1.34 8 0.68 8 0 8 C0 7.34 0 6.68 0 6 C-0.66 6 -1.32 6 -2 6 C-1.125 1.125 -1.125 1.125 0 0 Z " fill="#F8FAFD" transform="translate(96,202)"/>
<path d="M0 0 C1.65 0.33 3.3 0.66 5 1 C5 1.99 5 2.98 5 4 C4.01 4.66 3.02 5.32 2 6 C1.01 5.67 0.02 5.34 -1 5 C-0.34 5 0.32 5 1 5 C1 4.34 1 3.68 1 3 C0.01 3.33 -0.98 3.66 -2 4 C-1.34 2.68 -0.68 1.36 0 0 Z " fill="#2D4371" transform="translate(151,196)"/>
<path d="M0 0 C0 4.07300169 -1.58452534 5.77936711 -4 9 C-6.25 10.875 -6.25 10.875 -8 12 C-7.67 10.68 -7.34 9.36 -7 8 C-6.34 8 -5.68 8 -5 8 C-4.731875 7.05125 -4.46375 6.1025 -4.1875 5.125 C-3 2 -3 2 0 0 Z " fill="#4C3049" transform="translate(464,211)"/>
<path d="M0 0 C0.33 0 0.66 0 1 0 C1.22151549 1.79008467 1.42682213 3.58218162 1.625 5.375 C1.74101562 6.37273437 1.85703125 7.37046875 1.9765625 8.3984375 C1.98429687 9.25695312 1.99203125 10.11546875 2 11 C1.34 11.66 0.68 12.32 0 13 C-0.99 12.67 -1.98 12.34 -3 12 C-2.34 11.67 -1.68 11.34 -1 11 C-1 10.01 -1 9.02 -1 8 C-0.71372955 5.32643843 -0.34968449 2.66634425 0 0 Z " fill="#29375B" transform="translate(379,192)"/>
<path d="M0 0 C0.268125 0.598125 0.53625 1.19625 0.8125 1.8125 C2.71162349 5.31088537 4.20036361 6.73345454 8 8 C8 8.66 8 9.32 8 10 C6.02 10 4.04 10 2 10 C1.814375 9.071875 1.814375 9.071875 1.625 8.125 C1.12802644 5.80879168 1.12802644 5.80879168 -1 4 C-0.625 1.875 -0.625 1.875 0 0 Z " fill="#232F4F" transform="translate(305,170)"/>
<path d="M0 0 C0.66 0 1.32 0 2 0 C2 1.98 2 3.96 2 6 C0.68 6.33 -0.64 6.66 -2 7 C-1.125 1.125 -1.125 1.125 0 0 Z " fill="#9F5754" transform="translate(417,363)"/>
<path d="M0 0 C1.32 0.33 2.64 0.66 4 1 C0.04 4.465 0.04 4.465 -4 8 C-4.66 7.67 -5.32 7.34 -6 7 C-4.02 4.69 -2.04 2.38 0 0 Z " fill="#592F56" transform="translate(428,248)"/>
<path d="M0 0 C0.33 0.99 0.66 1.98 1 3 C-0.109375 5.0078125 -0.109375 5.0078125 -1.75 7.125 C-2.28109375 7.82882813 -2.8121875 8.53265625 -3.359375 9.2578125 C-5 11 -5 11 -8 12 C-6.68544658 9.06753467 -5.25126383 7.25126383 -3 5 C-1.96642853 3.35394174 -0.95939668 1.69036558 0 0 Z " fill="#AA4955" transform="translate(464,213)"/>
<path d="M0 0 C3.72433382 1.2125738 7.37802806 2.50859979 11 4 C10.01 5.485 10.01 5.485 9 7 C5.18315774 5.44499019 2.80804268 2.96404505 0 0 Z " fill="#2E427B" transform="translate(84,193)"/>
<path d="M0 0 C2.475 0.99 2.475 0.99 5 2 C2.06195683 3.52342979 -0.86560559 4.92770717 -4 6 C-4.66 5.67 -5.32 5.34 -6 5 C-6 4.34 -6 3.68 -6 3 C-4.02 2.67 -2.04 2.34 0 2 C0 1.34 0 0.68 0 0 Z " fill="#35476B" transform="translate(335,177)"/>
<path d="M0 0 C-0.61875 0.28875 -1.2375 0.5775 -1.875 0.875 C-4.13325765 1.93720042 -4.13325765 1.93720042 -6 4 C-6.6425235 6.06874034 -6.6425235 6.06874034 -7 8 C-7.66 8 -8.32 8 -9 8 C-9.22223194 5.25913944 -9.34781139 3.56036279 -7.875 1.1875 C-5.22464043 -0.49106106 -3.06753576 -0.20450238 0 0 Z " fill="#D2DEEA" transform="translate(181,164)"/>
<path d="M0 0 C0.33 1.32 0.66 2.64 1 4 C1.66 4 2.32 4 3 4 C3 5.32 3 6.64 3 8 C3.99 8.33 4.98 8.66 6 9 C4.02 9 2.04 9 0 9 C0 6.03 0 3.06 0 0 Z " fill="#BF5C4C" transform="translate(389,364)"/>
<path d="M0 0 C0.66 0 1.32 0 2 0 C2.1875 3.375 2.1875 3.375 2 7 C1.01 7.66 0.02 8.32 -1 9 C-1.80967438 6.08517222 -2.21845993 4.53886783 -1.0625 1.6875 C-0.711875 1.130625 -0.36125 0.57375 0 0 Z " fill="#B64945" transform="translate(404,363)"/>
<path d="M0 0 C1.8871875 0.0309375 1.8871875 0.0309375 3.8125 0.0625 C1.31744038 2.55755962 0.13921112 2.42198376 -3.3125 2.6875 C-4.22257813 2.76226562 -5.13265625 2.83703125 -6.0703125 2.9140625 C-7.11832031 2.98753906 -7.11832031 2.98753906 -8.1875 3.0625 C-6.45706736 -0.39836529 -3.47359009 -0.0569441 0 0 Z " fill="#463559" transform="translate(140.1875,309.9375)"/>
<path d="M0 0 C0 0.66 0 1.32 0 2 C-2.97 2.66 -5.94 3.32 -9 4 C-9 3.01 -9 2.02 -9 1 C-5.8035914 -0.06546953 -3.34252724 -0.07427838 0 0 Z " fill="#E3323A" transform="translate(41,308)"/>
<path d="M0 0 C0 0.99 0 1.98 0 3 C-3.3 3 -6.6 3 -10 3 C-6.84916414 -0.15083586 -4.41812253 0 0 0 Z " fill="#C74240" transform="translate(384,279)"/>
<path d="M0 0 C1.485 0.99 1.485 0.99 3 2 C5.0492094 2.45139459 5.0492094 2.45139459 7.1875 2.625 C8.445625 2.74875 9.70375 2.8725 11 3 C10.67 3.99 10.34 4.98 10 6 C6.05879291 5.43697042 3.2491277 4.3208055 0 2 C0 1.34 0 0.68 0 0 Z " fill="#243561" transform="translate(85,191)"/>
<path d="M0 0 C1.65 0 3.3 0 5 0 C5 0.99 5 1.98 5 3 C3.02 3.33 1.04 3.66 -1 4 C-0.67 2.68 -0.34 1.36 0 0 Z " fill="#F3D1C2" transform="translate(378,360)"/>
<path d="M0 0 C0 0.99 0 1.98 0 3 C-1.98 3.33 -3.96 3.66 -6 4 C-6 2.68 -6 1.36 -6 0 C-3 -1 -3 -1 0 0 Z " fill="#243C7E" transform="translate(426,248)"/>
<path d="M0 0 C0.66 0 1.32 0 2 0 C2 0.66 2 1.32 2 2 C2.66 2.33 3.32 2.66 4 3 C3.67 6.63 3.34 10.26 3 14 C2.67 14 2.34 14 2 14 C1.34 9.38 0.68 4.76 0 0 Z " fill="#445175" transform="translate(356,187)"/>
<path d="M0 0 C4.02992782 0.55312735 8.02022924 1.1558062 12 2 C12 2.33 12 2.66 12 3 C3.42857143 3.14285714 3.42857143 3.14285714 0 2 C0 1.34 0 0.68 0 0 Z " fill="#4F334E" transform="translate(64,313)"/>
<path d="M0 0 C0.66 0.66 1.32 1.32 2 2 C0.25 8.75 0.25 8.75 -2 11 C-2 6.91621923 -1.19287411 3.87684087 0 0 Z " fill="#28385F" transform="translate(302,204)"/>
<path d="M0 0 C0.33 0 0.66 0 1 0 C1 3.63 1 7.26 1 11 C0.01 10.67 -0.98 10.34 -2 10 C-2 8.68 -2 7.36 -2 6 C-1.34 6 -0.68 6 0 6 C0 4.02 0 2.04 0 0 Z " fill="#394571" transform="translate(324,194)"/>
<path d="M0 0 C0.33 0.66 0.66 1.32 1 2 C1.99 2.33 2.98 2.66 4 3 C3.071875 3.1546875 3.071875 3.1546875 2.125 3.3125 C-0.36526484 3.87525373 -0.36526484 3.87525373 -2 7 C-2 6.01 -2 5.02 -2 4 C-2.66 3.67 -3.32 3.34 -4 3 C-2.68 2.01 -1.36 1.02 0 0 Z " fill="#25355F" transform="translate(106,187)"/>
<path d="M0 0 C0 1.32 0 2.64 0 4 C-2.31 4 -4.62 4 -7 4 C-3.375 0 -3.375 0 0 0 Z " fill="#E2EAF5" transform="translate(290,172)"/>
<path d="M0 0 C0.33 0.99 0.66 1.98 1 3 C1.99 3.33 2.98 3.66 4 4 C2.02 5.32 0.04 6.64 -2 8 C-1.125 1.125 -1.125 1.125 0 0 Z " fill="#D4E0F0" transform="translate(362,167)"/>
<path d="M0 0 C0.33 0 0.66 0 1 0 C1.28571429 7.42857143 1.28571429 7.42857143 -1 11 C-2.26264601 6.70700357 -1.62950412 4.12168689 0 0 Z " fill="#A43939" transform="translate(411,362)"/>
<path d="M0 0 C0 0.66 0 1.32 0 2 C-2.97 1.505 -2.97 1.505 -6 1 C-6.33 2.32 -6.66 3.64 -7 5 C-7 3.35 -7 1.7 -7 0 C-4.3333581 -1.33332095 -2.83319697 -0.67102033 0 0 Z " fill="#F9C7BF" transform="translate(369,361)"/>
<path d="M0 0 C1.98 0 3.96 0 6 0 C6.33 0.99 6.66 1.98 7 3 C4.69 3 2.38 3 0 3 C0 2.01 0 1.02 0 0 Z " fill="#D93726" transform="translate(368,283)"/>
<path d="M0 0 C0.66 0 1.32 0 2 0 C1.34 1.65 0.68 3.3 0 5 C-1.98 5 -3.96 5 -6 5 C-5.67 4.34 -5.34 3.68 -5 3 C-2.4375 2.375 -2.4375 2.375 0 2 C0 1.34 0 0.68 0 0 Z " fill="#C54344" transform="translate(412,263)"/>
<path d="M0 0 C0.99 0 1.98 0 3 0 C3.1875 2.375 3.1875 2.375 3 5 C2.01 5.66 1.02 6.32 0 7 C0 4.69 0 2.38 0 0 Z " fill="#FCDAD5" transform="translate(427,355)"/>
<path d="M0 0 C0.66 0.33 1.32 0.66 2 1 C0.68 3.31 -0.64 5.62 -2 8 C-2.66 8 -3.32 8 -4 8 C-2.25 2.25 -2.25 2.25 0 0 Z " fill="#53324A" transform="translate(469,203)"/>
<path d="M0 0 C4.8 2.46153846 4.8 2.46153846 5.8125 5.1875 C5.874375 5.785625 5.93625 6.38375 6 7 C2.58841744 5.86280581 1.88145399 4.95657056 0 2 C0 1.34 0 0.68 0 0 Z " fill="#293E5E" transform="translate(251,177)"/>
<path d="M0 0 C0.33 0 0.66 0 1 0 C1.144375 0.7425 1.28875 1.485 1.4375 2.25 C1.90187492 4.52027739 2.41863569 6.75759479 3 9 C1.68 9 0.36 9 -1 9 C-0.67 6.03 -0.34 3.06 0 0 Z " fill="#F3B5AA" transform="translate(411,369)"/>
<path d="M0 0 C-0.33 0.66 -0.66 1.32 -1 2 C-3.31 2 -5.62 2 -8 2 C-8.33 1.34 -8.66 0.68 -9 0 C-3.375 -1.125 -3.375 -1.125 0 0 Z " fill="#FDD2C0" transform="translate(440,370)"/>
<path d="M0 0 C0.99 0.33 1.98 0.66 3 1 C3 2.65 3 4.3 3 6 C2.01 6 1.02 6 0 6 C0 4.02 0 2.04 0 0 Z " fill="#F8D6D2" transform="translate(323,366)"/>
<path d="M0 0 C0.66 0 1.32 0 2 0 C2 0.99 2 1.98 2 3 C2.66 3.33 3.32 3.66 4 4 C2.35 4.66 0.7 5.32 -1 6 C-1.042721 4.33388095 -1.04063832 2.66617115 -1 1 C-0.67 0.67 -0.34 0.34 0 0 Z " fill="#FEEFDD" transform="translate(339,363)"/>
<path d="M0 0 C0.66 0 1.32 0 2 0 C3.0625 1.8125 3.0625 1.8125 4 4 C3.67 4.99 3.34 5.98 3 7 C2.01 6.34 1.02 5.68 0 5 C-0.1875 2.375 -0.1875 2.375 0 0 Z " fill="#FDE5DF" transform="translate(363,362)"/>
<path d="M0 0 C0.33 0.99 0.66 1.98 1 3 C-0.4375 5.1875 -0.4375 5.1875 -2 7 C-3 6 -3 6 -3.0625 3.4375 C-3.041875 2.633125 -3.02125 1.82875 -3 1 C-2.01 0.67 -1.02 0.34 0 0 Z " fill="#B3484B" transform="translate(338,361)"/>
<path d="M0 0 C0.99 0 1.98 0 3 0 C3 1.98 3 3.96 3 6 C2.01 6.495 2.01 6.495 1 7 C0.34 5.02 -0.32 3.04 -1 1 C-0.67 0.67 -0.34 0.34 0 0 Z " fill="#FEE8E3" transform="translate(406,360)"/>
<path d="M0 0 C0.33 0.99 0.66 1.98 1 3 C0.01 3 -0.98 3 -2 3 C-4.00309329 3.31421071 -6.00371336 3.6451046 -8 4 C-8 3.01 -8 2.02 -8 1 C-5.36 0.67 -2.72 0.34 0 0 Z " fill="#B9443D" transform="translate(424,358)"/>
<path d="M0 0 C4.7517398 0.43197635 6.92000054 1.32769295 10 5 C6.33118845 4.29445932 3.29549466 2.72264494 0 1 C0 0.67 0 0.34 0 0 Z " fill="#563653" transform="translate(28,299)"/>
<path d="M0 0 C2.66666667 1.33333333 5.33333333 2.66666667 8 4 C8 4.99 8 5.98 8 7 C4.2047869 5.50902342 2.38957269 3.24299151 0 0 Z " fill="#553251" transform="translate(8,284)"/>
<path d="M0 0 C1.98 0 3.96 0 6 0 C6.33 0.66 6.66 1.32 7 2 C4.69 2.33 2.38 2.66 0 3 C0 2.01 0 1.02 0 0 Z " fill="#D53B47" transform="translate(304,283)"/>
<path d="M0 0 C2.88437779 1.29299694 4.87219421 2.65941363 7 5 C6.67 5.66 6.34 6.32 6 7 C5.566875 6.505 5.13375 6.01 4.6875 5.5 C3.00259517 3.66781808 3.00259517 3.66781808 0 4 C0 2.68 0 1.36 0 0 Z " fill="#BC4454" transform="translate(0,279)"/>
<path d="M0 0 C0.66 0.33 1.32 0.66 2 1 C-0.31 3.31 -2.62 5.62 -5 8 C-5 5 -5 5 -2.5 2.3125 C-1.675 1.549375 -0.85 0.78625 0 0 Z " fill="#4E3254" transform="translate(454,224)"/>
<path d="M0 0 C0.66 0 1.32 0 2 0 C1.8125 2.375 1.8125 2.375 1 5 C-1.5625 6.3125 -1.5625 6.3125 -4 7 C-3.67 6.01 -3.34 5.02 -3 4 C-2.34 4 -1.68 4 -1 4 C-0.67 2.68 -0.34 1.36 0 0 Z " fill="#213961" transform="translate(259,205)"/>
<path d="M0 0 C1.67542976 0.28604898 3.34385343 0.61781233 5 1 C3.68 2.32 2.36 3.64 1 5 C0.34 3.68 -0.32 2.36 -1 1 C-0.67 0.67 -0.34 0.34 0 0 Z " fill="#D2E6E9" transform="translate(109,203)"/>
<path d="M0 0 C3.875 1.75 3.875 1.75 5 4 C4.34 4.66 3.68 5.32 3 6 C1.68 4.35 0.36 2.7 -1 1 C-0.67 0.67 -0.34 0.34 0 0 Z " fill="#2F4058" transform="translate(351,178)"/>
<path d="M0 0 C0.99 0.33 1.98 0.66 3 1 C2.6875 2.9375 2.6875 2.9375 2 5 C1.01 5.33 0.02 5.66 -1 6 C-1.042721 4.33388095 -1.04063832 2.66617115 -1 1 C-0.67 0.67 -0.34 0.34 0 0 Z " fill="#223767" transform="translate(184,176)"/>
<path d="M0 0 C2.31 0.33 4.62 0.66 7 1 C5 3 5 3 1.875 3.125 C0.451875 3.063125 0.451875 3.063125 -1 3 C-0.67 2.01 -0.34 1.02 0 0 Z " fill="#273051" transform="translate(175,175)"/>
</svg>
