<?xml version="1.0" standalone="no"?>
<!DOCTYPE svg PUBLIC "-//W3C//DTD SVG 20010904//EN"
 "http://www.w3.org/TR/2001/REC-SVG-20010904/DTD/svg10.dtd">
<svg version="1.0" xmlns="http://www.w3.org/2000/svg"
 width="3000.000000pt" height="2409.000000pt" viewBox="0 0 3000.000000 2409.000000"
 preserveAspectRatio="xMidYMid meet">

<g transform="translate(0.000000,2409.000000) scale(0.100000,-0.100000)"
fill="#000000" stroke="none">
<path d="M10820 20883 c-700 -39 -1309 -196 -1915 -493 -984 -482 -1772 -1270
-2255 -2255 -269 -549 -419 -1088 -482 -1735 -19 -199 -19 -8498 0 -8705 100
-1065 487 -1985 1170 -2785 734 -860 1782 -1454 2892 -1639 417 -70 20 -64
4635 -68 4334 -4 4377 -4 4700 37 1315 168 2499 859 3300 1925 594 791 922
1700 975 2700 13 259 13 8101 0 8360 -53 1001 -385 1918 -982 2710 -768 1019
-1908 1702 -3163 1896 -363 56 -45 53 -4615 54 -2313 1 -4230 0 -4260 -2z
m8300 -1293 c661 -35 1264 -231 1797 -582 892 -587 1465 -1502 1610 -2568 17
-129 18 -318 18 -4390 0 -4521 2 -4299 -46 -4577 -145 -842 -619 -1642 -1287
-2176 -573 -457 -1186 -708 -1927 -789 -177 -19 -8393 -19 -8570 0 -746 81
-1367 337 -1945 801 -123 99 -384 358 -493 489 -376 455 -641 1006 -756 1569
-72 350 -65 -89 -69 4588 -2 3097 0 4247 8 4350 37 451 165 897 375 1310 180
356 384 635 675 925 631 632 1461 1004 2340 1049 216 12 8061 12 8270 1z"/>
<path d="M19701 17720 c-171 -36 -327 -125 -453 -258 -268 -284 -302 -723 -80
-1048 52 -77 183 -202 258 -246 141 -83 277 -120 439 -120 161 0 293 35 425
113 191 112 320 277 386 496 24 77 27 106 28 228 1 148 -10 207 -58 327 -42
104 -89 171 -191 274 -83 83 -115 108 -190 146 -147 75 -207 90 -375 94 -80 2
-165 -1 -189 -6z"/>
<path d="M14700 16159 c-995 -75 -1953 -479 -2700 -1136 -1040 -916 -1608
-2209 -1577 -3588 3 -137 13 -313 21 -390 64 -571 222 -1104 480 -1612 224
-441 496 -814 861 -1179 238 -238 440 -405 705 -581 1106 -738 2476 -964 3770
-622 646 171 1263 493 1795 937 157 131 482 466 619 637 135 169 316 433 411
599 548 960 736 2093 529 3181 -168 880 -595 1702 -1219 2344 -388 400 -778
686 -1265 930 -557 279 -1120 434 -1740 481 -154 11 -534 11 -690 -1z m742
-1304 c1032 -121 1947 -714 2488 -1612 256 -425 416 -921 461 -1433 17 -192 6
-565 -21 -745 -80 -533 -256 -987 -547 -1415 -132 -192 -222 -301 -408 -485
-274 -274 -525 -455 -865 -625 -348 -175 -679 -273 -1110 -332 -149 -20 -633
-17 -795 6 -776 106 -1452 444 -1981 988 -488 502 -802 1128 -909 1814 -107
681 -5 1364 295 1979 179 367 391 659 687 945 565 546 1293 872 2077 930 155
11 468 4 628 -15z"/>
</g>
</svg>
