<?xml version="1.0" encoding="UTF-8"?>
<svg version="1.1" xmlns="http://www.w3.org/2000/svg" width="474" height="474">
<path d="M0 0 C156.42 0 312.84 0 474 0 C474 156.42 474 312.84 474 474 C317.58 474 161.16 474 0 474 C0 317.58 0 161.16 0 0 Z " fill="#FDC405" transform="translate(0,0)"/>
<path d="M0 0 C156.42 0 312.84 0 474 0 C474 156.42 474 312.84 474 474 C317.58 474 161.16 474 0 474 C0 317.58 0 161.16 0 0 Z M24 24 C24 164.58 24 305.16 24 450 C164.58 450 305.16 450 450 450 C450 309.42 450 168.84 450 24 C309.42 24 168.84 24 24 24 Z " fill="#FEFEFD" transform="translate(0,0)"/>
<path d="M0 0 C3.0796272 0.01073381 6.15867136 0.00002226 9.23828125 -0.01269531 C25.55894303 -0.02466299 41.76217703 0.94982853 57.83203125 3.94824219 C58.72124268 4.11267822 59.6104541 4.27711426 60.52661133 4.4465332 C67.70655253 5.84857786 74.74001833 7.67941771 81.76953125 9.69824219 C82.73665039 9.97434326 83.70376953 10.25044434 84.70019531 10.53491211 C91.45279876 12.55498639 97.73394486 15.21158246 104.08203125 18.26074219 C105.04749878 18.71114868 105.04749878 18.71114868 106.0324707 19.1706543 C125.10846466 28.10247507 143.41089976 39.68336535 152.16796875 59.74902344 C156.13677421 71.16389052 154.47654051 82.26056597 149.64453125 93.01074219 C137.62847475 116.16577077 110.82380153 129.6865693 86.90234375 137.26855469 C80.95689612 138.8126689 74.99460291 140.27330105 69.01953125 141.69824219 C67.19711914 142.14780273 67.19711914 142.14780273 65.33789062 142.60644531 C46.01908269 147.19478661 27.02628888 148.75877488 7.18725586 148.65185547 C3.65113682 148.63577223 0.11616292 148.65180696 -3.41992188 148.67089844 C-22.51271433 148.68932369 -41.24186493 147.05527427 -59.85546875 142.63574219 C-60.92337646 142.3841333 -61.99128418 142.13252441 -63.09155273 141.87329102 C-85.30436885 136.38749511 -106.90694939 127.56541232 -124.91796875 113.26074219 C-125.74683594 112.63425781 -126.57570313 112.00777344 -127.4296875 111.36230469 C-137.54641288 102.81788042 -144.8203819 91.22253592 -146.27734375 77.99902344 C-146.81108581 64.75925506 -142.64973033 54.07630556 -133.91796875 44.26074219 C-133.19609375 43.27074219 -132.47421875 42.28074219 -131.73046875 41.26074219 C-113.34304302 19.7296598 -79.34639688 10.22095686 -52.91796875 4.51074219 C-52.01884766 4.31206543 -51.11972656 4.11338867 -50.19335938 3.90869141 C-33.62195397 0.5063638 -16.86488167 -0.06964532 0 0 Z " fill="#FCC507" transform="translate(232.91796875,162.7392578125)"/>
<path d="M0 0 C3.0796272 0.01073381 6.15867136 0.00002226 9.23828125 -0.01269531 C25.55894303 -0.02466299 41.76217703 0.94982853 57.83203125 3.94824219 C58.72124268 4.11267822 59.6104541 4.27711426 60.52661133 4.4465332 C67.70655253 5.84857786 74.74001833 7.67941771 81.76953125 9.69824219 C82.73665039 9.97434326 83.70376953 10.25044434 84.70019531 10.53491211 C91.45279876 12.55498639 97.73394486 15.21158246 104.08203125 18.26074219 C105.04749878 18.71114868 105.04749878 18.71114868 106.0324707 19.1706543 C125.10846466 28.10247507 143.41089976 39.68336535 152.16796875 59.74902344 C156.13677421 71.16389052 154.47654051 82.26056597 149.64453125 93.01074219 C137.62847475 116.16577077 110.82380153 129.6865693 86.90234375 137.26855469 C80.95689612 138.8126689 74.99460291 140.27330105 69.01953125 141.69824219 C67.19711914 142.14780273 67.19711914 142.14780273 65.33789062 142.60644531 C46.01908269 147.19478661 27.02628888 148.75877488 7.18725586 148.65185547 C3.65113682 148.63577223 0.11616292 148.65180696 -3.41992188 148.67089844 C-22.51271433 148.68932369 -41.24186493 147.05527427 -59.85546875 142.63574219 C-60.92337646 142.3841333 -61.99128418 142.13252441 -63.09155273 141.87329102 C-85.30436885 136.38749511 -106.90694939 127.56541232 -124.91796875 113.26074219 C-125.74683594 112.63425781 -126.57570313 112.00777344 -127.4296875 111.36230469 C-137.54641288 102.81788042 -144.8203819 91.22253592 -146.27734375 77.99902344 C-146.81108581 64.75925506 -142.64973033 54.07630556 -133.91796875 44.26074219 C-133.19609375 43.27074219 -132.47421875 42.28074219 -131.73046875 41.26074219 C-113.34304302 19.7296598 -79.34639688 10.22095686 -52.91796875 4.51074219 C-52.01884766 4.31206543 -51.11972656 4.11338867 -50.19335938 3.90869141 C-33.62195397 0.5063638 -16.86488167 -0.06964532 0 0 Z M-78.421875 23.24511719 C-83.16127791 25.17351274 -88.05108305 26.68862103 -92.91796875 28.26074219 C-92.91796875 28.92074219 -92.91796875 29.58074219 -92.91796875 30.26074219 C-94.07296875 30.54949219 -95.22796875 30.83824219 -96.41796875 31.13574219 C-101.54176956 32.82174406 -105.92617342 35.49091383 -110.48046875 38.32324219 C-111.2075 38.77103027 -111.93453125 39.21881836 -112.68359375 39.68017578 C-114.46777045 40.81397759 -116.19863092 42.03083549 -117.91796875 43.26074219 C-117.91796875 43.92074219 -117.91796875 44.58074219 -117.91796875 45.26074219 C-119.40296875 45.75574219 -119.40296875 45.75574219 -120.91796875 46.26074219 C-120.91796875 46.92074219 -120.91796875 47.58074219 -120.91796875 48.26074219 C-121.51609375 48.51984375 -122.11421875 48.77894531 -122.73046875 49.04589844 C-129.04098074 52.55048635 -132.07411961 59.97511896 -134.22265625 66.53808594 C-136.55400507 75.66701925 -134.00287348 83.36136269 -129.71484375 91.56152344 C-120.95261753 106.28539091 -102.81566302 116.77795305 -86.91796875 122.26074219 C-85.231875 122.87369141 -85.231875 122.87369141 -83.51171875 123.49902344 C-79.98763833 124.77537308 -76.45881305 126.03165695 -72.91796875 127.26074219 C-71.97594604 127.61217285 -71.97594604 127.61217285 -71.01489258 127.97070312 C-64.41795666 130.33863555 -57.63284878 131.68375697 -50.76342773 132.99560547 C-48.74957336 133.3820759 -46.73914616 133.78365949 -44.72851562 134.18652344 C-29.90672998 137.0960617 -15.2185598 137.44732942 -0.16162109 137.44604492 C2.6814696 137.44822261 5.52416541 137.4664243 8.3671875 137.48535156 C40.96073497 137.58481569 70.37231746 131.39204408 100.89453125 120.01074219 C101.75344971 119.69403564 102.61236816 119.3773291 103.49731445 119.05102539 C107.99247792 117.31953147 111.4479021 115.5151862 115.08203125 112.26074219 C116.41234375 111.39449219 116.41234375 111.39449219 117.76953125 110.51074219 C129.04957872 103.07815277 138.69070627 94.4945062 142.70703125 81.19042969 C144.10239584 74.01011608 143.28900466 66.05743524 139.6015625 59.71386719 C137.84445583 57.15384422 136.00156565 54.70082829 134.08203125 52.26074219 C133.3859375 51.31714844 133.3859375 51.31714844 132.67578125 50.35449219 C122.38332745 37.1897257 104.31226419 30.01851318 89.08203125 24.26074219 C88.47294922 24.02645508 87.86386719 23.79216797 87.23632812 23.55078125 C77.78454356 19.97027764 68.24579909 17.46727119 58.33203125 15.51074219 C57.34702637 15.31222656 56.36202148 15.11371094 55.34716797 14.90917969 C36.97538177 11.4873576 18.28779749 10.82249159 -0.35546875 10.82324219 C-1.39202606 10.82151001 -2.42858337 10.81977783 -3.49655151 10.81799316 C-28.78616091 10.83643272 -54.8939052 13.24672192 -78.421875 23.24511719 Z " fill="#0D0703" transform="translate(232.91796875,162.7392578125)"/>
<path d="M0 0 C0.72317859 -0.00145344 1.44635718 -0.00290688 2.19145027 -0.00440437 C4.64553252 -0.00809059 7.09955367 -0.0045659 9.5536356 -0.0011425 C11.31848815 -0.00229329 13.08334047 -0.00388052 14.84819227 -0.00586975 C19.72195173 -0.01006895 24.59569176 -0.00796973 29.46945131 -0.00488353 C34.71628447 -0.00263202 39.96311415 -0.0061078 45.20994663 -0.00886345 C55.49828402 -0.01332292 65.78661414 -0.01234387 76.07495182 -0.00945081 C84.43303626 -0.00719734 92.79111865 -0.00688401 101.1492033 -0.00797462 C102.92991581 -0.00820447 102.92991581 -0.00820447 104.74660232 -0.00843897 C107.15786532 -0.00875868 109.56912833 -0.00908289 111.98039133 -0.00941156 C134.62047639 -0.0122669 157.26055741 -0.00897855 179.90064181 -0.00361119 C199.34743949 0.00085632 218.79423121 0.00008145 238.24102879 -0.00452995 C260.79558443 -0.00987575 283.35013652 -0.0119916 305.90469271 -0.00891769 C308.30765823 -0.00859912 310.71062376 -0.00828475 313.11358929 -0.00797462 C314.88728346 -0.00774321 314.88728346 -0.00774321 316.69680984 -0.00750712 C325.04905887 -0.00664194 333.40130566 -0.00810488 341.75355434 -0.01045418 C351.92620085 -0.01325247 362.09883964 -0.01251332 372.27148526 -0.00717343 C377.46655288 -0.00453672 382.66160761 -0.00353084 387.85667515 -0.00682259 C392.60555092 -0.0097862 397.35440176 -0.00819162 402.10327525 -0.00284503 C403.82803375 -0.00172112 405.55279433 -0.00231146 407.27755152 -0.00472082 C409.60865405 -0.00772926 411.93966937 -0.00467563 414.27076721 0 C415.56962811 0.00016235 416.86848901 0.0003247 418.20670933 0.00049198 C421.19830418 0.12584114 421.19830418 0.12584114 423.19830418 1.12584114 C423.03584204 1.63911579 422.8733799 2.15239044 422.70599467 2.68121886 C422.0366595 5.90418974 422.0742843 8.94649086 422.07525635 12.23979759 C422.0741026 12.96054572 422.07294886 13.68129385 422.07176015 14.42388283 C422.06910355 16.85045786 422.07360681 19.27696722 422.07804966 21.70353889 C422.07761237 23.45166731 422.07673569 25.19979566 422.07545567 26.94792366 C422.0732065 31.77115994 422.07723458 36.59437413 422.08223145 41.41760761 C422.08658721 46.69138348 422.08513756 51.96515829 422.08441353 57.23893547 C422.08388109 67.48383872 422.088506 77.72873323 422.09491486 87.97363423 C422.10210411 99.81978089 422.10290902 111.66592228 422.10369968 123.51207161 C422.10895382 154.79999618 422.12291488 186.08791879 422.13580418 217.37584114 C422.15642918 287.25334114 422.17705418 357.13084114 422.19830418 429.12584114 C280.29830418 429.12584114 138.39830418 429.12584114 -7.80169582 429.12584114 C-7.82232082 358.52646614 -7.84294582 287.92709114 -7.86419582 215.18834114 C-7.87329983 192.85283577 -7.88240383 170.5173304 -7.89178371 147.50499153 C-7.89630032 120.34153938 -7.89630032 120.34153938 -7.89713955 107.64657784 C-7.8980755 98.73328579 -7.90175803 89.81999995 -7.90727139 80.90670967 C-7.9136121 70.64076736 -7.91653757 60.37483103 -7.91514077 50.10888674 C-7.91453525 44.85125846 -7.91553173 39.59364359 -7.92091095 34.33601773 C-7.92573621 29.5912937 -7.92604627 24.84659271 -7.92259693 20.10186768 C-7.92216931 18.37757665 -7.92346802 16.65328424 -7.9265784 14.92899597 C-7.93054113 12.59700968 -7.92845961 10.26510833 -7.92474365 7.93312359 C-7.92512337 6.6333409 -7.92550309 5.33355821 -7.92589432 3.99438816 C-7.6936009 -1.37077022 -4.73379601 0.00059178 0 0 Z M-6.80169582 1.12584114 C-6.80169582 141.70584114 -6.80169582 282.28584114 -6.80169582 427.12584114 C133.77830418 427.12584114 274.35830418 427.12584114 419.19830418 427.12584114 C419.19830418 286.54584114 419.19830418 145.96584114 419.19830418 1.12584114 C278.61830418 1.12584114 138.03830418 1.12584114 -6.80169582 1.12584114 Z " fill="#FEF1B2" transform="translate(30.801695823669434,22.87415885925293)"/>
<path d="M0 0 C13 0 13 0 16.31640625 2.703125 C17.50195312 4.42578125 17.50195312 4.42578125 18.5625 6.25 C19.33230617 7.4234064 20.10439867 8.59531644 20.87890625 9.765625 C21.57886719 10.83296875 22.27882812 11.9003125 23 13 C24.29171393 14.37369235 25.60961628 15.72626979 27 17 C28.64723726 14.54259704 30.29284464 12.08412999 31.9375 9.625 C32.40607422 8.92632812 32.87464844 8.22765625 33.35742188 7.5078125 C33.80537109 6.8375 34.25332031 6.1671875 34.71484375 5.4765625 C35.12855225 4.85861816 35.54226074 4.24067383 35.96850586 3.60400391 C37.05943417 1.97082732 37.05943417 1.97082732 38 0 C42.29 0 46.58 0 51 0 C51 16.17 51 32.34 51 49 C46.71 49 42.42 49 38 49 C37.505 36.13 37.505 36.13 37 23 C36.030625 24.815 35.06125 26.63 34.0625 28.5 C30.76737074 33.65614356 30.76737074 33.65614356 27.7421875 35.01171875 C25.07821837 35.21490284 23.46748516 35.04152906 21 34 C18.43240181 31.6375992 16.58883094 29.10289336 15 26 C15 25.34 15 24.68 15 24 C14.34 24 13.68 24 13 24 C13 32.25 13 40.5 13 49 C8.71 49 4.42 49 0 49 C0 32.83 0 16.66 0 0 Z " fill="#0D0703" transform="translate(162,212)"/>
<path d="M0 0 C14 0 14 0 17.23828125 2.45703125 C17.92277344 3.56433594 18.60726563 4.67164063 19.3125 5.8125 C20.09515632 7.0042497 20.88036804 8.19432464 21.66796875 9.3828125 C22.04743652 9.98641602 22.4269043 10.59001953 22.81787109 11.21191406 C24.70420443 14.06517828 26.90579103 16.58519275 29.125 19.1875 C33 23.76643599 33 23.76643599 33 26 C33.66 26 34.32 26 35 26 C35 17.42 35 8.84 35 0 C38.96 0 42.92 0 47 0 C47 16.17 47 32.34 47 49 C35 49 35 49 31.73828125 46.2890625 C30.89101633 45.09421021 30.08301148 43.87072947 29.3125 42.625 C28.41871383 41.33881192 27.5215367 40.05497407 26.62109375 38.7734375 C26.18780762 38.1350293 25.75452148 37.49662109 25.30810547 36.83886719 C22.74895641 33.24134746 19.68327453 30.11867938 16.6796875 26.890625 C15 25 15 25 14 23 C13.67 31.58 13.34 40.16 13 49 C8.71 49 4.42 49 0 49 C0 32.83 0 16.66 0 0 Z " fill="#060303" transform="translate(266,212)"/>
<path d="M0 0 C15.18 0 30.36 0 46 0 C46 3.63 46 7.26 46 11 C40.72 11 35.44 11 30 11 C30 23.54 30 36.08 30 49 C25.38 49 20.76 49 16 49 C16 36.46 16 23.92 16 11 C10.72 11 5.44 11 0 11 C0 7.37 0 3.74 0 0 Z " fill="#120A02" transform="translate(217,212)"/>
<path d="M0 0 C0 0.99 0 1.98 0 3 C0.57209702 2.83890747 1.14419403 2.67781494 1.73362732 2.51184082 C3.98040357 2.00442568 5.96287125 1.85010114 8.26196289 1.81054688 C9.09284927 1.79382935 9.92373566 1.77711182 10.77980042 1.7598877 C12.11276405 1.73952454 12.11276405 1.73952454 13.47265625 1.71875 C14.85184486 1.69113586 14.85184486 1.69113586 16.25889587 1.66296387 C20.18883811 1.58439547 24.11894798 1.51650618 28.04907227 1.44775391 C30.9195193 1.39601704 33.78982043 1.33877977 36.66015625 1.28125 C37.55082291 1.26767456 38.44148956 1.25409912 39.35914612 1.2401123 C40.18688034 1.22339478 41.01461456 1.20667725 41.86743164 1.18945312 C42.59483047 1.17692505 43.32222931 1.16439697 44.07167053 1.15148926 C46.21959233 1.06066753 46.21959233 1.06066753 49 0 C49 0.66 49 1.32 49 2 C49.99 1.67 50.98 1.34 52 1 C54.39254576 0.77439324 56.78928123 0.59151405 59.1875 0.4375 C60.45980469 0.35371094 61.73210937 0.26992187 63.04296875 0.18359375 C64.01878906 0.12300781 64.99460937 0.06242188 66 0 C66.4021875 0.9590625 66.4021875 0.9590625 66.8125 1.9375 C67.88667752 4.33131686 67.88667752 4.33131686 71 5 C71.495 8.465 71.495 8.465 72 12 C67.125 7.375 67.125 7.375 66 4 C61.38 4 56.76 4 52 4 C52 19.84 52 35.68 52 52 C51.67 52 51.34 52 51 52 C51 39.79 51 27.58 51 15 C50.34 15 49.68 15 49 15 C49 11.37 49 7.74 49 4 C33.82 4 18.64 4 3 4 C3 7.63 3 11.26 3 15 C2.67 15 2.34 15 2 15 C1.67 27.21 1.34 39.42 1 52 C0.34 52 -0.32 52 -1 52 C-1 36.16 -1 20.32 -1 4 C-4.96 4 -8.92 4 -13 4 C-12.67 3.01 -12.34 2.02 -12 1 C-10.37512529 0.83211627 -8.75009558 0.66573213 -7.125 0.5 C-6.22007812 0.4071875 -5.31515625 0.314375 -4.3828125 0.21875 C-2 0 -2 0 0 0 Z " fill="#DCB41E" transform="translate(214,208)"/>
<path d="M0 0 C0.495 0.99 0.495 0.99 1 2 C3.8159849 2.46898963 3.8159849 2.46898963 7.0625 2.625 C8.71958984 2.73714844 8.71958984 2.73714844 10.41015625 2.8515625 C11.26480469 2.90054688 12.11945313 2.94953125 13 3 C13 3.66 13 4.32 13 5 C14.175625 4.6596875 14.175625 4.6596875 15.375 4.3125 C20.3566696 3.88304572 24.33349483 5.36764542 29 7 C29 7.66 29 8.32 29 9 C13.84215617 7.19183081 13.84215617 7.19183081 6.75 5.9375 C-5.89018099 3.79306348 -18.52925917 3.81371379 -31.31445312 3.81469727 C-34.46498406 3.81252415 -37.61515632 3.79435452 -40.765625 3.77539062 C-58.69720115 3.72321894 -75.99645989 4.91614269 -93.5 8.9375 C-94.6446875 9.18951172 -95.789375 9.44152344 -96.96875 9.70117188 C-104.34490206 11.33985111 -111.67876186 13.13228632 -119 15 C-119 14.34 -119 13.68 -119 13 C-118.35933594 12.81824219 -117.71867188 12.63648438 -117.05859375 12.44921875 C-113.15088807 11.31359638 -109.47552755 10.23310174 -105.8125 8.4375 C-101.09890324 6.30304109 -95.90149983 6.06122442 -90.81640625 5.46484375 C-87.59700573 5.07271615 -84.43941241 4.57866976 -81.25 4 C-64.27842278 1.14707072 -47.36239891 0.61557639 -30.1875 0.375 C-27.91600281 0.33668989 -25.64451812 0.29763138 -23.37304688 0.2578125 C-6.66994516 -0.02665453 -6.66994516 -0.02665453 0 0 Z " fill="#D6AB2D" transform="translate(271,160)"/>
<path d="M0 0 C4.95 0.33 9.9 0.66 15 1 C15 1.99 15 2.98 15 4 C16.299375 3.979375 17.59875 3.95875 18.9375 3.9375 C20.29165633 3.91600546 21.64756083 3.92851801 23 4 C23.33 4.33 23.66 4.66 24 5 C25.60753245 5.21515945 27.22312588 5.37085859 28.83984375 5.5 C29.82017578 5.5825 30.80050781 5.665 31.81054688 5.75 C33.35838867 5.87375 33.35838867 5.87375 34.9375 6 C36.96775131 6.16292926 38.99772084 6.32942106 41.02734375 6.5 C41.93218506 6.5721875 42.83702637 6.644375 43.76928711 6.71875 C46 7 46 7 48 8 C48 8.66 48 9.32 48 10 C48.98097656 9.98839844 49.96195313 9.97679687 50.97265625 9.96484375 C57.88540599 9.90955557 64.72566 9.98490732 71.625 10.5 C82.98317134 11.32561993 94.25519194 11.01540144 105.625 10.625 C106.68130615 10.59422363 107.7376123 10.56344727 108.82592773 10.53173828 C109.82438721 10.49290527 110.82284668 10.45407227 111.8515625 10.4140625 C112.74697754 10.3826416 113.64239258 10.3512207 114.56494141 10.31884766 C117.12502159 9.98362962 118.73478517 9.18819371 121 8 C124.234375 7.8046875 124.234375 7.8046875 127.75 7.875 C128.92046875 7.89304687 130.0909375 7.91109375 131.296875 7.9296875 C132.63492188 7.96449219 132.63492188 7.96449219 134 8 C134 7.34 134 6.68 134 6 C137.63 6 141.26 6 145 6 C142.57944148 8.42055852 141.37977023 8.48056296 138.046875 9.03515625 C137.03367187 9.20466797 136.02046875 9.37417969 134.9765625 9.54882812 C133.37941406 9.8030957 133.37941406 9.8030957 131.75 10.0625 C130.73164063 10.23587891 129.71328125 10.40925781 128.6640625 10.58789062 C114.54302842 12.89715748 100.51537921 13.18652025 86.24365234 13.18530273 C83.40056165 13.18748042 80.55786584 13.20568211 77.71484375 13.22460938 C60.08701886 13.28120149 43.0506792 11.81650831 25.8125 8.0625 C24.59498047 7.81048828 23.37746094 7.55847656 22.12304688 7.29882812 C5.7404369 3.82695794 5.7404369 3.82695794 0 0 Z " fill="#E4BD2B" transform="translate(153,287)"/>
<path d="M0 0 C5.67830078 -0.02464705 11.35657069 -0.04283462 17.03491211 -0.05493164 C18.96818585 -0.05997256 20.90145576 -0.06680519 22.8347168 -0.07543945 C25.60726872 -0.08751565 28.37977041 -0.09323057 31.15234375 -0.09765625 C32.45702858 -0.10539818 32.45702858 -0.10539818 33.78807068 -0.11329651 C35.85905814 -0.11349185 37.92994324 -0.06208168 40 0 C41 1 41 1 41.125 4 C41 7 41 7 40 8 C37.14122091 8.23701239 34.30116703 8.42219182 31.4375 8.5625 C30.63119141 8.60568359 29.82488281 8.64886719 28.99414062 8.69335938 C26.99631195 8.79975262 24.9981793 8.90040888 23 9 C23 7.68 23 6.36 23 5 C18.71 5 14.42 5 10 5 C10 4.34 10 3.68 10 3 C7.64828869 3.59861742 5.3140622 4.26924352 3 5 C2.67 5.66 2.34 6.32 2 7 C1.34 7 0.68 7 0 7 C0 4.69 0 2.38 0 0 Z " fill="#040303" transform="translate(220,213)"/>
<path d="M0 0 C4.62 0 9.24 0 14 0 C15.32 2.31 16.64 4.62 18 7 C17.01 7 16.02 7 15 7 C14.62875 6.175 14.2575 5.35 13.875 4.5 C13.25625 3.675 12.6375 2.85 12 2 C9.03 2 6.06 2 3 2 C3 16.52 3 31.04 3 46 C7.60532389 45.30697031 7.60532389 45.30697031 10 44 C10.02505615 43.44538086 10.0501123 42.89076172 10.07592773 42.31933594 C10.19227927 39.79601157 10.31482754 37.27302464 10.4375 34.75 C10.47681641 33.87730469 10.51613281 33.00460938 10.55664062 32.10546875 C10.59853516 31.26113281 10.64042969 30.41679687 10.68359375 29.546875 C10.73858032 28.38430176 10.73858032 28.38430176 10.79467773 27.19824219 C10.99603015 25.0425024 11.41729297 23.08198525 12 21 C12.66 21.33 13.32 21.66 14 22 C13.67 30.91 13.34 39.82 13 49 C8.71 49 4.42 49 0 49 C0 32.83 0 16.66 0 0 Z " fill="#4B3103" transform="translate(266,212)"/>
<path d="M0 0 C0 0.33 0 0.66 0 1 C-13.2 1 -26.4 1 -40 1 C-40 1.66 -40 2.32 -40 3 C-41.13179687 3.04898438 -42.26359375 3.09796875 -43.4296875 3.1484375 C-44.91148339 3.22346514 -46.393253 3.29901297 -47.875 3.375 C-48.62136719 3.4059375 -49.36773437 3.436875 -50.13671875 3.46875 C-54.53473188 3.55643831 -54.53473188 3.55643831 -58 6 C-60.57421875 6.34375 -60.57421875 6.34375 -63.6875 6.5 C-68.41126401 6.82015999 -72.47030164 7.57398385 -77 9 C-83.10304068 10.48288757 -88.7206678 11.23256786 -95 11 C-95.33 11.66 -95.66 12.32 -96 13 C-96.66 12.34 -97.32 11.68 -98 11 C-68.36416109 -3.14437766 -31.8541483 -0.64570562 0 0 Z " fill="#D7B222" transform="translate(256,174)"/>
<path d="M0 0 C3.96 0 7.92 0 12 0 C12 16.17 12 32.34 12 49 C8.04 49 4.08 49 0 49 C-0.495 47.515 -0.495 47.515 -1 46 C2.63 46.33 6.26 46.66 10 47 C10 32.15 10 17.3 10 2 C7.36 2.33 4.72 2.66 2 3 C2 9.27 2 15.54 2 22 C1.34 22 0.68 22 0 22 C0 14.74 0 7.48 0 0 Z " fill="#321C00" transform="translate(301,212)"/>
<path d="M0 0 C0 0.99 0 1.98 0 3 C0.99 3 1.98 3 3 3 C3 6.96 3 10.92 3 15 C2.67 15 2.34 15 2 15 C1.67 27.21 1.34 39.42 1 52 C0.34 52 -0.32 52 -1 52 C-1 36.16 -1 20.32 -1 4 C-4.96 4 -8.92 4 -13 4 C-12.67 3.01 -12.34 2.02 -12 1 C-10.37512529 0.83211627 -8.75009558 0.66573213 -7.125 0.5 C-6.22007812 0.4071875 -5.31515625 0.314375 -4.3828125 0.21875 C-2 0 -2 0 0 0 Z " fill="#C8A633" transform="translate(214,208)"/>
<path d="M0 0 C0.90741943 0.14219971 1.81483887 0.28439941 2.74975586 0.4309082 C15.45584139 2.25209773 28.08614814 2.2720273 40.90209961 2.20581055 C44.55915314 2.18751674 48.2159522 2.18530191 51.87304688 2.18554688 C63.95112381 2.1667983 75.95941212 2.00753692 88 1 C78.48883567 7.34077622 63.41321838 5.33805144 52.47802734 5.31567383 C49.29879314 5.31254797 46.12052366 5.33590901 42.94140625 5.36132812 C28.42870413 5.40388366 14.3482207 4.15276756 0 2 C0 1.34 0 0.68 0 0 Z " fill="#D7B02C" transform="translate(192,308)"/>
<path d="M0 0 C0.33 0 0.66 0 1 0 C1 8.58 1 17.16 1 26 C0.67 26 0.34 26 0 26 C-0.33 20.72 -0.66 15.44 -1 10 C-2.98 11.32 -4.96 12.64 -7 14 C-9.37890625 14.42578125 -9.37890625 14.42578125 -11.5625 14.3125 C-12.28566406 14.28800781 -13.00882813 14.26351562 -13.75390625 14.23828125 C-16.19061173 13.97977858 -18.59720571 13.48055886 -21 13 C-21.66 17.29 -22.32 21.58 -23 26 C-23.33 26 -23.66 26 -24 26 C-24 18.08 -24 10.16 -24 2 C-23.34 2 -22.68 2 -22 2 C-21.10398066 3.45419533 -20.25787263 4.93932662 -19.4375 6.4375 C-17.22422247 9.99013961 -17.22422247 9.99013961 -13.60546875 11.8203125 C-11.36876396 12.03869942 -9.24254324 12.12458574 -7 12 C-6.6596875 10.9790625 -6.6596875 10.9790625 -6.3125 9.9375 C-4.67589055 6.27461218 -2.55710888 3.0916961 0 0 Z " fill="#F2C41E" transform="translate(199,234)"/>
<path d="M0 0 C0.33 0 0.66 0 1 0 C1.33 15.84 1.66 31.68 2 48 C1.34 48 0.68 48 0 48 C0 48.66 0 49.32 0 50 C-13.48339483 50.79704797 -13.48339483 50.79704797 -19 46 C-20.15085507 43.27127576 -20.5547201 40.96853269 -21 38 C-19.33333333 39.66666667 -17.66666667 41.33333333 -16 43 C-15.401875 43.556875 -14.80375 44.11375 -14.1875 44.6875 C-13 46 -13 46 -13 48 C-9.04 48 -5.08 48 -1 48 C-1.00523682 46.58146729 -1.01047363 45.16293457 -1.01586914 43.70141602 C-1.03391309 38.45907213 -1.04542978 33.216731 -1.05493164 27.97436523 C-1.05997325 25.70157409 -1.06680637 23.4287862 -1.07543945 21.15600586 C-1.08751261 17.89696449 -1.09322987 14.63796583 -1.09765625 11.37890625 C-1.10281754 10.35599991 -1.10797882 9.33309357 -1.11329651 8.27919006 C-1.11340981 6.86784035 -1.11340981 6.86784035 -1.11352539 5.42797852 C-1.115746 4.59524918 -1.11796661 3.76251984 -1.12025452 2.90455627 C-1 1 -1 1 0 0 Z " fill="#EDC132" transform="translate(314,213)"/>
<path d="M0 0 C4.29 0 8.58 0 13 0 C13 16.17 13 32.34 13 49 C8.71 49 4.42 49 0 49 C0 40.42 0 31.84 0 23 C0.33 23 0.66 23 1 23 C1.33 30.26 1.66 37.52 2 45 C4.97 45.33 7.94 45.66 11 46 C11 31.48 11 16.96 11 2 C2.90795938 2.58094182 2.90795938 2.58094182 -1 4 C-0.67 2.68 -0.34 1.36 0 0 Z " fill="#291500" transform="translate(200,212)"/>
<path d="M0 0 C4.95 0.33 9.9 0.66 15 1 C15 1.99 15 2.98 15 4 C16.299375 3.979375 17.59875 3.95875 18.9375 3.9375 C20.29165633 3.91600546 21.64756083 3.92851801 23 4 C23.33 4.33 23.66 4.66 24 5 C25.5965677 5.19101992 27.20025135 5.32337812 28.8046875 5.4296875 C29.78050781 5.50316406 30.75632813 5.57664062 31.76171875 5.65234375 C33.82892354 5.8001865 35.89665332 5.94087145 37.96484375 6.07421875 C38.94324219 6.15027344 39.92164063 6.22632813 40.9296875 6.3046875 C41.82929199 6.36640137 42.72889648 6.42811523 43.65576172 6.49169922 C46.39232344 7.08506742 47.14377199 7.98640896 49 10 C52.10839021 10.7269226 52.10839021 10.7269226 55 11 C55 11.33 55 11.66 55 12 C47.13231847 12.43151825 39.68860926 10.83728909 32 9.3125 C31.31179169 9.17849792 30.62358337 9.04449585 29.91452026 8.90643311 C19.71871097 6.91417075 9.77259904 4.57959057 0 1 C0 0.67 0 0.34 0 0 Z " fill="#D3AC22" transform="translate(153,287)"/>
<path d="M0 0 C15.18 0 30.36 0 46 0 C46 3.63 46 7.26 46 11 C40.72 11 35.44 11 30 11 C30.33 10.34 30.66 9.68 31 9 C33.72265625 8.5859375 33.72265625 8.5859375 37.0625 8.375 C38.16722656 8.30023438 39.27195312 8.22546875 40.41015625 8.1484375 C41.26480469 8.09945312 42.11945313 8.05046875 43 8 C43 6.02 43 4.04 43 2 C29.47 2 15.94 2 2 2 C1.67 4.64 1.34 7.28 1 10 C5.95 10 10.9 10 16 10 C16 10.33 16 10.66 16 11 C10.72 11 5.44 11 0 11 C0 7.37 0 3.74 0 0 Z " fill="#362000" transform="translate(217,212)"/>
<path d="M0 0 C8.12387827 -0.22596218 15.75506808 0.3210683 23.75 1.75 C24.79494629 1.93191895 25.83989258 2.11383789 26.91650391 2.30126953 C41.74051022 4.94816883 55.78796909 9.06526704 70 14 C66.90163973 15.00600019 65.19987269 15.00500559 62.1640625 13.85546875 C61.43687012 13.59169434 60.70967773 13.32791992 59.96044922 13.05615234 C59.18975098 12.76949707 58.41905273 12.4828418 57.625 12.1875 C50.89806955 9.8074923 44.59173541 8.29366675 37.4765625 7.4921875 C33.64147776 6.94924292 29.97928471 6.01525001 26.25 5 C17.60457088 2.67444161 8.89983775 1.7828561 0 1 C0 0.67 0 0.34 0 0 Z " fill="#E2B92C" transform="translate(258,175)"/>
<path d="M0 0 C3.17172229 3.17172229 6.25628623 6.29992096 9.25 9.625 C9.93578125 10.38039062 10.6215625 11.13578125 11.328125 11.9140625 C13 14 13 14 14 17 C12.68 17 11.36 17 10 17 C9.67 16.34 9.34 15.68 9 15 C9.33 14.34 9.66 13.68 10 13 C9.195625 12.7525 8.39125 12.505 7.5625 12.25 C5 11 5 11 4.1875 8.875 C4.125625 8.25625 4.06375 7.6375 4 7 C3.34 7 2.68 7 2 7 C2 13.6 2 20.2 2 27 C-3.47586183 28.56453195 -6.57627762 29.22137642 -12 29 C-12.33 28.34 -12.66 27.68 -13 27 C-8.71 27 -4.42 27 0 27 C0 18.09 0 9.18 0 0 Z " fill="#EAC12D" transform="translate(279,234)"/>
<path d="M0 0 C0.66 0.33 1.32 0.66 2 1 C1.67 1.66 1.34 2.32 1 3 C0.01 3 -0.98 3 -2 3 C-2 3.66 -2 4.32 -2 5 C-2.95712891 5.16435547 -2.95712891 5.16435547 -3.93359375 5.33203125 C-4.75988281 5.49058594 -5.58617187 5.64914063 -6.4375 5.8125 C-7.26121094 5.96332031 -8.08492187 6.11414063 -8.93359375 6.26953125 C-9.61550781 6.51058594 -10.29742187 6.75164062 -11 7 C-11.33 7.99 -11.66 8.98 -12 10 C-13.98 10.33 -15.96 10.66 -18 11 C-18.0928125 11.928125 -18.0928125 11.928125 -18.1875 12.875 C-18.455625 13.57625 -18.72375 14.2775 -19 15 C-20.66072849 15.68132451 -22.327767 16.34742127 -24 17 C-25.1500831 18.96672915 -25.1500831 18.96672915 -26 21 C-29 23 -29 23 -33 23 C-33.37125 23.804375 -33.37125 23.804375 -33.75 24.625 C-35.30652537 27.5823982 -37.03435673 30.29724051 -39 33 C-39.66 33 -40.32 33 -41 33 C-39.53289058 28.15853891 -36.6487256 24.44051028 -33 21 C-32.34 21 -31.68 21 -31 21 C-30.67 20.01 -30.34 19.02 -30 18 C-29.34 18 -28.68 18 -28 18 C-28 17.34 -28 16.68 -28 16 C-25.32607506 13.90931514 -22.3415269 12.2519227 -19.4375 10.5 C-18.63763672 10.00113281 -17.83777344 9.50226563 -17.01367188 8.98828125 C-12.39995067 6.17861919 -8.27552971 4.18964965 -3 3 C-3 2.34 -3 1.68 -3 1 C-2.01 0.67 -1.02 0.34 0 0 Z " fill="#DCB72A" transform="translate(143,190)"/>
<path d="M0 0 C-7.52858373 9.89471004 -19.20107285 18.86155193 -30.6875 23.5 C-31.71746094 23.91636719 -32.74742187 24.33273437 -33.80859375 24.76171875 C-38.51146921 26.58645745 -43.24236126 28.32358792 -48 30 C-48 29.34 -48 28.68 -48 28 C-46.02 27.67 -44.04 27.34 -42 27 C-42 26.34 -42 25.68 -42 25 C-37.05 23.35 -32.1 21.7 -27 20 C-27 19.34 -27 18.68 -27 18 C-23.70450534 16.27735506 -20.66881155 14.70554068 -17 14 C-17 12.68 -17 11.36 -17 10 C-15.68 10 -14.36 10 -13 10 C-13 9.34 -13 8.68 -13 8 C-12.01 8 -11.02 8 -10 8 C-10 7.34 -10 6.68 -10 6 C-9.01 6 -8.02 6 -7 6 C-6.9175 5.21625 -6.835 4.4325 -6.75 3.625 C-6 1 -6 1 -4.0625 -0.375 C-2 -1 -2 -1 0 0 Z " fill="#D5B22B" transform="translate(369,257)"/>
<path d="M0 0 C21.12 0 42.24 0 64 0 C60.02920819 1.9853959 58.32234935 2.27633797 54.02734375 2.37890625 C52.30741211 2.43014648 52.30741211 2.43014648 50.55273438 2.48242188 C48.76319336 2.52206055 48.76319336 2.52206055 46.9375 2.5625 C44.57151213 2.6223823 42.20561517 2.68600848 39.83984375 2.75390625 C38.79175537 2.77783447 37.74366699 2.8017627 36.66381836 2.82641602 C33.89614913 2.89357822 33.89614913 2.89357822 31 4 C20.59369514 3.83817947 10.28150418 2.52154444 0 1 C0 0.67 0 0.34 0 0 Z " fill="#372402" transform="translate(202,299)"/>
<path d="M0 0 C0 0.33 0 0.66 0 1 C-1.11890625 1.07476562 -2.2378125 1.14953125 -3.390625 1.2265625 C-22.64315966 2.72938886 -41.32571577 7.23602218 -60 12 C-60 11.34 -60 10.68 -60 10 C-59.35933594 9.81824219 -58.71867188 9.63648438 -58.05859375 9.44921875 C-54.15088807 8.31359638 -50.47552755 7.23310174 -46.8125 5.4375 C-42.10198343 3.30443589 -36.91051259 3.06153024 -31.828125 2.47265625 C-28.52894731 2.0653088 -25.32254594 1.5118669 -22.0625 0.875 C-14.73808395 -0.40752429 -7.40640843 -0.16918192 0 0 Z " fill="#E2BD2B" transform="translate(212,163)"/>
<path d="M0 0 C0.99 0.33 1.98 0.66 3 1 C2.40832031 1.58265625 1.81664063 2.1653125 1.20703125 2.765625 C-6.34066479 10.59651355 -12.17768717 20.12379678 -12.09765625 31.328125 C-12.09443359 32.12734375 -12.09121094 32.9265625 -12.08789062 33.75 C-12.07951172 34.575 -12.07113281 35.4 -12.0625 36.25 C-12.05798828 37.09046875 -12.05347656 37.9309375 -12.04882812 38.796875 C-12.03707961 40.86461401 -12.01914522 42.93231624 -12 45 C-12.66 45 -13.32 45 -14 45 C-15.8624737 36.76906784 -15.78244156 28.87381093 -12.734375 20.98046875 C-11.76633881 18.36986052 -11.35306365 15.75389645 -11 13 C-10.34 13 -9.68 13 -9 13 C-8.938125 12.278125 -8.87625 11.55625 -8.8125 10.8125 C-7.74416929 7.11443214 -5.82491139 5.55587221 -3 3 C-2.401875 2.401875 -1.80375 1.80375 -1.1875 1.1875 C-0.795625 0.795625 -0.40375 0.40375 0 0 Z " fill="#E6C129" transform="translate(100,203)"/>
<path d="M0 0 C-0.37047118 2.74148672 -0.68587944 4.58593199 -2.375 6.8125 C-4 8 -4 8 -7 8 C-7.33 8.66 -7.66 9.32 -8 10 C-9.98 9.34 -11.96 8.68 -14 8 C-14 6.35 -14 4.7 -14 3 C-13.01 3 -12.02 3 -11 3 C-10.67 2.01 -10.34 1.02 -10 0 C-6.58729758 -1.51675663 -3.55830874 -0.72783588 0 0 Z " fill="#0C0602" transform="translate(114,204)"/>
<path d="M0 0 C1.65322266 0.01740234 1.65322266 0.01740234 3.33984375 0.03515625 C4.44457031 0.04417969 5.54929687 0.05320313 6.6875 0.0625 C7.54214844 0.07410156 8.39679688 0.08570313 9.27734375 0.09765625 C9.27734375 0.42765625 9.27734375 0.75765625 9.27734375 1.09765625 C5.64734375 1.09765625 2.01734375 1.09765625 -1.72265625 1.09765625 C-1.72265625 9.67765625 -1.72265625 18.25765625 -1.72265625 27.09765625 C-2.38265625 27.09765625 -3.04265625 27.09765625 -3.72265625 27.09765625 C-4.64480669 25.73150745 -5.55973383 24.35992458 -6.4375 22.96484375 C-8.87823555 19.41872949 -11.84059212 16.28735644 -14.72265625 13.09765625 C-14.06265625 12.76765625 -13.40265625 12.43765625 -12.72265625 12.09765625 C-11.73265625 12.75765625 -10.74265625 13.41765625 -9.72265625 14.09765625 C-9.72265625 14.75765625 -9.72265625 15.41765625 -9.72265625 16.09765625 C-9.06265625 16.42765625 -8.40265625 16.75765625 -7.72265625 17.09765625 C-6.70324435 18.07786 -5.70019269 19.07568633 -4.72265625 20.09765625 C-4.6976001 19.52732666 -4.67254395 18.95699707 -4.64672852 18.36938477 C-4.53109076 15.79939468 -4.40822001 13.22980098 -4.28515625 10.66015625 C-4.24583984 9.76232422 -4.20652344 8.86449219 -4.16601562 7.93945312 C-4.12412109 7.08544922 -4.08222656 6.23144531 -4.0390625 5.3515625 C-3.98407593 4.16542358 -3.98407593 4.16542358 -3.92797852 2.95532227 C-3.59437419 -0.06298371 -3.08285227 0.11057576 0 0 Z " fill="#B59827" transform="translate(302.72265625,210.90234375)"/>
<path d="M0 0 C1.40885258 0.00502467 2.81770689 0.00958587 4.2265625 0.01367188 C7.65108638 0.0253997 11.07552047 0.04181309 14.5 0.0625 C14.5 0.7225 14.5 1.3825 14.5 2.0625 C15.48742187 2.03929687 16.47484375 2.01609375 17.4921875 1.9921875 C18.77351563 1.97414062 20.05484375 1.95609375 21.375 1.9375 C23.28925781 1.90269531 23.28925781 1.90269531 25.2421875 1.8671875 C28.5 2.0625 28.5 2.0625 30.5 4.0625 C29.61828125 4.00191406 28.7365625 3.94132813 27.828125 3.87890625 C10.74028375 2.78926587 -6.3857185 2.4929174 -23.5 2.0625 C-23.5 1.7325 -23.5 1.4025 -23.5 1.0625 C-15.69196105 -0.21536205 -7.88637319 -0.04908147 0 0 Z " fill="#3C2601" transform="translate(243.5,171.9375)"/>
<path d="M0 0 C6.75 -0.125 6.75 -0.125 9 1 C11.82133774 1.23511148 14.64124555 1.38206228 17.46875 1.5234375 C18.72171875 1.75933594 18.72171875 1.75933594 20 2 C20.99 3.485 20.99 3.485 22 5 C24.40972598 6.01324326 24.40972598 6.01324326 27.125 6.6875 C28.03507812 6.93886719 28.94515625 7.19023437 29.8828125 7.44921875 C30.58148438 7.63097656 31.28015625 7.81273437 32 8 C32 8.66 32 9.32 32 10 C33.98 10.33 35.96 10.66 38 11 C38.495 12.485 38.495 12.485 39 14 C34.05201231 12.43313723 29.30967617 10.72382126 24.5625 8.625 C16.63090249 5.24044023 8.32553183 3.17388887 0 1 C0 0.67 0 0.34 0 0 Z " fill="#D7B230" transform="translate(302,169)"/>
<path d="M0 0 C0.33 0.66 0.66 1.32 1 2 C0.33333333 3.33333333 -0.33333333 4.66666667 -1 6 C-1.38290462 7.99110401 -1.72604615 9.99100513 -2 12 C-2.66 12 -3.32 12 -4 12 C-4.66 13.32 -5.32 14.64 -6 16 C-6.99 16 -7.98 16 -9 16 C-9 16.99 -9 17.98 -9 19 C-11.70879335 20.35439668 -14.00933268 20.06501451 -17 20 C-16.360625 19.38125 -15.72125 18.7625 -15.0625 18.125 C-12.42747423 15.48242401 -9.89398193 12.75321027 -7.375 10 C-6.24191406 8.7625 -6.24191406 8.7625 -5.0859375 7.5 C-3.08983721 5.10767006 -1.52126502 2.71308411 0 0 Z " fill="#EDBB22" transform="translate(381,257)"/>
<path d="M0 0 C0.33 0 0.66 0 1 0 C1 1.65 1 3.3 1 5 C1.7425 4.979375 2.485 4.95875 3.25 4.9375 C5.70462279 4.99328688 7.66109261 5.3069904 10 6 C8.35 7.98 6.7 9.96 5 12 C4.67 11.01 4.34 10.02 4 9 C3.21625 8.855625 2.4325 8.71125 1.625 8.5625 C-1 8 -1 8 -3 7 C-3.33 7.99 -3.66 8.98 -4 10 C-4.66 10 -5.32 10 -6 10 C-5.67 10.99 -5.34 11.98 -5 13 C-5.99 13.33 -6.98 13.66 -8 14 C-7.46351765 9.80500604 -6.14637983 7.45751442 -3.5 4.1875 C-2.8709375 3.39730469 -2.241875 2.60710937 -1.59375 1.79296875 C-0.80484375 0.90544922 -0.80484375 0.90544922 0 0 Z " fill="#241503" transform="translate(99,207)"/>
<path d="M0 0 C-2.54593308 2.54593308 -5.4810093 3.78265724 -8.6875 5.3125 C-13.83775345 7.81343261 -18.423221 10.56741575 -23 14 C-23.66 14 -24.32 14 -25 14 C-25.33 14.66 -25.66 15.32 -26 16 C-25.67 14.35 -25.34 12.7 -25 11 C-23.35 10.67 -21.7 10.34 -20 10 C-19.8453125 9.1028125 -19.8453125 9.1028125 -19.6875 8.1875 C-18.87678951 5.60796663 -18.15744833 4.61808625 -16 3 C-13.6875 2.4375 -13.6875 2.4375 -11 2 C-9.515 1.4740625 -9.515 1.4740625 -8 0.9375 C-5.12368091 0.03865029 -2.98448875 -0.17555816 0 0 Z " fill="#1F1002" transform="translate(140,192)"/>
<path d="M0 0 C3.73487777 0.4979837 5.81237635 0.87491756 9 3 C11.32108669 3.70812814 13.65377147 4.38024152 16 5 C16 5.99 16 6.98 16 8 C16.969375 8.28875 17.93875 8.5775 18.9375 8.875 C22 10 22 10 23 12 C23.99 12.33 24.98 12.66 26 13 C26.33 14.65 26.66 16.3 27 18 C18.62408759 12.52554745 18.62408759 12.52554745 15.625 10 C12.12300504 7.33181337 8.32229168 5.40244193 4.42578125 3.3671875 C2 2 2 2 0 0 Z " fill="#D3B230" transform="translate(342,183)"/>
<path d="M0 0 C0.33 0 0.66 0 1 0 C1 8.58 1 17.16 1 26 C0.67 26 0.34 26 0 26 C-0.33 20.72 -0.66 15.44 -1 10 C-3.475 11.485 -3.475 11.485 -6 13 C-8.45703125 13.29296875 -8.45703125 13.29296875 -10.8125 13.1875 C-11.60269531 13.16042969 -12.39289063 13.13335937 -13.20703125 13.10546875 C-13.79871094 13.07066406 -14.39039063 13.03585938 -15 13 C-15 12.67 -15 12.34 -15 12 C-12.36 12 -9.72 12 -7 12 C-6.6596875 10.9790625 -6.6596875 10.9790625 -6.3125 9.9375 C-4.67589055 6.27461218 -2.55710888 3.0916961 0 0 Z " fill="#CBA72C" transform="translate(199,234)"/>
<path d="M0 0 C0.99 0 1.98 0 3 0 C3 15.84 3 31.68 3 48 C2.67 48 2.34 48 2 48 C2 35.79 2 23.58 2 11 C1.34 11 0.68 11 0 11 C0 7.37 0 3.74 0 0 Z " fill="#ECC537" transform="translate(263,212)"/>
<path d="M0 0 C1.5415636 -0.02741912 3.08327474 -0.04658248 4.625 -0.0625 C5.48351562 -0.07410156 6.34203125 -0.08570313 7.2265625 -0.09765625 C10 0 10 0 12.8359375 0.4765625 C17.22928456 1.20336312 21.63542957 1.34638403 26.078125 1.51757812 C30.37105547 1.73468243 33.99115714 2.45283721 38 4 C38 4.33 38 4.66 38 5 C30.23151047 5.18903293 22.75774397 4.6704675 15.0625 3.625 C14.04865234 3.49867188 13.03480469 3.37234375 11.99023438 3.2421875 C11.01505859 3.11328125 10.03988281 2.984375 9.03515625 2.8515625 C8.1625415 2.73635254 7.28992676 2.62114258 6.39086914 2.50244141 C3.97751852 1.99527551 2.14169427 1.20317114 0 0 Z " fill="#3D2703" transform="translate(182,306)"/>
<path d="M0 0 C5.42661145 4.65138124 8.40919159 10.91029906 9 18 C9.17519403 22.0931696 9.31156262 26.06531213 8 30 C7.34 30 6.68 30 6 30 C6.06960938 29.15179688 6.13921875 28.30359375 6.2109375 27.4296875 C6.62515436 18.45498889 5.18151557 12.75442566 1.3125 4.765625 C0 2 0 2 0 0 Z " fill="#C8AD29" transform="translate(367,216)"/>
<path d="M0 0 C3.96 0 7.92 0 12 0 C12 0.66 12 1.32 12 2 C12.78375 1.773125 13.5675 1.54625 14.375 1.3125 C19.3566696 0.88304572 23.33349483 2.36764542 28 4 C28 4.66 28 5.32 28 6 C18.62420318 4.88156738 9.29969612 3.65562772 0 2 C0 1.34 0 0.68 0 0 Z " fill="#DEB329" transform="translate(272,163)"/>
<path d="M0 0 C12.1461869 -0.30535107 23.93908911 0.61596105 36 2 C36 2.33 36 2.66 36 3 C32.39585115 3.02953103 28.79173424 3.04697407 25.1875 3.0625 C24.18267578 3.07087891 23.17785156 3.07925781 22.14257812 3.08789062 C7.98023061 3.13342872 7.98023061 3.13342872 2 2 C1.34 1.34 0.68 0.68 0 0 Z " fill="#2C1701" transform="translate(244,163)"/>
<path d="M0 0 C0 0.66 0 1.32 0 2 C-0.99 2 -1.98 2 -3 2 C-3.309375 2.804375 -3.61875 3.60875 -3.9375 4.4375 C-5 7 -5 7 -6 8 C-7.010625 8.12375 -8.02125 8.2475 -9.0625 8.375 C-12.80586169 8.9691844 -15.6783406 9.95494552 -19.10546875 11.4765625 C-21.40639966 12.11228362 -22.76348212 11.74385295 -25 11 C-23.92621094 10.54109375 -22.85242188 10.0821875 -21.74609375 9.609375 C-20.30980296 8.98979858 -18.87361026 8.36999474 -17.4375 7.75 C-16.73302734 7.44964844 -16.02855469 7.14929688 -15.30273438 6.83984375 C-11.78062008 5.31413525 -8.40846607 3.71245328 -5.09765625 1.765625 C-2 0 -2 0 0 0 Z " fill="#E2BD28" transform="translate(355,284)"/>
<path d="M0 0 C0 0.66 0 1.32 0 2 C-2.64 2 -5.28 2 -8 2 C-8 2.99 -8 3.98 -8 5 C-13.08086796 5.84681133 -17.84828377 6.09038099 -23 6 C-23.33 6.66 -23.66 7.32 -24 8 C-24.66 7.34 -25.32 6.68 -26 6 C-17.88425466 2.12657609 -9.05657224 -0.61749356 0 0 Z " fill="#D1AC2C" transform="translate(184,179)"/>
<path d="M0 0 C3.63 0 7.26 0 11 0 C8.51925313 2.48074687 7.12295995 2.52754814 3.6953125 3.10546875 C2.10783203 3.37327148 2.10783203 3.37327148 0.48828125 3.64648438 C-1.17654297 3.91428711 -1.17654297 3.91428711 -2.875 4.1875 C-3.97714844 4.37763672 -5.07929688 4.56777344 -6.21484375 4.76367188 C-7.27574219 4.93833984 -8.33664062 5.11300781 -9.4296875 5.29296875 C-10.40147949 5.4530542 -11.37327148 5.61313965 -12.37451172 5.77807617 C-14.90391824 5.99187853 -16.60864962 5.78780964 -19 5 C-13.10104429 0.9550018 -6.92696672 1.72251024 0 2 C0 1.34 0 0.68 0 0 Z " fill="#DEB628" transform="translate(287,293)"/>
<path d="M0 0 C0.99 0 1.98 0 3 0 C1.48103632 4.43170173 -0.92639809 8.03024076 -3.625 11.8125 C-4.04523438 12.40998047 -4.46546875 13.00746094 -4.8984375 13.62304688 C-5.92779728 15.08520565 -6.9632823 16.54304899 -8 18 C-11.24594592 14.8390543 -13.83125797 11.9950511 -16 8 C-14.125 8.1875 -14.125 8.1875 -12 9 C-10.75 11.5625 -10.75 11.5625 -10 14 C-9.01 13.67 -8.02 13.34 -7 13 C-6.32558869 11.3364521 -5.6599679 9.66933058 -5 8 C-3 6 -3 6 -1 4 C-0.2127322 1.8618034 -0.2127322 1.8618034 0 0 Z " fill="#E2BE30" transform="translate(197,212)"/>
<path d="M0 0 C2.31 0.66 4.62 1.32 7 2 C7.33 3.98 7.66 5.96 8 8 C6.62437146 6.71034824 5.29233607 5.37310707 4 4 C4 3.34 4 2.68 4 2 C3.34 2 2.68 2 2 2 C2 10.58 2 19.16 2 28 C-1.63 28 -5.26 28 -9 28 C-9 27.67 -9 27.34 -9 27 C-5.7 27 -2.4 27 1 27 C0.67 18.09 0.34 9.18 0 0 Z " fill="#150600" transform="translate(172,232)"/>
<path d="M0 0 C4.29 0 8.58 0 13 0 C14.32 2.31 15.64 4.62 17 7 C16.01 7 15.02 7 14 7 C13.62875 6.175 13.2575 5.35 12.875 4.5 C12.25625 3.675 11.6375 2.85 11 2 C8.03 2 5.06 2 2 2 C1.67 9.92 1.34 17.84 1 26 C0.67 26 0.34 26 0 26 C0 17.42 0 8.84 0 0 Z " fill="#251100" transform="translate(267,212)"/>
<path d="M0 0 C2 2 2 2 3.25 5.0625 C6.18078595 12.16743563 10.98392973 18.24627234 16 24 C15.34 24.33 14.68 24.66 14 25 C14 24.34 14 23.68 14 23 C12.35 22.67 10.7 22.34 9 22 C8.34 19.69 7.68 17.38 7 15 C6.34 15 5.68 15 5 15 C4.67 13.35 4.34 11.7 4 10 C3.34 10 2.68 10 2 10 C0.68373308 6.38026598 0 3.90432869 0 0 Z " fill="#D8B835" transform="translate(88,248)"/>
<path d="M0 0 C-2.86238617 1.52966968 -5.62917381 2.55790408 -8.75 3.4375 C-12.04521938 4.39150738 -15.24357753 5.43590746 -18.4375 6.6875 C-22 8 -22 8 -25 8 C-24.67 6.68 -24.34 5.36 -24 4 C-22.948125 4.0825 -21.89625 4.165 -20.8125 4.25 C-16.97702555 4.39735666 -16.97702555 4.39735666 -14.8125 2 C-10.30002398 -1.20887184 -5.36762643 -0.30818908 0 0 Z " fill="#1F0C00" transform="translate(174,180)"/>
<path d="M0 0 C5.86262876 0.87039028 11.6036383 2.23322508 17.375 3.5625 C18.90833984 3.91344727 18.90833984 3.91344727 20.47265625 4.27148438 C22.98213566 4.8460848 25.49123214 5.42230225 28 6 C28 6.33 28 6.66 28 7 C26.41676312 7.027193 24.83338938 7.04648306 23.25 7.0625 C21.92742187 7.07990234 21.92742187 7.07990234 20.578125 7.09765625 C18.2181162 7.00826198 16.25501476 6.66912821 14 6 C14 5.34 14 4.68 14 4 C13.15695313 3.96261719 12.31390625 3.92523438 11.4453125 3.88671875 C10.34960938 3.82097656 9.25390625 3.75523437 8.125 3.6875 C6.48917969 3.60048828 6.48917969 3.60048828 4.8203125 3.51171875 C3.88960937 3.34285156 2.95890625 3.17398437 2 3 C1.34 2.01 0.68 1.02 0 0 Z " fill="#DBB62F" transform="translate(154,300)"/>
<path d="M0 0 C8.80171974 0.61358142 17.35954742 2.29549385 26 4 C26 4.33 26 4.66 26 5 C20.72 5 15.44 5 10 5 C10 4.34 10 3.68 10 3 C8.906875 3.061875 7.81375 3.12375 6.6875 3.1875 C3 3 3 3 1.26953125 1.48828125 C0.64111328 0.75158203 0.64111328 0.75158203 0 0 Z " fill="#1F0900" transform="translate(174,294)"/>
<path d="M0 0 C0.66 0 1.32 0 2 0 C2.19335938 0.94101563 2.38671875 1.88203125 2.5859375 2.8515625 C2.84632812 4.09679687 3.10671875 5.34203125 3.375 6.625 C3.63023438 7.85476562 3.88546875 9.08453125 4.1484375 10.3515625 C4.92022273 13.65820196 5.86819375 16.80141713 7 20 C6.01 19.67 5.02 19.34 4 19 C3.67 17.35 3.34 15.7 3 14 C2.34 14 1.68 14 1 14 C-0.38226016 11.23547967 -0.09525387 8.9538637 -0.0625 5.875 C-0.05347656 4.77929688 -0.04445313 3.68359375 -0.03515625 2.5546875 C-0.02355469 1.71164063 -0.01195313 0.86859375 0 0 Z " fill="#291402" transform="translate(96,234)"/>
<path d="M0 0 C2.54194161 0.14188985 5.08347993 0.28839155 7.625 0.4375 C8.69427734 0.49647461 8.69427734 0.49647461 9.78515625 0.55664062 C13.91803682 0.80309681 17.92269024 1.23470053 22 2 C22 2.66 22 3.32 22 4 C24.64 4 27.28 4 30 4 C30 4.33 30 4.66 30 5 C28.02090602 5.02686553 26.04171029 5.04633375 24.0625 5.0625 C22.96035156 5.07410156 21.85820312 5.08570313 20.72265625 5.09765625 C18 5 18 5 17 4 C14.14471393 3.599617 11.30263513 3.2481773 8.4375 2.9375 C7.63119141 2.84662109 6.82488281 2.75574219 5.99414062 2.66210938 C3.99652623 2.43752551 1.9983144 2.21826764 0 2 C0 1.34 0 0.68 0 0 Z " fill="#F3C320" transform="translate(170,306)"/>
<path d="M0 0 C1.98 0 3.96 0 6 0 C6.33 0.99 6.66 1.98 7 3 C7.66 3 8.32 3 9 3 C9 3.66 9 4.32 9 5 C9.99 5 10.98 5 12 5 C12 5.66 12 6.32 12 7 C12.61875 7.12375 13.2375 7.2475 13.875 7.375 C16 8 16 8 18 10 C17.01 10.495 17.01 10.495 16 11 C13.3203125 9.70703125 13.3203125 9.70703125 10.125 7.8125 C9.07570313 7.20019531 8.02640625 6.58789062 6.9453125 5.95703125 C4.25785333 4.17133226 2.17396812 2.36825996 0 0 Z " fill="#E0B628" transform="translate(117,268)"/>
<path d="M0 0 C3.3 0 6.6 0 10 0 C10.33 2.31 10.66 4.62 11 7 C10.34 6.34 9.68 5.68 9 5 C5.87803664 4.53513282 5.87803664 4.53513282 2.375 4.375 C1.18648437 4.30023438 -0.00203125 4.22546875 -1.2265625 4.1484375 C-2.14179688 4.09945312 -3.05703125 4.05046875 -4 4 C-2.68 3.67 -1.36 3.34 0 3 C0 2.01 0 1.02 0 0 Z " fill="#E2B11A" transform="translate(166,208)"/>
<path d="M0 0 C-0.0625 1.75 -0.0625 1.75 -1 4 C-2.74595465 5.03463979 -4.49831556 6.06315554 -6.3046875 6.98828125 C-8.19352403 7.95516924 -8.19352403 7.95516924 -9.5 10.1875 C-11 12 -11 12 -14.6875 12.75 C-15.780625 12.8325 -16.87375 12.915 -18 13 C-16.21677495 11.01863884 -14.4929109 9.66578218 -12.25 8.1875 C-9.07814829 6.05259981 -6.33597021 3.73813506 -3.515625 1.171875 C-2 0 -2 0 0 0 Z " fill="#302003" transform="translate(363,264)"/>
<path d="M0 0 C0 0.99 0 1.98 0 3 C-1.00160156 3.13277344 -2.00320312 3.26554688 -3.03515625 3.40234375 C-4.37760654 3.58071127 -5.72005433 3.7590977 -7.0625 3.9375 C-7.71927734 4.02451172 -8.37605469 4.11152344 -9.05273438 4.20117188 C-13.37231192 4.77569697 -17.68707577 5.37745827 -22 6 C-18.64153509 3.7610234 -15.41108679 2.87127846 -11.5625 1.875 C-10.89412109 1.69324219 -10.22574219 1.51148438 -9.53710938 1.32421875 C-6.2051237 0.44581618 -3.47463228 0 0 0 Z " fill="#3D2903" transform="translate(176,169)"/>
<path d="M0 0 C0 0.99 0 1.98 0 3 C0.99 3.33 1.98 3.66 3 4 C-2.28 4 -7.56 4 -13 4 C-12.67 3.01 -12.34 2.02 -12 1 C-10.37512529 0.83211627 -8.75009558 0.66573213 -7.125 0.5 C-6.22007812 0.4071875 -5.31515625 0.314375 -4.3828125 0.21875 C-2 0 -2 0 0 0 Z " fill="#E2BA1C" transform="translate(214,208)"/>
<path d="M0 0 C-4.10037573 5.24972347 -8.52964787 9.20962911 -14 13 C-14.33 12.34 -14.66 11.68 -15 11 C-14.34 11 -13.68 11 -13 11 C-13 10.01 -13 9.02 -13 8 C-12.01 8 -11.02 8 -10 8 C-10 7.34 -10 6.68 -10 6 C-9.01 6 -8.02 6 -7 6 C-6.9175 5.21625 -6.835 4.4325 -6.75 3.625 C-6 1 -6 1 -4.0625 -0.375 C-2 -1 -2 -1 0 0 Z " fill="#E1B737" transform="translate(369,257)"/>
<path d="M0 0 C1.32 0 2.64 0 4 0 C4.33 1.65 4.66 3.3 5 5 C5.99 5 6.98 5 8 5 C10.1875 6.6875 10.1875 6.6875 12 9 C12.25 11.75 12.25 11.75 12 14 C7.76014063 9.88862122 3.72154258 5.59026002 0 1 C0 0.67 0 0.34 0 0 Z " fill="#2B1802" transform="translate(280,234)"/>
<path d="M0 0 C4.29 0 8.58 0 13 0 C12.67 3.96 12.34 7.92 12 12 C11.67 12 11.34 12 11 12 C11 8.7 11 5.4 11 2 C9.576875 2.144375 8.15375 2.28875 6.6875 2.4375 C5.88699219 2.51871094 5.08648437 2.59992188 4.26171875 2.68359375 C1.83912821 2.95265693 1.83912821 2.95265693 -1 4 C-0.67 2.68 -0.34 1.36 0 0 Z " fill="#1A0A00" transform="translate(200,212)"/>
<path d="M0 0 C11.10623003 0.62539936 11.10623003 0.62539936 15 4 C15 4.99 15 5.98 15 7 C9.76727367 5.36041242 4.84803364 3.61047965 0 1 C0 0.67 0 0.34 0 0 Z " fill="#E1BA24" transform="translate(135,279)"/>
<path d="M0 0 C1.7936743 1.1217963 3.5848773 2.24754483 5.375 3.375 C6.37273437 4.00148438 7.37046875 4.62796875 8.3984375 5.2734375 C11 7 11 7 13 9 C9.7 9 6.4 9 3 9 C3.33 7.35 3.66 5.7 4 4 C2.68 3.34 1.36 2.68 0 2 C0 1.34 0 0.68 0 0 Z " fill="#D5BA26" transform="translate(108,276)"/>
<path d="M0 0 C-7.92 3.96 -7.92 3.96 -16 8 C-16 7.01 -16 6.02 -16 5 C-11.33325247 0.33325247 -6.44898501 -1.61224625 0 0 Z " fill="#DFBC2A" transform="translate(136,182)"/>
<path d="M0 0 C0 0.33 0 0.66 0 1 C-18.82004556 3.11161731 -18.82004556 3.11161731 -28 4 C-18.49378579 -0.92516528 -10.59539095 -1.26717212 0 0 Z " fill="#231400" transform="translate(220,173)"/>
<path d="M0 0 C0.66 0 1.32 0 2 0 C2.66 2.31 3.32 4.62 4 7 C2.68 6.67 1.36 6.34 0 6 C0 6.99 0 7.98 0 9 C-1.32 8.67 -2.64 8.34 -4 8 C-4 6.35 -4 4.7 -4 3 C-3.01 3 -2.02 3 -1 3 C-0.67 2.01 -0.34 1.02 0 0 Z " fill="#010605" transform="translate(104,204)"/>
<path d="M0 0 C2.27485877 0.92857511 4.54454443 1.86733231 6.8125 2.8125 C7.77639648 3.20405273 7.77639648 3.20405273 8.75976562 3.60351562 C12.05404097 4.98608714 14.72685392 6.18603106 17 9 C13.37471432 9.20140476 11.13498292 8.85776765 8 7 C8 6.34 8 5.68 8 5 C6.8553125 4.814375 6.8553125 4.814375 5.6875 4.625 C3 4 3 4 0 2 C0 1.34 0 0.68 0 0 Z " fill="#E5BD2A" transform="translate(329,190)"/>
<path d="M0 0 C0 0.33 0 0.66 0 1 C-0.99580078 1.09087891 -0.99580078 1.09087891 -2.01171875 1.18359375 C-2.89472656 1.26738281 -3.77773437 1.35117188 -4.6875 1.4375 C-5.99267578 1.55931641 -5.99267578 1.55931641 -7.32421875 1.68359375 C-9.97647192 1.94798196 -9.97647192 1.94798196 -12.4375 2.5625 C-15.51757507 3.08836648 -18.20709435 2.86962803 -21.3125 2.5625 C-22.38113281 2.46066406 -23.44976562 2.35882813 -24.55078125 2.25390625 C-25.35902344 2.17011719 -26.16726562 2.08632812 -27 2 C-27 1.67 -27 1.34 -27 1 C-17.98185679 -0.14516104 -9.0719352 -0.09471858 0 0 Z " fill="#3E2002" transform="translate(229,163)"/>
<path d="M0 0 C5.28 0 10.56 0 16 0 C16 0.66 16 1.32 16 2 C11.02718335 3.89440634 6.69880594 5.13633934 1.625 3 C0.820625 2.505 0.820625 2.505 0 2 C0 1.34 0 0.68 0 0 Z " fill="#EDC825" transform="translate(232,260)"/>
<path d="M0 0 C2.41696872 -0.05411124 4.83271787 -0.09372278 7.25 -0.125 C7.93191406 -0.14175781 8.61382812 -0.15851563 9.31640625 -0.17578125 C16.12577991 -0.24189167 16.12577991 -0.24189167 19 2 C19.75 5.625 19.75 5.625 20 9 C15.125 4.375 15.125 4.375 14 1 C9.38 1 4.76 1 0 1 C0 0.67 0 0.34 0 0 Z " fill="#D2AF20" transform="translate(266,211)"/>
<path d="M0 0 C0.33 0 0.66 0 1 0 C1 5.28 1 10.56 1 16 C1.66 16 2.32 16 3 16 C4.66670026 19.52948291 5.13583456 21.28272326 4 25 C-1.33574171 17.16312937 -0.37245444 9.10444175 0 0 Z " fill="#EAC02B" transform="translate(100,231)"/>
<path d="M0 0 C3.73487777 0.4979837 5.81237635 0.87491756 9 3 C11.32108669 3.70812814 13.65377147 4.38024152 16 5 C14.3125 6.125 14.3125 6.125 12 7 C7.6709907 5.82999749 3.84423656 3.26131562 0 1 C0 0.67 0 0.34 0 0 Z " fill="#D0AD25" transform="translate(342,183)"/>
<path d="M0 0 C1.32 0.66 2.64 1.32 4 2 C3.32453125 2.39832031 2.6490625 2.79664063 1.953125 3.20703125 C0.61507812 4.00173828 0.61507812 4.00173828 -0.75 4.8125 C-1.63171875 5.33457031 -2.5134375 5.85664063 -3.421875 6.39453125 C-5.71972797 7.82546696 -7.86506946 9.33894423 -10 11 C-9.8125 9.1875 -9.8125 9.1875 -9 7 C-7.36935236 5.94228261 -5.69719127 4.94726954 -4 4 C-2.63015802 2.70420353 -1.2848951 1.38007251 0 0 Z " fill="#E2BB28" transform="translate(116,189)"/>
<path d="M0 0 C5.54436129 1.28708387 10.70201036 2.91864693 16 5 C14.68 5.99 13.36 6.98 12 8 C11.566875 7.525625 11.13375 7.05125 10.6875 6.5625 C7.71099957 3.80648108 4.86163376 3.89563152 1 4 C0.67 2.68 0.34 1.36 0 0 Z " fill="#301E02" transform="translate(320,175)"/>
<path d="M0 0 C4.23905246 3.94670401 6.89529124 6.87092191 7.1875 12.8125 C7.125625 13.864375 7.06375 14.91625 7 16 C4.64917788 13.10357159 3.16480594 10.34643669 1.8125 6.875 C1.46832031 6.00617188 1.12414062 5.13734375 0.76953125 4.2421875 C0 2 0 2 0 0 Z " fill="#DFBC28" transform="translate(367,216)"/>
<path d="M0 0 C4.29 0.99 8.58 1.98 13 3 C13 3.33 13 3.66 13 4 C7.16605611 5.10643764 4.23420787 5.27137992 -1 2 C-0.67 1.34 -0.34 0.68 0 0 Z " fill="#271304" transform="translate(151,287)"/>
<path d="M0 0 C3.26008643 3.16952847 6.22237877 6.39937989 9 10 C7.68 10.33 6.36 10.66 5 11 C4.67 10.34 4.34 9.68 4 9 C4.33 8.34 4.66 7.68 5 7 C2.525 6.01 2.525 6.01 0 5 C0 3.35 0 1.7 0 0 Z " fill="#D8B226" transform="translate(284,240)"/>
<path d="M0 0 C8.6309795 3.85421412 8.6309795 3.85421412 11 8 C8.69 7.67 6.38 7.34 4 7 C4 5.68 4 4.36 4 3 C3.01 3.33 2.02 3.66 1 4 C0.67 2.68 0.34 1.36 0 0 Z " fill="#D9AC25" transform="translate(347,199)"/>
<path d="M0 0 C3.3 0 6.6 0 10 0 C10 0.66 10 1.32 10 2 C10.99 2 11.98 2 13 2 C13.33 2.99 13.66 3.98 14 5 C12.22739369 4.54857225 10.4569632 4.08859477 8.6875 3.625 C7.20830078 3.24214844 7.20830078 3.24214844 5.69921875 2.8515625 C3 2 3 2 0 0 Z " fill="#3A2304" transform="translate(310,183)"/>
<path d="M0 0 C4.95 1.98 9.9 3.96 15 6 C13.02 6.99 13.02 6.99 11 8 C8.5625 6.75 8.5625 6.75 6 5 C5.0925 4.67 4.185 4.34 3.25 4 C2.13625 3.505 2.13625 3.505 1 3 C0.67 2.01 0.34 1.02 0 0 Z " fill="#E2B72D" transform="translate(129,289)"/>
<path d="M0 0 C0.66 0 1.32 0 2 0 C3.2890625 1.53125 3.2890625 1.53125 4.625 3.5 C5.07101563 4.1496875 5.51703125 4.799375 5.9765625 5.46875 C6.31429687 5.9740625 6.65203125 6.479375 7 7 C6.01 7 5.02 7 4 7 C3.34 6.34 2.68 5.68 2 5 C1.67 7.31 1.34 9.62 1 12 C0.67 12 0.34 12 0 12 C0 8.04 0 4.08 0 0 Z " fill="#DFBA35" transform="translate(175,236)"/>
<path d="M0 0 C0.80566406 0.07863281 1.61132812 0.15726563 2.44140625 0.23828125 C3.42947266 0.46064453 3.42947266 0.46064453 4.4375 0.6875 C4.7675 1.3475 5.0975 2.0075 5.4375 2.6875 C1.4775 2.6875 -2.4825 2.6875 -6.5625 2.6875 C-6.5625 2.0275 -6.5625 1.3675 -6.5625 0.6875 C-4.07849398 -0.55450301 -2.74042364 -0.29471651 0 0 Z " fill="#F1C81E" transform="translate(306.5625,208.3125)"/>
<path d="M0 0 C0 0.66 0 1.32 0 2 C2.475 2.99 2.475 2.99 5 4 C1.92478317 5.53760842 -0.34675118 4.36599236 -3.625 3.5625 C-4.81351562 3.27503906 -6.00203125 2.98757812 -7.2265625 2.69140625 C-8.14179688 2.46324219 -9.05703125 2.23507813 -10 2 C-10 1.67 -10 1.34 -10 1 C-6.56484998 0.37542727 -3.50935186 0 0 0 Z " fill="#351E01" transform="translate(304,178)"/>
<path d="M0 0 C-2.98440561 1.54078615 -6.01007758 2.86973276 -9.125 4.125 C-9.99382812 4.47820312 -10.86265625 4.83140625 -11.7578125 5.1953125 C-14 6 -14 6 -16 6 C-16 5.34 -16 4.68 -16 4 C-10.45108785 1.18150494 -6.258654 -0.5326514 0 0 Z " fill="#E5BA26" transform="translate(152,175)"/>
<path d="M0 0 C-3.11910856 1.79275866 -5.67682428 2.34290718 -9.25 2.625 C-10.14203125 2.69976562 -11.0340625 2.77453125 -11.953125 2.8515625 C-12.62859375 2.90054687 -13.3040625 2.94953125 -14 3 C-8.63430379 -1.11370042 -6.60960038 -0.95945812 0 0 Z " fill="#D9AF1F" transform="translate(282,296)"/>
<path d="M0 0 C-2.97 0.66 -5.94 1.32 -9 2 C-9 2.66 -9 3.32 -9 4 C-12.87493656 5.07637127 -14.52452927 4.94566951 -18 3 C-15.75376301 2.30030318 -13.50283586 1.61564957 -11.25 0.9375 C-9.99703125 0.55464844 -8.7440625 0.17179687 -7.453125 -0.22265625 C-4 -1 -4 -1 0 0 Z " fill="#4C3607" transform="translate(320,289)"/>
<path d="M0 0 C1.57169068 2.45183745 2.0542179 3.61213349 1.64453125 6.54296875 C1.36996094 7.41566406 1.09539062 8.28835937 0.8125 9.1875 C0.55082031 10.06792969 0.28914063 10.94835937 0.01953125 11.85546875 C-0.31691406 12.56316406 -0.65335937 13.27085937 -1 14 C-1.99 14.33 -2.98 14.66 -4 15 C-3.79503906 14.41992188 -3.59007812 13.83984375 -3.37890625 13.2421875 C-1.85990187 8.8378016 -0.5952849 4.64322223 0 0 Z " fill="#D3AC29" transform="translate(386,242)"/>
<path d="M0 0 C3.63 0.66 7.26 1.32 11 2 C9 4 9 4 6.0625 4.25 C3 4 3 4 0 2 C0 1.34 0 0.68 0 0 Z " fill="#2C1703" transform="translate(309,172)"/>
<path d="M0 0 C4.3177458 0.50797009 8.03302114 1.19682779 12 3 C12 3.66 12 4.32 12 5 C9.36 4.67 6.72 4.34 4 4 C4 3.34 4 2.68 4 2 C2.68 2 1.36 2 0 2 C0 1.34 0 0.68 0 0 Z " fill="#E4C01B" transform="translate(288,164)"/>
<path d="M0 0 C0.33 1.32 0.66 2.64 1 4 C-7.57142857 3.14285714 -7.57142857 3.14285714 -11 1 C-7.26562152 0.12132271 -3.83225427 -0.08912219 0 0 Z " fill="#F4C61C" transform="translate(271,160)"/>
<path d="M0 0 C3.3 0.99 6.6 1.98 10 3 C9.01 3.66 8.02 4.32 7 5 C7 4.34 7 3.68 7 3 C4.69 3.33 2.38 3.66 0 4 C0 2.68 0 1.36 0 0 Z " fill="#DAB929" transform="translate(144,296)"/>
<path d="M0 0 C0.99 0.33 1.98 0.66 3 1 C3 6.28 3 11.56 3 17 C2.67 17 2.34 17 2 17 C1.34 11.39 0.68 5.78 0 0 Z " fill="#E6BD2F" transform="translate(385,224)"/>
<path d="M0 0 C0.33 0.66 0.66 1.32 1 2 C-0.11678083 3.6721852 -1.24366352 5.33762803 -2.375 7 C-3.00148438 7.928125 -3.62796875 8.85625 -4.2734375 9.8125 C-4.84320313 10.534375 -5.41296875 11.25625 -6 12 C-6.66 12 -7.32 12 -8 12 C-6.49087042 7.01987239 -3.44338151 3.75740058 0 0 Z " fill="#CCA83A" transform="translate(110,211)"/>
<path d="M0 0 C4.29 0 8.58 0 13 0 C9.2311658 1.8844171 7.31987525 2.33429462 3.25 2.625 C2.26515625 2.69976562 1.2803125 2.77453125 0.265625 2.8515625 C-0.48203125 2.90054688 -1.2296875 2.94953125 -2 3 C-1.34 2.67 -0.68 2.34 0 2 C0 1.34 0 0.68 0 0 Z " fill="#FCCA15" transform="translate(206,160)"/>
<path d="M0 0 C2.31 0.66 4.62 1.32 7 2 C7.33 3.32 7.66 4.64 8 6 C8.66 6 9.32 6 10 6 C9.67 6.66 9.34 7.32 9 8 C7.49712782 6.85793642 5.99776716 5.71125043 4.5 4.5625 C3.6646875 3.92441406 2.829375 3.28632813 1.96875 2.62890625 C1.3190625 2.09136719 0.669375 1.55382812 0 1 C0 0.67 0 0.34 0 0 Z " fill="#3B2303" transform="translate(103,271)"/>
<path d="M0 0 C2.475 0.99 2.475 0.99 5 2 C5 2.66 5 3.32 5 4 C5.66 4.33 6.32 4.66 7 5 C8.03145371 6.30915279 9.03542166 7.64082143 10 9 C7 9 7 9 5.17578125 7.28515625 C4.56089844 6.55167969 3.94601562 5.81820312 3.3125 5.0625 C2.68988281 4.33160156 2.06726563 3.60070312 1.42578125 2.84765625 C0 1 0 1 0 0 Z " fill="#E2BD2C" transform="translate(288,223)"/>
<path d="M0 0 C1.875 0.1875 1.875 0.1875 4 1 C5.0625 3.375 5.0625 3.375 6 6 C7.52007842 7.77277259 7.52007842 7.77277259 9 9 C8.01 9 7.02 9 6 9 C4.39453125 7.28515625 4.39453125 7.28515625 2.8125 5.0625 C2.28269531 4.33160156 1.75289062 3.60070312 1.20703125 2.84765625 C0 1 0 1 0 0 Z " fill="#D7B933" transform="translate(181,220)"/>
<path d="M0 0 C3.3 0 6.6 0 10 0 C7.6870518 2.3129482 6.52095125 2.49580975 3.375 3.125 C2.55773437 3.29257813 1.74046875 3.46015625 0.8984375 3.6328125 C-0.04128906 3.81457031 -0.04128906 3.81457031 -1 4 C-0.67 2.68 -0.34 1.36 0 0 Z " fill="#3A2307" transform="translate(150,184)"/>
<path d="M0 0 C-0.33 0.99 -0.66 1.98 -1 3 C-5.09724467 4.54613006 -7.81857651 5.29227216 -12 4 C-10.3767313 3.3291288 -8.75132422 2.66342971 -7.125 2 C-6.22007812 1.62875 -5.31515625 1.2575 -4.3828125 0.875 C-2 0 -2 0 0 0 Z " fill="#C9B125" transform="translate(342,291)"/>
<path d="M0 0 C-2.22825644 2.22825644 -3.65761628 2.69239369 -6.625 3.625 C-7.44226563 3.88539063 -8.25953125 4.14578125 -9.1015625 4.4140625 C-9.72804687 4.60742188 -10.35453125 4.80078125 -11 5 C-11 4.01 -11 3.02 -11 2 C-7.17679443 0.57741188 -4.08718695 -0.24042276 0 0 Z " fill="#3E2203" transform="translate(140,192)"/>
<path d="M0 0 C0 3 0 3 -1.1875 5.1875 C-3 7 -3 7 -5.6875 7.25 C-6.450625 7.1675 -7.21375 7.085 -8 7 C-5.4837822 4.39391727 -2.94865641 2.10618315 0 0 Z " fill="#DBB42D" transform="translate(363,277)"/>
<path d="M0 0 C1.48280196 0.78483659 2.9611498 1.57809334 4.4375 2.375 C5.67306641 3.03628906 5.67306641 3.03628906 6.93359375 3.7109375 C9 5 9 5 10 7 C6.06380262 6.43768609 3.20807554 5.38314183 0 3 C0 2.01 0 1.02 0 0 Z " fill="#301C02" transform="translate(117,269)"/>
<path d="M0 0 C1 2 1 2 0.44140625 3.9453125 C0.15136719 4.66460937 -0.13867188 5.38390625 -0.4375 6.125 C-0.72496094 6.84945313 -1.01242187 7.57390625 -1.30859375 8.3203125 C-1.53675781 8.87460937 -1.76492188 9.42890625 -2 10 C-3.32 9.67 -4.64 9.34 -6 9 C-4.02 6.03 -2.04 3.06 0 0 Z " fill="#C7A023" transform="translate(381,257)"/>
<path d="M0 0 C1.32 0.66 2.64 1.32 4 2 C3.34 3.65 2.68 5.3 2 7 C1.01 7 0.02 7 -1 7 C-0.67 4.69 -0.34 2.38 0 0 Z " fill="#251402" transform="translate(89,223)"/>
<path d="M0 0 C0.99 0.33 1.98 0.66 3 1 C1.68 4.63 0.36 8.26 -1 12 C-1.33 12 -1.66 12 -2 12 C-1.85962479 10.18706911 -1.71255111 8.3746557 -1.5625 6.5625 C-1.48128906 5.55316406 -1.40007812 4.54382813 -1.31640625 3.50390625 C-1 1 -1 1 0 0 Z " fill="#270F00" transform="translate(100,220)"/>
<path d="M0 0 C1 3 1 3 0 6 C-1.98 6 -3.96 6 -6 6 C-4 4 -2 2 0 0 Z " fill="#D9AE25" transform="translate(370,271)"/>
<path d="M0 0 C1.32 0 2.64 0 4 0 C4 0.66 4 1.32 4 2 C5.98 2.66 7.96 3.32 10 4 C9.67 4.66 9.34 5.32 9 6 C7.68397477 5.38245741 6.37226444 4.75571258 5.0625 4.125 C4.33160156 3.77695313 3.60070312 3.42890625 2.84765625 3.0703125 C1 2 1 2 0 0 Z " fill="#EAC12E" transform="translate(354,189)"/>
<path d="M0 0 C1.258125 0.12375 2.51625 0.2475 3.8125 0.375 C4.87404297 0.47941406 4.87404297 0.47941406 5.95703125 0.5859375 C8 1 8 1 11 3 C11 3.66 11 4.32 11 5 C9.53932801 4.54917531 8.08151968 4.08906463 6.625 3.625 C5.81289063 3.36976563 5.00078125 3.11453125 4.1640625 2.8515625 C2 2 2 2 0 0 Z " fill="#CCA829" transform="translate(330,178)"/>
<path d="M0 0 C1.43861294 0.08746284 2.87597508 0.19565348 4.3125 0.3125 C5.11300781 0.37050781 5.91351563 0.42851562 6.73828125 0.48828125 C9.36272334 1.08206694 10.30820672 1.95780294 12 4 C7.80530429 3.40075776 3.99000166 2.42500059 0 1 C0 0.67 0 0.34 0 0 Z " fill="#3B2B05" transform="translate(152,298)"/>
<path d="M0 0 C3.375 -0.1875 3.375 -0.1875 7 0 C7.66 0.99 8.32 1.98 9 3 C6.03 2.67 3.06 2.34 0 2 C0 1.34 0 0.68 0 0 Z " fill="#D6A62D" transform="translate(169,291)"/>
<path d="M0 0 C2.4375 1.125 2.4375 1.125 5 3 C5.8125 6.1875 5.8125 6.1875 6 9 C5.01 9 4.02 9 3 9 C3.33 7.35 3.66 5.7 4 4 C2.68 3.34 1.36 2.68 0 2 C0 1.34 0 0.68 0 0 Z " fill="#EEC422" transform="translate(108,276)"/>
<path d="M0 0 C1.8125 0.1875 1.8125 0.1875 4 1 C5.75 3.5625 5.75 3.5625 7 6 C6.34 6 5.68 6 5 6 C5 5.34 5 4.68 5 4 C3.35 3.67 1.7 3.34 0 3 C0 2.01 0 1.02 0 0 Z " fill="#E0B922" transform="translate(97,267)"/>
<path d="M0 0 C0.66 0.33 1.32 0.66 2 1 C0.1875 3 0.1875 3 -2 5 C-2.99 5 -3.98 5 -5 5 C-4.1875 3.0625 -4.1875 3.0625 -3 1 C-2.01 0.67 -1.02 0.34 0 0 Z " fill="#DBB82A" transform="translate(367,256)"/>
<path d="M0 0 C1.32 0.33 2.64 0.66 4 1 C4 1.66 4 2.32 4 3 C4.78375 2.79375 5.5675 2.5875 6.375 2.375 C7.674375 2.189375 7.674375 2.189375 9 2 C9.66 2.66 10.32 3.32 11 4 C8.03 4 5.06 4 2 4 C1.34 2.68 0.68 1.36 0 0 Z " fill="#2A1801" transform="translate(181,242)"/>
<path d="M0 0 C3 0 3 0 5 1 C3.35 2.98 1.7 4.96 0 7 C-1.04449911 3.86650268 -0.93423645 3.01031744 0 0 Z " fill="#251601" transform="translate(104,212)"/>
<path d="M0 0 C0.99 0.33 1.98 0.66 3 1 C0.69 3.31 -1.62 5.62 -4 8 C-4 4.09161134 -2.49432124 2.88405893 0 0 Z " fill="#D9B63A" transform="translate(100,203)"/>
<path d="M0 0 C1.32 0.66 2.64 1.32 4 2 C4 2.33 4 2.66 4 3 C-2.28571429 5.42857143 -2.28571429 5.42857143 -6 4 C-4.02 2.68 -2.04 1.36 0 0 Z " fill="#F0C70E" transform="translate(158,168)"/>
<path d="M0 0 C0 0.33 0 0.66 0 1 C-4.46236469 2.80619523 -7.31034294 3.11658501 -12 2 C-8.09971775 -0.60018816 -4.52565431 -0.15085514 0 0 Z " fill="#4C3603" transform="translate(200,165)"/>
<path d="M0 0 C2.31 0 4.62 0 7 0 C7.33 0.66 7.66 1.32 8 2 C7.67 2.66 7.34 3.32 7 4 C4.08482708 2.92598892 2.22189824 2.22189824 0 0 Z " fill="#2D1405" transform="translate(119,283)"/>
<path d="M0 0 C0.33 0.66 0.66 1.32 1 2 C-0.04109483 4.56269497 -1.02610343 6.02610343 -3 8 C-3.99 7.67 -4.98 7.34 -6 7 C-4.02 4.69 -2.04 2.38 0 0 Z " fill="#2B1905" transform="translate(369,256)"/>
<path d="M0 0 C2.475 0.495 2.475 0.495 5 1 C5.33 2.98 5.66 4.96 6 7 C4.62437146 5.71034824 3.29233607 4.37310707 2 3 C2 2.34 2 1.68 2 1 C1.34 0.67 0.68 0.34 0 0 Z " fill="#291300" transform="translate(174,233)"/>
<path d="M0 0 C3.3 0.33 6.6 0.66 10 1 C9.01 1.495 9.01 1.495 8 2 C8 2.66 8 3.32 8 4 C2.25 2.25 2.25 2.25 0 0 Z " fill="#422A05" transform="translate(330,190)"/>
<path d="M0 0 C2.97 0 5.94 0 9 0 C9.33 0.99 9.66 1.98 10 3 C8.35 3 6.7 3 5 3 C5 2.67 5 2.34 5 2 C3.35 1.67 1.7 1.34 0 1 C0 0.67 0 0.34 0 0 Z " fill="#F6C627" transform="translate(313,171)"/>
<path d="M0 0 C3.3 0.33 6.6 0.66 10 1 C8 3 8 3 5.5625 3.3125 C3 3 3 3 0 0 Z " fill="#291300" transform="translate(174,294)"/>
<path d="M0 0 C1.42944945 2.35438733 2.08661261 3.48032433 1.625 6.25 C1.41875 6.8275 1.2125 7.405 1 8 C0.01 8 -0.98 8 -2 8 C-1.34 5.36 -0.68 2.72 0 0 Z " fill="#261600" transform="translate(375,242)"/>
<path d="M0 0 C4.875 3.75 4.875 3.75 6 6 C4.68 6.33 3.36 6.66 2 7 C0 4 0 4 0 0 Z " fill="#332208" transform="translate(184,225)"/>
<path d="M0 0 C0.66 0 1.32 0 2 0 C2.66 2.31 3.32 4.62 4 7 C2.68 6.67 1.36 6.34 0 6 C0 4.02 0 2.04 0 0 Z " fill="#07000F" transform="translate(104,204)"/>
</svg>
