<?xml version="1.0" encoding="UTF-8"?>
<svg version="1.1" xmlns="http://www.w3.org/2000/svg" width="1024" height="1024">
<path d="M0 0 C337.92 0 675.84 0 1024 0 C1024 337.92 1024 675.84 1024 1024 C686.08 1024 348.16 1024 0 1024 C0 686.08 0 348.16 0 0 Z " fill="#010101" transform="translate(0,0)"/>
<path d="M0 0 C120.45 0 240.9 0 365 0 C365 78.54 365 157.08 365 238 C363.02 238.99 363.02 238.99 361 240 C360.33170712 241.33251899 359.66543175 242.66604992 359 244 C356.98760218 246.19720009 354.95567269 248.30713656 352.84130859 250.40161133 C352.21013123 251.03468704 351.57895386 251.66776276 350.9286499 252.32002258 C348.84010067 254.41227677 346.74443421 256.49723995 344.6484375 258.58203125 C343.19035983 260.03891614 341.73265237 261.49617163 340.27529907 262.95378113 C337.21672708 266.01078837 334.15482426 269.06440625 331.09033203 272.11547852 C327.17823513 276.01065354 323.2726844 279.91231 319.36942101 283.81633472 C316.35669232 286.82879019 313.34135393 289.83862202 310.32515335 292.84760094 C308.88538266 294.28420628 307.44620201 295.72140323 306.00764084 297.15921974 C303.98593777 299.17873258 301.96096115 301.19490609 299.93505859 303.21020508 C299.34981415 303.79590271 298.7645697 304.38160034 298.16159058 304.98504639 C295.16948159 307.95450651 292.11556831 310.79425769 288.91976929 313.54432678 C285.47231406 316.52888714 282.37870804 319.67947573 279.34863281 323.08056641 C272.91328836 330.16893697 266.19695429 336.94887673 259.421875 343.7109375 C258.15767147 344.97581731 256.89361618 346.24084531 255.62969971 347.50601196 C253.00605163 350.13111909 250.3806427 352.75444813 247.75390625 355.37646484 C244.40650154 358.71814365 241.06364827 362.06433401 237.72208786 365.4118557 C235.12266368 368.01490912 232.52084327 370.61555699 229.91831207 373.21550369 C228.68493778 374.44821679 227.45228951 375.68165679 226.22042084 376.91587448 C220.51780014 382.62699451 214.82797682 388.29731406 208.68438721 393.54022217 C206.05982631 395.81480357 203.63661734 398.25181097 201.1875 400.71484375 C200.68831055 401.21544815 200.18912109 401.71605255 199.67480469 402.23182678 C198.1141263 403.79800764 196.55700153 405.36766471 195 406.9375 C193.92862113 408.01390654 192.85700818 409.09008014 191.78515625 410.16601562 C189.18740362 412.77466745 186.59282038 415.38644471 184 418 C179.93847587 416.38273758 177.22168257 413.48964545 174.20922852 410.4362793 C173.64121521 409.86855804 173.0732019 409.30083679 172.48797607 408.71591187 C170.6135058 406.84004976 168.74622094 404.95720172 166.87890625 403.07421875 C165.57424461 401.76582404 164.26913852 400.45787237 162.96360779 399.15034485 C159.52684287 395.70594659 156.09612025 392.25559057 152.66662598 388.80395508 C149.18693781 385.30387772 145.70165329 381.8093834 142.21679688 378.31445312 C136.58135783 372.66144537 130.94932744 367.00506874 125.32188416 361.34410095 C122.21988312 358.22407926 119.11169276 355.11035321 116 352 C114.58313763 350.57505903 113.16629957 349.15009368 111.75012207 347.72447205 C109.57406125 345.534903 107.39522259 343.34810628 105.21630859 341.16137695 C104.07120734 340.01122618 102.92700232 338.86018243 101.78369141 337.70825195 C100.11859603 336.03097295 98.45024324 334.35699311 96.78125 332.68359375 C96.02322083 331.91782265 96.02322083 331.91782265 95.24987793 331.13658142 C92.31170319 328.19794817 89.24342629 325.58989527 86 323 C84.93177962 321.88888178 84.93177962 321.88888178 83.84197903 320.75531673 C80.46703719 317.48328916 76.83934189 314.76403144 73.0771637 311.95765686 C39.65583878 286.5370725 -0.22075241 255.99614772 -6.24228036 211.87526286 C-7.53843444 200.33839604 -7.92358565 188.84895773 -7.91015625 177.24609375 C-7.91198748 176.06832595 -7.91381872 174.89055815 -7.91570544 173.67710042 C-7.87638893 153.53299431 -6.33748834 133.55523645 -5.0625 113.4375 C-3.391875 76.003125 -1.72125 38.56875 0 0 Z " fill="#F36620" transform="translate(329,258)"/>
<path d="M0 0 C89.76 0 179.52 0 272 0 C272.78375 27.59625 273.5675 55.1925 274.375 83.625 C274.72095215 92.25865723 275.0669043 100.89231445 275.42333984 109.78759766 C275.58307344 116.75193857 275.71666599 123.70010957 275.7109375 130.6640625 C275.71195701 131.56496628 275.71297652 132.46587007 275.71402693 133.39407396 C275.66575893 156.17457167 274.63635655 174.5526104 258.23648071 191.62142944 C250.79610747 198.64532097 242.79456729 204.77286372 234 210 C229.91195324 208.15499501 228.12059734 205.87461255 225.4375 202.25 C224.55553702 201.07228001 223.67269276 199.89521957 222.7890625 198.71875 C222.33305664 198.10773438 221.87705078 197.49671875 221.40722656 196.8671875 C219.08906923 193.79132572 216.69978964 190.77230373 214.3125 187.75 C213.39574813 186.58340028 212.47907933 185.41673528 211.5625 184.25 C209.96674726 182.22206423 208.36208031 180.20260039 206.75 178.1875 C206.110625 177.383125 205.47125 176.57875 204.8125 175.75 C204.26207031 175.06421875 203.71164062 174.3784375 203.14453125 173.671875 C202 172 202 172 202 170 C203.0621875 169.50371094 204.124375 169.00742187 205.21875 168.49609375 C212.96778371 164.80114779 220.04755314 161.34539567 226 155 C226.80630859 154.18789063 226.80630859 154.18789063 227.62890625 153.359375 C238.31822797 141.89313516 240.55838497 127.3644289 240.4375 112.25 C240.43243942 111.25554367 240.43243942 111.25554367 240.42727661 110.24099731 C240.29952671 92.93153944 236.99910965 77.09192435 224.6875 64.0625 C210.68685924 51.17152217 194.38645633 48.83630449 176.07836914 48.88647461 C174.66848757 48.88675699 173.25860585 48.88659775 171.84872437 48.8860321 C168.03726397 48.88574613 164.22583527 48.89161051 160.41438222 48.89860606 C156.42521785 48.90487291 152.43605269 48.90544603 148.44688416 48.90663147 C140.89996766 48.90973498 133.35306572 48.91793512 125.80615562 48.92798096 C117.21123743 48.93917258 108.61631852 48.94466022 100.02139485 48.94967639 C82.34758833 48.96011857 64.67379534 48.97769899 47 49 C48.00776489 50.09973145 48.00776489 50.09973145 49.03588867 51.22167969 C49.9251001 52.19524414 50.81431152 53.16880859 51.73046875 54.171875 C52.60856201 55.1319043 53.48665527 56.09193359 54.39135742 57.08105469 C57.55200473 60.61766668 60.52882995 64.27947624 63.5078125 67.96875 C67.98144557 73.41003411 72.63344387 78.69891898 77.26831055 84.00292969 C79 86 79 86 80.14263058 87.69678497 C82.1524053 90.46246625 83.75908939 92.61967595 87.10546017 93.645298 C89.64110927 93.87940778 92.09617773 93.8974886 94.64208984 93.83886719 C95.59571915 93.84482407 96.54934845 93.85078094 97.53187561 93.85691833 C100.67578485 93.86900294 103.81723951 93.83255518 106.9609375 93.796875 C109.15280704 93.79864319 111.34467631 93.80392405 113.53652954 93.81256104 C119.30412005 93.82781685 125.07083517 93.8039736 130.83831787 93.76934814 C140.06172584 93.7188896 149.28509337 93.72054278 158.50859451 93.73575592 C161.72378484 93.734396 164.93832835 93.71207235 168.15341187 93.68719482 C170.13531396 93.68374894 172.1172172 93.6808901 174.09912109 93.67871094 C174.98665573 93.66627853 175.87419037 93.65384613 176.78862 93.64103699 C183.50951128 93.66052417 189.48201581 94.48201581 194.4375 99.4375 C198.64441226 106.33683611 197.88629127 116.9000697 196.5390625 124.65234375 C194.89716283 129.68428333 192.26230946 132.15846036 188 135 C183.76245168 136.68368916 180.17335707 137.26318338 175.62744141 137.31884766 C174.38660797 137.33871735 173.14577454 137.35858704 171.86734009 137.37905884 C170.52874937 137.39093233 169.19015676 137.40259536 167.8515625 137.4140625 C166.47007105 137.43279091 165.08859084 137.45236556 163.7071228 137.4727478 C160.0872055 137.52389861 156.46725118 137.56361497 152.84716797 137.60089111 C149.14671805 137.64103827 145.44641985 137.69208152 141.74609375 137.7421875 C134.49750023 137.8387446 127.24883279 137.92321334 120 138 C121.25076625 139.72601101 122.50240375 141.45139068 123.75439453 143.17651367 C124.45130402 144.13740402 125.1482135 145.09829437 125.86624146 146.08830261 C129.13479805 150.54852972 132.50531072 154.92851607 135.875 159.3125 C140.83688958 165.79421155 145.71937629 172.31102724 150.42675781 178.97949219 C156.72040306 187.87848684 163.34583202 196.53616771 169.96875 205.19140625 C176.34383908 213.52435969 182.69974389 221.84970889 188.74414062 230.42675781 C192.01925343 235.06697396 195.4553281 239.56329146 199 244 C193.25911114 251.02305029 186.80306544 257.3234361 180.3828125 263.71484375 C179.15805511 264.93773316 177.93352047 266.1608457 176.709198 267.38417053 C173.50571366 270.58385956 170.29923634 273.78053248 167.09210205 276.9765625 C163.81217384 280.246212 160.53511874 283.5187384 157.2578125 286.79101562 C150.84133235 293.19681119 144.421683 299.59942049 138 306 C123.37216846 299.80081378 110.77212812 281.88715533 99.58776426 270.65622663 C96.83137775 267.88973787 94.07164442 265.12659211 91.31216431 262.3631897 C84.33010417 255.37012255 77.35234767 248.37276854 70.375 241.375 C62.80441903 233.78234152 55.23305776 226.19046965 47.65684664 218.60342848 C44.37967155 215.32127794 41.10494719 212.03670764 37.83209491 208.75024676 C35.80351147 206.71421439 33.77286756 204.68024674 31.74165344 202.64683914 C30.35106127 201.25347887 28.96298616 199.85760797 27.57498169 198.46166992 C26.33485321 197.2214357 26.33485321 197.2214357 25.06967163 195.95614624 C24.35188726 195.23614126 23.6341029 194.51613628 22.89456749 193.77431297 C20.92134627 191.82920082 20.92134627 191.82920082 18 190 C18 189.34 18 188.68 18 188 C17.01 187.67 16.02 187.34 15 187 C15 186.34 15 185.68 15 185 C13.68 184.34 12.36 183.68 11 183 C11 182.34 11 181.68 11 181 C10.01 180.67 9.02 180.34 8 180 C8 179.34 8 178.68 8 178 C7.4225 177.7525 6.845 177.505 6.25 177.25 C3.54366197 175.74647887 1.94497698 174.42942176 0 172 C-0.49219131 168.82162094 -0.49219131 168.82162094 -0.48101807 164.98919678 C-0.48615417 163.93306183 -0.48615417 163.93306183 -0.49139404 162.85559082 C-0.49801489 160.48892723 -0.47592449 158.12339603 -0.45410156 155.75683594 C-0.45287626 154.03423219 -0.45341013 152.31162643 -0.45556259 150.58902359 C-0.45646621 145.97296625 -0.43327152 141.35732308 -0.40512085 136.74136353 C-0.38235273 132.41105839 -0.38126904 128.08085434 -0.37841797 123.75048828 C-0.35742282 111.08360393 -0.30157825 98.41679674 -0.25 85.75 C-0.1675 57.4525 -0.085 29.155 0 0 Z " fill="#020101" transform="translate(376,303)"/>
</svg>
