<?xml version="1.0" encoding="UTF-8"?>
<svg version="1.1" xmlns="http://www.w3.org/2000/svg" width="2482" height="2482">
<path d="M0 0 C1.82366592 0.00090637 1.82366592 0.00090637 3.68417358 0.00183105 C25.51054056 0.03103616 47.23199641 0.58011206 69 2.1875 C69.8305188 2.2483075 70.6610376 2.30911499 71.51672363 2.37176514 C127.67528531 6.54131963 183.35839334 15.54401406 237.87652588 29.64050293 C239.92198056 30.16740255 241.96914792 30.68696425 244.01708984 31.20410156 C293.69584009 43.78847103 342.28742348 61.16185346 389 82.1875 C390.61479248 82.90921387 390.61479248 82.90921387 392.26220703 83.64550781 C418.55282416 95.42803289 444.47853483 108.16564578 469.37939453 122.66992188 C472.04248009 124.21209999 474.71954472 125.72678226 477.40234375 127.234375 C514.3285968 148.01400152 549.49908025 172.28884446 583 198.1875 C583.99990967 198.95924561 583.99990967 198.95924561 585.02001953 199.74658203 C603.43262637 213.98769792 621.27245701 228.95794151 638.359375 244.765625 C640.60352192 246.82386626 642.87712932 248.82958344 645.1875 250.8125 C648.82232324 253.95816484 652.18505681 257.33209702 655.53125 260.78125 C657.53437232 262.73366036 659.56516727 264.55695906 661.68359375 266.37890625 C666.52503157 270.58173913 671.0416259 275.08247766 675.5625 279.625 C676.77969727 280.83639648 676.77969727 280.83639648 678.02148438 282.07226562 C682.34727459 286.40503855 686.49993208 290.81956389 690.49194336 295.46118164 C692.39705629 297.64202243 694.42212143 299.67164766 696.5 301.6875 C699.89268399 305.04006779 703.09100684 308.48225682 706.1953125 312.1015625 C708.21651276 314.43775501 710.29378839 316.71714851 712.375 319 C716.25350727 323.29709827 719.92865968 327.72508754 723.56640625 332.2265625 C725.75160562 334.88528019 727.98413781 337.48816439 730.24462891 340.08227539 C736.96555422 347.80708852 743.1998656 355.84189167 749.35888672 364.01855469 C750.97890389 366.15961874 752.61331182 368.28873578 754.25390625 370.4140625 C808.6259795 440.86697921 852.35769161 520.12611849 942.6875 873.4375 C942.74843842 874.25539001 942.80937683 875.07328003 942.87216187 875.91595459 C944.57952644 899.16466187 945.20791731 922.37849727 945.1875 945.6875 C945.18689575 946.97430664 945.1862915 948.26111328 945.18566895 949.58691406 C945.15748551 971.84220801 944.66744443 993.99297207 943 1016.1875 C942.93683594 1017.03131226 942.87367187 1017.87512451 942.80859375 1018.74450684 C936.34403097 1103.81767768 918.96645679 1188.45246524 850 1361.1875 C849.44924805 1362.32896484 848.89849609 1363.47042969 848.33105469 1364.64648438 C841.60984582 1378.51029452 834.32479954 1391.97508084 826.63671875 1405.32421875 C824.99628481 1408.19399936 823.38457109 1411.07809081 821.78125 1413.96875 C799.70082952 1453.70813939 773.48076466 1491.75042354 745 1527.1875 C744.4858252 1527.8278418 743.97165039 1528.46818359 743.44189453 1529.12792969 C736.53777578 1537.70985922 729.53394933 1546.20012475 722.37695312 1554.57226562 C720.95878654 1556.23584543 719.54924683 1557.90645876 718.140625 1559.578125 C711.31956782 1567.64350287 704.21823255 1575.4005745 696.96557617 1583.07836914 C695.52095031 1584.62850239 694.09087684 1586.19223012 692.66918945 1587.76342773 C685.46131209 1595.72557883 677.97066173 1603.37088319 670.36499023 1610.95288086 C668.30139939 1613.01107157 666.24326325 1615.0746098 664.18554688 1617.13867188 C662.8492791 1618.47427934 661.51270143 1619.80957684 660.17578125 1621.14453125 C659.57349197 1621.74884476 658.9712027 1622.35315826 658.35066223 1622.9757843 C654.64442454 1626.66203573 650.81959615 1630.15985269 646.85668945 1633.56892395 C643.71449726 1636.30814187 640.71245091 1639.19533762 637.6875 1642.0625 C632.46533366 1646.97790063 627.15100768 1651.63270096 621.546875 1656.109375 C618.9299167 1658.24468453 616.43157221 1660.47280363 613.9375 1662.75 C609.12513691 1667.12418875 604.11843618 1671.17891018 599 1675.1875 C597.95147181 1676.01648319 596.90331325 1676.84593404 595.85546875 1677.67578125 C575.75009231 1693.57305564 555.22777547 1708.81826335 534 1723.1875 C533.39124023 1723.60064453 532.78248047 1724.01378906 532.15527344 1724.43945312 C514.52585181 1736.38165929 496.41824964 1747.50715159 478 1758.1875 C477.0929834 1758.71456543 476.1859668 1759.24163086 475.25146484 1759.78466797 C429.78034357 1786.11431919 382.18691256 1808.19064929 332.95269775 1826.46087646 C331.12219217 1827.14203075 329.29415696 1827.82981343 327.46630859 1828.51806641 C242.10964965 1860.60035367 149.4261865 1879.09055769 56 1883.1875 C54.59160355 1883.24945053 54.59160355 1883.24945053 53.15475464 1883.31265259 C34.20705323 1884.12590022 15.27557057 1884.39124136 -3.6875 1884.375 C-4.3914024 1884.37473312 -5.09530479 1884.37446625 -5.82053757 1884.37419128 C-86.32790416 1884.33606344 -165.69421606 1874.63077352 -583 1679.1875 C-584.28970703 1678.14335937 -584.28970703 1678.14335937 -585.60546875 1677.078125 C-592.23881314 1671.679559 -598.78457639 1666.18277115 -605.29541016 1660.63769531 C-607.02119329 1659.16946961 -608.75074272 1657.70576467 -610.48046875 1656.2421875 C-616.77209045 1650.90270255 -622.96650687 1645.48069104 -628.99726868 1639.84725952 C-631.58757997 1637.42766894 -634.18515994 1635.01928691 -636.80883789 1632.63574219 C-645.9400801 1624.3269621 -654.68693918 1615.65350674 -663.40429688 1606.91357422 C-665.88818449 1604.42428685 -668.37742683 1601.94044298 -670.8671875 1599.45703125 C-672.47167518 1597.85188331 -674.07585292 1596.2464255 -675.6796875 1594.640625 C-676.41210663 1593.9102301 -677.14452576 1593.17983521 -677.8991394 1592.42730713 C-681.91325917 1588.39506689 -685.76180831 1584.27327759 -689.46905518 1579.95655823 C-691.86175723 1577.19171055 -694.37377473 1574.54126152 -696.875 1571.875 C-701.40901694 1567.0064425 -705.68492781 1561.99417836 -709.8515625 1556.8046875 C-712.01511772 1554.16908387 -714.2638956 1551.64326625 -716.5625 1549.125 C-720.93668875 1544.31263691 -724.99141018 1539.30593618 -729 1534.1875 C-729.82898319 1533.13897181 -730.65843404 1532.09081325 -731.48828125 1531.04296875 C-747.38555564 1510.93759231 -762.63076335 1490.41527547 -777 1469.1875 C-777.41314453 1468.57874023 -777.82628906 1467.96998047 -778.25195312 1467.34277344 C-825.57777896 1397.47905432 -863.056191 1321.12443958 -937 989.1875 C-937.05639648 987.94258789 -937.11279297 986.69767578 -937.17089844 985.41503906 C-940.92553095 897.94765322 -932.68578348 810.9604597 -765 399.1875 C-764.42121094 398.37168457 -763.84242188 397.55586914 -763.24609375 396.71533203 C-751.83719393 380.67073945 -739.87176366 365.12044307 -727.39257812 349.89599609 C-725.55087934 347.63649257 -723.74385924 345.35030622 -721.9375 343.0625 C-714.39171987 333.61041752 -706.39571643 324.53635563 -698.22265625 315.625 C-696.32578236 313.54477275 -694.46607057 311.44193102 -692.625 309.3125 C-681.92962232 297.06412161 -670.52410145 285.55461745 -659.01708984 274.07421875 C-656.23809327 271.30061638 -653.46452717 268.52166319 -650.69140625 265.7421875 C-648.90396663 263.95540819 -647.1162171 262.16893885 -645.328125 260.3828125 C-644.51023499 259.56289825 -643.69234497 258.74298401 -642.84967041 257.89822388 C-638.60384716 253.66952574 -634.28892946 249.58764557 -629.73829651 245.68768311 C-626.98114202 243.30820609 -624.34332737 240.80364763 -621.6875 238.3125 C-616.91242398 233.8696212 -612.01180267 229.66427093 -606.921875 225.58203125 C-604.14518923 223.30648529 -601.44691832 220.96486394 -598.75415039 218.59179688 C-590.84275697 211.62705713 -582.61645938 205.19936241 -574.20019531 198.85986328 C-571.96930031 197.16416524 -569.75916277 195.44472437 -567.5546875 193.71484375 C-566.80356689 193.12566162 -566.05244629 192.53647949 -565.27856445 191.92944336 C-563.88970013 190.83772286 -562.50254316 189.74382296 -561.11791992 188.64672852 C-546.96227142 177.54630518 -532.0985386 167.39156792 -517.125 157.4375 C-515.86357178 156.59742905 -515.86357178 156.59742905 -514.57666016 155.74038696 C-499.6265829 145.79675948 -484.50722133 136.2403911 -469 127.1875 C-467.58219238 126.35750488 -467.58219238 126.35750488 -466.13574219 125.51074219 C-459.47912837 121.6341745 -452.76056288 117.87948875 -446 114.1875 C-445.39625549 113.85770142 -444.79251099 113.52790283 -444.17047119 113.18811035 C-370.38854126 72.94512191 -291.77212615 42.97559122 -69.375 2.4375 C-68.61485596 2.37815277 -67.85471191 2.31880554 -67.0715332 2.25765991 C-44.73411008 0.54768366 -22.39833373 -0.02082293 0 0 Z " fill="#E32527" transform="translate(1285,298.8125)"/>
<path d="M0 0 C3.55597743 -0.09967207 7.11099795 -0.16141791 10.66796875 -0.21386719 C11.80524414 -0.24375732 12.94251953 -0.27364746 14.11425781 -0.30444336 C21.97890807 -0.35773777 30.25740199 0.35411535 36.63208008 5.47583008 C41.28167531 10.64064391 42.18660923 16.92754438 42.98046875 23.59863281 C43.13644531 24.86707031 43.29242187 26.13550781 43.453125 27.44238281 C46.43864734 55.38426237 46.06749561 83.6557106 46.11719894 111.71944046 C46.12809789 117.70649203 46.1483831 123.69349144 46.1703186 129.68051147 C46.23155957 146.67891098 46.28641246 163.67730114 46.31933594 180.67578125 C46.33770613 190.12059794 46.36664178 199.56532071 46.40734065 209.0100683 C46.4283102 213.98378283 46.44385422 218.95737984 46.44614792 223.9311409 C46.44830168 228.59203245 46.46424482 233.25267624 46.49053764 237.9134922 C46.49769478 239.61496805 46.49984915 241.31647403 46.49643517 243.0179615 C46.47479198 255.86001908 46.98736314 268.0058251 55.91796875 278.09863281 C68.56544107 289.38895628 89.96157026 289.43944401 105.79296875 289.28613281 C106.98792969 289.28548828 108.18289063 289.28484375 109.4140625 289.28417969 C116.05518406 289.25402323 122.68602122 289.11741685 129.32278442 288.86938477 C151.41648526 288.05357667 173.49135061 287.93432776 195.59833908 287.93137574 C198.64597498 287.93065448 201.69360663 287.9285008 204.74124146 287.92587852 C215.419294 287.91670927 226.09733427 287.91253438 236.77539062 287.91333008 C246.66415467 287.91393399 256.55286474 287.9032993 266.4416151 287.88758641 C275.00634863 287.87447096 283.57106452 287.8691476 292.13580799 287.86978549 C297.21973917 287.87003857 302.30362175 287.8672911 307.38754272 287.85660744 C312.15511304 287.84685398 316.92258881 287.84689634 321.69016266 287.85412407 C323.42503245 287.85515976 325.1599084 287.8528684 326.89476776 287.84676361 C365.58048488 287.71956209 365.58048488 287.71956209 378.85546875 300.73925781 C386.42364506 309.39679283 387.20164605 320.09674195 387.296875 331.16894531 C387.31386948 332.20824188 387.33086395 333.24753845 387.34837341 334.31832886 C387.4011068 337.62003599 387.44155182 340.92173641 387.48046875 344.22363281 C387.53912431 348.55965724 387.60336625 352.89556572 387.671875 357.23144531 C387.68797821 358.285979 387.70408142 359.3405127 387.72067261 360.42700195 C387.81492402 365.79673355 388.00600881 371.1255359 388.4296875 376.48144531 C389.20457887 386.72380003 389.14136783 396.99109142 389.15820312 407.2578125 C389.16791097 410.82738536 389.19902861 414.39638166 389.23046875 417.96582031 C389.29182157 431.30606447 388.61811848 444.02315898 385.91796875 457.09863281 C385.76837204 457.83852951 385.61877533 458.57842621 385.46464539 459.34074402 C380.4654818 483.83181216 371.11865157 507.80193812 354.91796875 527.09863281 C353.9712186 528.25867843 353.02461174 529.41884101 352.078125 530.57910156 C317.07951129 572.94165123 262.1072162 593.09680361 208.7734375 598.52050781 C194.41790845 599.79006304 180.14834377 600.23440244 165.74273872 600.14323235 C162.83344645 600.12543563 159.92421197 600.1154179 157.01487732 600.10731506 C148.75717729 600.08321142 140.49955634 600.0474953 132.24194336 600.00268555 C127.1507359 599.97559322 122.05957207 599.95875769 116.96830559 599.94781685 C115.05535193 599.94170083 113.14240571 599.93181881 111.22949409 599.91773796 C81.3089665 598.95633323 81.3089665 598.95633323 54.6328125 610.27441406 C41.12656158 624.64211151 43.40448808 646.85749179 43.91796875 665.09863281 C44.18736662 669.67216246 44.55506013 674.23662369 44.91273499 678.80397034 C46.07119472 694.95683591 46.20947195 711.05330989 46.19066584 727.24168885 C46.18813529 731.38275473 46.19732538 735.52379878 46.20504761 739.66485596 C46.21696325 746.80648651 46.22219358 753.94809498 46.222929 761.08973503 C46.22426916 771.43976223 46.23950458 781.78973681 46.25842417 792.13974518 C46.28910575 808.97442319 46.31334661 825.80910253 46.33129883 842.64379883 C46.33237151 843.64658151 46.33344419 844.64936419 46.33454937 845.68253423 C46.34637693 856.87710006 46.35658624 868.07166643 46.36499023 879.26623535 C46.36806497 883.33284507 46.37115364 887.39945477 46.37426758 891.46606445 C46.37541559 892.97154471 46.37541559 892.97154471 46.37658679 894.50743871 C46.38970924 911.29711622 46.4143959 928.08675505 46.44801098 944.87640387 C46.4681739 955.19058864 46.47860811 965.50469042 46.47602177 975.81889505 C46.47497954 982.88920462 46.48473731 989.95944874 46.5026608 997.02973544 C46.51260885 1001.09349881 46.51793986 1005.15711722 46.50989342 1009.22088814 C46.42766643 1055.23799501 52.93833895 1099.51296438 86.50341797 1133.70703125 C109.70571685 1156.53290346 140.20237099 1165.6191904 172.01371765 1165.45954895 C182.27625111 1165.35718903 192.34483341 1164.70262016 202.53830528 1163.54313087 C226.56521192 1160.83883821 250.66764284 1159.47965845 274.79943848 1158.10089111 C281.47803225 1157.71755566 288.15597776 1157.32310316 294.83399677 1156.92990398 C300.0148304 1156.62498589 305.1957374 1156.32169146 310.3769989 1156.02412415 C319.05495025 1155.52339776 327.72548232 1155.00559979 336.38902283 1154.29258728 C340.03021448 1154.01333046 343.64067851 1153.89308259 347.29296875 1153.84863281 C348.57945312 1153.82285156 349.8659375 1153.79707031 351.19140625 1153.77050781 C356.6171119 1154.2482429 360.4024625 1155.85867316 364.66796875 1159.34863281 C370.60911722 1166.6100365 370.32431547 1173.34790879 370.16796875 1182.41113281 C370.16023438 1184.14073242 370.16023438 1184.14073242 370.15234375 1185.90527344 C370.0943675 1192.5036959 369.81945356 1199.06596858 369.41015625 1205.64941406 C368.83214625 1215.15292468 368.76611025 1224.63781632 368.78759766 1234.15673828 C368.79295086 1236.96424793 368.78761622 1239.77159674 368.78125 1242.57910156 C368.77784995 1252.29696488 369.00613322 1261.9613974 369.54824829 1271.66387939 C370.00852475 1280.15365614 370.1389258 1288.63444051 370.15820312 1297.13574219 C370.16799451 1299.73045935 370.19924454 1302.32440883 370.23046875 1304.91894531 C370.32087436 1319.28454137 368.70055362 1333.24445389 364.73046875 1347.09863281 C364.52252686 1347.82808105 364.31458496 1348.5575293 364.1003418 1349.30908203 C358.38723834 1368.41271884 348.72448048 1385.72009988 334.91796875 1400.09863281 C333.787659 1401.44837065 332.66241675 1402.80237289 331.54296875 1404.16113281 C327.20033548 1409.1212965 322.14559663 1413.10948745 316.91796875 1417.09863281 C315.974375 1417.81921875 315.03078125 1418.53980469 314.05859375 1419.28222656 C255.74429372 1461.65829174 167.1639508 1477.89242379 96.91796875 1484.09863281 C95.67539307 1484.20884766 95.67539307 1484.20884766 94.40771484 1484.32128906 C-14.72811947 1493.4422212 -122.20988637 1456.59529186 -220.01953125 1382.41113281 C-222.05756076 1380.65840842 -224.0705024 1378.88224139 -226.08203125 1377.09863281 C-227.53416016 1375.81279297 -227.53416016 1375.81279297 -229.015625 1374.50097656 C-240.86936417 1363.81214669 -252.27810695 1352.72140696 -262.08203125 1340.09863281 C-262.93549597 1339.04492313 -263.79107015 1337.9929195 -264.6484375 1336.94238281 C-316.03871689 1273.53363255 -330.64812442 1196.93021554 -333.5859375 1117.47705078 C-333.62606964 1116.3981212 -333.66620178 1115.31919163 -333.70755005 1114.20756721 C-333.79133409 1111.95232955 -333.87493054 1109.69708491 -333.95834351 1107.4418335 C-334.07631591 1104.25311484 -334.19496867 1101.06442212 -334.3137207 1097.87573242 C-335.67872686 1061.11354814 -336.83739056 1024.3465478 -337.89429474 987.57442093 C-338.0216999 983.14382037 -338.15019979 978.71325185 -338.27874756 974.28268433 C-339.22778685 941.54450574 -340.13687095 908.80564673 -340.9375 876.06347656 C-340.95417339 875.38228823 -340.97084678 874.70109989 -340.98802543 873.99926949 C-341.32057442 860.40441522 -341.6468898 846.80942195 -341.9605751 833.214118 C-342.63670527 803.95927474 -343.48410623 774.71581076 -344.5161972 745.47147465 C-345.15803475 727.2621802 -345.66046437 709.05399614 -346.02566147 690.8371315 C-346.08307961 688.0477025 -346.14491069 685.25839927 -346.20767212 682.46908569 C-347.37217707 630.00339635 -347.2356432 577.53022203 -347.21060008 525.05456644 C-347.2068456 516.27400391 -347.20818139 507.49345273 -347.21240234 498.71289062 C-347.2563312 403.92426128 -347.2563312 403.92426128 -346.81002426 358.71094894 C-346.77733312 355.39327987 -346.75022026 352.0756529 -346.72876358 348.75789261 C-346.18344833 268.40435169 -320.5349676 199.17832972 -266.26171875 139.49707031 C-264.77840762 137.86489641 -263.30477733 136.22388363 -261.83984375 134.57519531 C-255.03531269 126.923041 -248.00514179 119.6260503 -240.22265625 112.96191406 C-237.75016639 110.80976504 -235.35931768 108.57882562 -232.95703125 106.34863281 C-227.7505089 101.60108764 -222.30810886 97.24836839 -216.734375 92.94238281 C-214.30059851 91.06034898 -211.90040056 89.14565759 -209.5234375 87.19238281 C-199.78160507 79.20125267 -189.60279431 72.02698906 -179.08203125 65.09863281 C-178.21658691 64.52854492 -177.35114258 63.95845703 -176.45947266 63.37109375 C-162.66661312 54.33726254 -148.54015949 46.01885452 -134.08203125 38.09863281 C-132.85105713 37.41824951 -132.85105713 37.41824951 -131.59521484 36.72412109 C-96.08967571 17.16579966 -58.43834393 5.19630048 -18.08203125 1.09863281 C-16.82390625 0.96714844 -15.56578125 0.83566406 -14.26953125 0.70019531 C-9.51356573 0.30026185 -4.76806786 0.15259026 0 0 Z " fill="#FEFEFE" transform="translate(1284.08203125,500.9013671875)"/>
</svg>
